<?xml version="1.0" encoding="UTF-8"?>
<svg id="Layer_1" xmlns="http://www.w3.org/2000/svg" version="1.1" viewBox="0 0 600 600">
  <!-- Generator: Adobe Illustrator 29.5.1, SVG Export Plug-In . SVG Version: 2.1.0 Build 141)  -->
  <defs>
    <style>
      .st0 {
        fill: #191919;
      }
    </style>
  </defs>
  <path class="st0" d="M62.97,215.15c-32.95,0-60.3-37.13-61.51-38.8-2.48-3.41-1.72-8.18,1.69-10.66s8.18-1.72,10.65,1.69c.38.52,26.7,35.99,53.08,32.23,8.66-1.24,15.75-4.53,23.95-8.35,20.04-9.32,44.94-20.92,109.35-15.44,18.26,1.55,35.87,3.27,52.89,4.93,65.24,6.36,121.6,11.86,155.53,1.64,4.01-1.22,8.29,1.07,9.5,5.11,1.21,4.03-1.07,8.29-5.11,9.51-36.81,11.09-91.8,5.72-161.41-1.06-16.98-1.66-34.54-3.37-52.71-4.91-60.33-5.13-83.23,5.52-101.62,14.07-8.92,4.15-17.33,8.07-28.23,9.62-2.04.29-4.07.43-6.08.43Z"/>
  <path class="st0" d="M449.85,249.46c-1.83,0-3.66-.65-5.12-1.98-43.82-39.77-56.72-78.44-46.03-137.93,7.41-41.19.07-83.54,0-83.96-.74-4.15,2.03-8.11,6.18-8.84,4.13-.74,8.11,2.02,8.84,6.17.33,1.83,7.9,45.38,0,89.34-9.74,54.2,1.44,87.79,41.26,123.93,3.12,2.83,3.36,7.66.52,10.78-1.51,1.66-3.57,2.5-5.65,2.5Z"/>
  <path class="st0" d="M112.97,595.01c-2.98,0-5.81-1.76-7.04-4.68-1.77-4.22-43-104.63-8.18-213.03,12.53-39.01,37.01-54.3,38.04-54.93,2.98-1.82,6.8-1.38,9.3,1.05.49.48,51.86,48.58,167.42,48.59.8,0,1.58,0,2.38,0,118.52-.67,198.16-49.77,198.95-50.27.56-.36,1.18-.64,1.82-.83,47.89-14.7,63.08-29.77,67.38-39.83,2.76-6.44,2.2-13.13-1.77-21.06-8.5-16.99-19.82-54.05-35.5-105.34-2.8-9.16-5.72-18.71-8.75-28.58-18.84-61.22-52.76-108.51-53.11-108.98-2.47-3.41-1.71-8.18,1.71-10.65,3.41-2.47,8.18-1.71,10.65,1.7,1.45,2,35.72,49.72,55.33,113.45,3.04,9.88,5.96,19.44,8.77,28.61,14.88,48.68,26.63,87.13,34.56,102.98,5.95,11.91,6.68,23.31,2.15,33.89-8.17,19.07-33.03,34.81-76,48.12-9.64,5.85-88.41,51.39-206.09,52.06-104.43.76-159.36-35.74-175.48-48.57-6.64,5.73-19.5,19.27-27.21,43.28-33.11,103.08,7.31,201.47,7.72,202.46,1.63,3.88-.19,8.36-4.08,9.99-.96.4-1.97.6-2.95.6Z"/>
  <path class="st0" d="M352.97,352.47c-3.15,0-5.71-2.55-5.72-5.7-.01-3.16,2.54-5.73,5.7-5.74,2.99-.01,6.01-.05,9.06-.11.04,0,.09,0,.13,0,3.1,0,5.65,2.48,5.72,5.6.07,3.16-2.44,5.77-5.6,5.84-3.11.07-6.2.1-9.25.11h-.02ZM326.27,351.89c-.09,0-.18,0-.27,0-3.12-.15-6.2-.32-9.25-.52-3.16-.2-5.55-2.93-5.34-6.08.2-3.15,2.93-5.54,6.08-5.34,2.98.19,5.99.36,9.05.51,3.16.15,5.6,2.83,5.45,5.99-.14,3.06-2.67,5.45-5.71,5.45ZM388.79,351.15c-2.98,0-5.49-2.31-5.7-5.32-.22-3.15,2.16-5.89,5.31-6.11,2.99-.21,6-.44,9.03-.7,3.1-.26,5.92,2.05,6.2,5.2.28,3.15-2.06,5.92-5.2,6.2-3.1.27-6.18.51-9.23.72-.14,0-.27.01-.41.01ZM290.54,348.96c-.22,0-.45-.01-.67-.04-3.1-.36-6.17-.75-9.19-1.16-3.13-.42-5.33-3.31-4.9-6.44s3.33-5.31,6.44-4.9c2.95.4,5.95.78,8.99,1.13,3.14.37,5.38,3.21,5.02,6.35-.34,2.91-2.82,5.06-5.68,5.06ZM424.46,347.51c-2.82,0-5.28-2.09-5.66-4.96-.42-3.13,1.77-6.01,4.91-6.44,2.97-.4,5.96-.83,8.98-1.28,3.14-.46,6.04,1.68,6.51,4.81.47,3.12-1.68,6.04-4.81,6.51-3.07.46-6.12.9-9.16,1.31-.26.03-.52.05-.77.05ZM255.09,343.52c-.35,0-.72-.03-1.08-.1-3.09-.59-6.12-1.2-9.09-1.82-3.09-.65-5.07-3.69-4.42-6.78.65-3.09,3.68-5.07,6.78-4.42,2.9.61,5.86,1.21,8.87,1.78,3.1.59,5.14,3.58,4.55,6.69-.52,2.74-2.92,4.66-5.61,4.66ZM459.83,341.61c-2.67,0-5.06-1.89-5.61-4.61-.61-3.1,1.4-6.11,4.5-6.73,2.94-.58,5.9-1.2,8.88-1.83,3.11-.67,6.13,1.31,6.8,4.39.66,3.09-1.3,6.13-4.39,6.8-3.04.65-6.06,1.28-9.06,1.87-.38.07-.75.11-1.12.11ZM220.14,335.49c-.5,0-1-.07-1.5-.2-3.06-.83-6.04-1.67-8.93-2.51-3.03-.89-4.77-4.06-3.89-7.1.88-3.03,4.07-4.78,7.1-3.89,2.82.83,5.72,1.64,8.71,2.45,3.05.83,4.85,3.97,4.03,7.02-.69,2.55-3,4.23-5.52,4.23ZM494.78,333.58c-2.54,0-4.86-1.7-5.53-4.28-.8-3.06,1.03-6.18,4.09-6.98,2.91-.76,5.83-1.55,8.76-2.36,3.03-.85,6.2.94,7.04,3.99.85,3.05-.94,6.2-3.99,7.04-2.99.83-5.96,1.63-8.93,2.4-.48.13-.97.19-1.45.19ZM185.91,324.75c-.64,0-1.3-.11-1.94-.34-3.06-1.1-5.96-2.19-8.71-3.26-2.95-1.14-4.41-4.46-3.27-7.4s4.47-4.41,7.4-3.27c2.66,1.03,5.48,2.09,8.46,3.16s4.52,4.35,3.44,7.32c-.84,2.33-3.04,3.78-5.38,3.78ZM152.81,310.9c-.85,0-1.7-.19-2.51-.58-5.48-2.68-8.38-4.36-8.5-4.43-2.73-1.59-3.66-5.08-2.08-7.82,1.58-2.73,5.09-3.66,7.82-2.08.03.01,2.72,1.57,7.79,4.05,2.84,1.39,4.02,4.82,2.63,7.66-.99,2.03-3.03,3.21-5.14,3.21Z"/>
  <path class="st0" d="M247.27,502.53c-2.57,0-4.66-2.09-4.66-4.66v-44.64c0-2.57,2.09-4.66,4.66-4.66s4.66,2.09,4.66,4.66v44.64c0,2.57-2.09,4.66-4.66,4.66Z"/>
  <path class="st0" d="M268.22,473.88c-1.32,0-2.63-.56-3.55-1.64l-17.51-20.56-17.51,20.56c-1.67,1.96-4.62,2.2-6.57.53-1.96-1.67-2.2-4.61-.53-6.57l21.06-24.73c1.77-2.08,5.33-2.08,7.1,0l21.06,24.73c1.67,1.96,1.43,4.9-.53,6.57-.88.75-1.95,1.11-3.02,1.11Z"/>
  <path class="st0" d="M363.14,496.03c-2.57,0-4.66-2.09-4.66-4.66v-44.64c0-2.57,2.09-4.66,4.66-4.66s4.66,2.09,4.66,4.66v44.64c0,2.57-2.09,4.66-4.66,4.66Z"/>
  <path class="st0" d="M341.97,467.37c-1.07,0-2.14-.37-3.02-1.11-1.96-1.67-2.2-4.61-.53-6.57l21.06-24.73c.89-1.04,2.18-1.64,3.55-1.64h0c1.37,0,2.66.6,3.55,1.64l21.06,24.73c1.67,1.96,1.43,4.9-.53,6.57-1.96,1.67-4.9,1.43-6.57-.53l-17.51-20.56-17.51,20.56c-.92,1.08-2.24,1.64-3.55,1.64Z"/>
  <path class="st0" d="M477.13,469.34c-2.57,0-4.66-2.09-4.66-4.66v-44.64c0-2.57,2.09-4.66,4.66-4.66s4.66,2.09,4.66,4.66v44.64c0,2.57-2.09,4.66-4.66,4.66Z"/>
  <path class="st0" d="M498.09,440.68c-1.32,0-2.63-.56-3.55-1.64l-17.51-20.56-17.51,20.56c-1.67,1.96-4.62,2.2-6.57.53-1.96-1.67-2.2-4.61-.53-6.57l21.06-24.73c1.77-2.08,5.33-2.08,7.1,0l21.06,24.73c1.67,1.96,1.43,4.9-.53,6.57-.88.75-1.95,1.11-3.02,1.11Z"/>
</svg>