<?xml version="1.0" encoding="UTF-8"?>
<svg id="Layer_1" xmlns="http://www.w3.org/2000/svg" version="1.1" viewBox="0 0 600 600">
  <!-- Generator: Adobe Illustrator 29.5.1, SVG Export Plug-In . SVG Version: 2.1.0 Build 141)  -->
  <defs>
    <style>
      .st0 {
        fill: #191919;
      }
    </style>
  </defs>
  <g>
    <g>
      <path class="st0" d="M302.32,394.17c-8.56-1.01-21.53-9.3-29.64-8.59-3.47.3-8.78,4.02-11.54,3.96-3.43-.07-7.52-4.53-14.45-3.81-3.46.36-20.56,5.99-24.33,7.55-4.35,1.79-6.53,6.41-4.1,10.68,3.09,5.44,8.95,3.03,13.93,1.59,4.3-1.24,11.13-5.13,15.12-5.35,4.67-.25,9.71,3.21,13.87,3.34,3.81.13,8.12-2.81,11.47-3.27,8.08-1.13,22.42,11.34,30.53,5.25,3.92-2.94,3.08-8.81-.85-11.35Z"/>
      <path class="st0" d="M366.05,292.08c3.52-5.32-.5-12.49-6.72-11.7-3.41.44-7.89,5.65-11.21,7.64-11.37,6.81-24.7,7.01-36.21.23-4.8-2.83-12.49-12-18.53-5.18-5.1,5.76.93,10.98,5.48,14.15,16.1,11.21,37.17,13.92,54.68,4.37,2.93-1.59,10.82-6.96,12.51-9.52Z"/>
      <path class="st0" d="M221.19,281.1c-3.26.62-9.79,7.49-14.33,9.34-10.17,4.13-20.65,3.44-30.37-1.45-5.41-2.72-13.69-12.93-19.97-6.04-3.98,4.36-1,8.77,2.62,11.96,19.11,16.85,49.81,16.47,68.54-.79,6.29-5.79,2.65-14.76-6.49-13.01Z"/>
      <path class="st0" d="M265.95,418.1c-2.62.26-6.27.34-8.87.09-4.79-.46-14.43-5.67-17.13.84-5.72,13.76,21.44,13.91,29.3,12.98,2.26-.27,11.44-2.89,12.76-4.38,2.12-2.38,1.95-7.8-.27-10.02-3.89-3.89-11.11.01-15.79.49Z"/>
      <path class="st0" d="M266.04,365.94c6.94-.69,21.88-7.15,14.99-15.8-5.32-6.67-13.02,2.43-18.21,2.63-6.42.24-12.86-6.33-18.65-4.61-.98.29-3.37,2.68-3.67,3.67-3.58,12.01,17.43,14.92,25.53,14.11Z"/>
    </g>
    <g>
      <circle class="st0" cx="191.94" cy="209.79" r="5.65"/>
      <circle class="st0" cx="210.3" cy="213.87" r="5.65"/>
      <circle class="st0" cx="227.93" cy="219.25" r="5.65"/>
      <circle class="st0" cx="247.1" cy="221.47" r="5.65"/>
      <circle class="st0" cx="265.83" cy="221.47" r="5.65"/>
      <circle class="st0" cx="284.38" cy="218.23" r="5.65"/>
      <circle class="st0" cx="302.19" cy="214.89" r="5.65"/>
      <circle class="st0" cx="320.37" cy="209.79" r="5.65"/>
      <circle class="st0" cx="306.24" cy="368.95" r="5.65"/>
      <circle class="st0" cx="323.24" cy="382.01" r="5.65"/>
      <circle class="st0" cx="331.94" cy="402.11" r="5.65"/>
      <circle class="st0" cx="211.61" cy="368.95" r="5.65"/>
      <circle class="st0" cx="194.62" cy="382.01" r="5.65"/>
      <circle class="st0" cx="185.91" cy="402.11" r="5.65"/>
    </g>
    <path class="st0" d="M223.3,258.74c-1.05,0-2.12-.26-3.11-.81-25.05-13.95-44.57-2.5-45.38-2.01-3.01,1.82-6.95.87-8.79-2.13-1.84-3.01-.92-6.92,2.07-8.77,1.07-.66,26.49-15.99,58.33,1.73,3.09,1.72,4.2,5.62,2.48,8.71-1.17,2.1-3.35,3.29-5.6,3.29Z"/>
    <path class="st0" d="M296.55,258.74c-2.25,0-4.43-1.19-5.6-3.29-1.72-3.09-.61-6.99,2.48-8.71,31.84-17.72,57.26-2.39,58.33-1.73,3.01,1.86,3.93,5.81,2.07,8.82-1.86,2.99-5.78,3.93-8.79,2.09-.85-.51-20.35-11.92-45.38,2.01-.99.55-2.06.81-3.11.81Z"/>
  </g>
  <g>
    <circle class="st0" cx="137.52" cy="283.14" r="5.65"/>
    <circle class="st0" cx="144.33" cy="303.59" r="5.65"/>
    <circle class="st0" cx="160.86" cy="321.95" r="5.65"/>
    <circle class="st0" cx="179.24" cy="330" r="5.65"/>
    <circle class="st0" cx="198.86" cy="330" r="5.65"/>
    <circle class="st0" cx="216.63" cy="321.95" r="5.65"/>
  </g>
  <g>
    <circle class="st0" cx="383.85" cy="283.14" r="5.65"/>
    <circle class="st0" cx="377.03" cy="303.59" r="5.65"/>
    <circle class="st0" cx="360.51" cy="321.95" r="5.65"/>
    <circle class="st0" cx="342.13" cy="330" r="5.65"/>
    <circle class="st0" cx="322.5" cy="330" r="5.65"/>
    <circle class="st0" cx="304.74" cy="321.95" r="5.65"/>
  </g>
  <path class="st0" d="M476.24,568.82c-15.22-18.08-40.01-31.23-61.44-40.57-22.87-9.95-69.66-21.28-76.89-48.03-1.13-4.18-2.3-23.66-.83-26.9.57-1.24,14.69-12.39,17.18-14.69,5.54-5.2,10.81-10.28,15.75-15.45,0,0,22.9-21.62,34.77-52.33.19-.38.3-.75.45-1.13-3.39-.72-6.55-2.3-9.19-4.6-1.81.49-3.73.83-5.73.94-.15.38-.3.72-.45,1.05-.57,2.19-3.2,8.55-7.23,15.82-3.99,7.27-9.42,15.48-15.6,21.25-1.92,1.81-3.39,3.43-4.52,4.9-24.41,25.99-66.83,62.05-92.56,66.87-29.42,5.46-69.66-28.1-90.41-47.13-31.16-28.48-42.65-46.9-55.94-86.95-10.96-32.89-17.52-55.98-10.17-91.05,4.56-21.89,14.5-40.99,28.03-58.51,19.21-24.04,53.12-44.27,63.97-50.41,5.69-3.05,11.41-6.03,17.25-8.78,3.88-1.81,27.24-12.39,29.31-11.94,2.07.45,11.08,5.95,13.98,7.31,68.6,31.87,155.89,68.83,145.83,160.3l-.11.79,20.19-8.66c2.22-2.52,4.67-5.24,5.88-6.97,41.18-59.33,27.69-158.07-13.22-215.41-1.77-2.45-4.9-3.58-7.84-2.94-5.46,1.17-7.8,7.53-4.56,12.05,37.18,52.03,45.21,123.3,21.85,182.9l-5.46,10.06-7.72-28.14c-31.08-83.82-126.28-95.91-188.14-143.76-22.57-17.44-44.6-41.48-48.52-71.05-.64-4.67,1.13-15.75-5.58-17.25-14.28-3.28-9.38,13.52-10.13,21.74-14.43,5.95-30.18,12.51-43.44,21.32-21.74,13-38.39,33.23-49.61,50.18-11.23,16.95-17.03,30.67-17.03,30.67-13.3,37.9-13.19,84.16.98,121.83,6.97,18.5,18.38,37.48,36.17,47.13,3.96,26.18,12.88,53.16,22.6,77.79,10.89,27.54,26.07,44.49,47.17,64.68,5.5,5.27,11.68,10.13,17.48,15.14.87,2.19,1.36,4.48,1.32,6.86-.75,31.87-10.66,41.85-38.09,55-33.53,16.09-76.89,28.07-101.94,57.26-4.9,5.69-19.29,26.11-6.63,29.57,9.04,2.45,9.53-6.86,12.32-12.43,9.15-18.23,42.38-35.52,60.54-43.96,28.82-13.37,75.68-23.85,84.95-58.73,1.77-6.63,1.54-13.9,3.13-20.57,16.09,10.21,33.87,23.85,53.27,26.75,22.57,3.35,42.38-6.97,60.84-18.72,1.47-.94,8.1-7.05,9.53-5.58-.57,20.76,8.29,37.14,25.39,48.52,35.22,23.39,99.57,30.7,123.04,70.41,3.65,6.18,4.45,17.86,14.65,13.52,10.13-4.33-4.63-25.01-8.82-29.99ZM94.66,273.69c-1.47-.6-7.61-8.06-8.93-9.87-22.38-30.1-26.22-82.84-18.2-118.44.38-1.62,1.77-5.35,2.71-8.21,7.61-19.17,18.23-35.22,28.56-47.77,10.25-12.51,20.19-21.51,26.37-26.63,3.69-2.56,7.2-5.8,9.27-7.2,4.6-3.09,36.16-20.16,38.95-17.74,10.17,30.97,35.34,54.7,62.05,72.22l-34.24,16.91c-44.27,20.16-71.62,55.68-73.91,58.73v.04c-.11.11-.15.19-.15.19-2.07,2.75-5.05,7.35-7.72,11.6-2.68,4.26-5.01,8.18-5.73,9.49-11.53,21.21-16.24,40.65-17.82,64.65-.04.91.45,2.71-1.21,2.03Z"/>
  <path class="st0" d="M331.58,368.99l45.58-19.78c.96-.17,1.1.88,1.77,1.46,7.04,6.07,13.48,4.63,21.09.8,1.78,4.96,6.24,8.46,11.68,7.11l93-40.1c.93-.04,1.83,1.77,2.64,2.51,7.9,7.32,20.34,1.93,20.73-8.7.18-4.81-4.34-11.15-5.77-15.78l.42-.82,19.59-8.47c1.39-.12,2.12,3.14,2.94,4.34,7.43,10.91,24.5,4.27,22.22-9.08-.9-5.25-9.54-24.15-12.36-29.6-.63-1.21-1.51-2.92-2.38-3.93-8.17-9.49-23.55-2.13-21.34,10.26.23,1.29,2.07,4.72,1.48,5.54l-20.04,8.66-.79-.62c-1.81-3.55-3-8.01-4.93-11.43-6.04-10.69-21.67-7.48-22.99,4.72-.14,1.29.58,4.12-.02,4.71l-81.62,35.05c-3.57,2.55-10.74,3.57-13.4,7.02-2.75,3.56-2.64,7.63-.75,11.55-8.5,2.73-14.87,8.5-13.8,18.15l-46.77,20.31c-3.38,2.99-.49,7.64,3.81,6.1ZM382.71,336.13c1.58-2.7,5.67-3.99,8.53-4.87l5.71,13.66c-2.86,1.17-6.08,3.38-9.3,2.64-5.08-1.16-7.58-6.92-4.94-11.43ZM396.49,324.7c-.97-2.33-4.2-6.07-.94-8.05l6.35-2.54c2.35,2.66,3.18,12.06,8.31,10.23,5.68-2.02-.93-9.65-1.26-13.15l11.41-5.06.73.49,6.87,15.82c3.03,2.9,7.13.23,6-3.89-1.17-4.29-4.71-9.83-6.33-14.21-.11-.31-.27-.87-.14-1.15,2.92-1.68,6.2-2.88,9.35-4.15,2.19,2.58,3.57,12.73,8.75,10.02,4.68-2.44-1.11-9.55-1.93-12.93l11.35-5.1.82.09,6.98,16.03c2.6,2.72,6.45,1.11,6.26-2.71-.51-2.14-7.02-15.25-6.66-16.16.5-1.23,7.35-3.12,8.72-4.26l.83-.05c1.86,2.66,3.4,12.49,8.35,10.11,4.98-2.4-.8-9.44-1.59-12.86.06-.31,1.38-1,1.77-1.2.68-.36,5.56-2.48,5.96-2.52.59-.06,1.06.02,1.32.6l14.43,33.42-1.36,1.12-90.6,38.97c-1.61.43-2.26-.4-3.06-1.65-3.69-8.37-7.21-16.79-10.7-25.24ZM492,264.39c1.96-3.31,7.28-3.12,8.83.49,6.62,15.73,13.85,31.28,20.1,47.12-.1,5.17-6.57,7.25-9.5,2.8l-20.03-46.37c-.35-1.47-.17-2.74.6-4.05ZM515.65,279.95l20.39-8.83c.5.15,3.72,8.13,4.06,9.36l-20.43,8.79c-.45,0-.58-.3-.79-.62-.41-.59-3.17-7-3.33-7.7-.09-.4-.2-.61.09-1ZM541.57,265.4c-1.17-2.84-4.23-7.53-2.87-10.57,1.61-3.59,7.04-4.15,9.07-.58,3.32,9.24,9.45,19.09,12.31,28.32,2.09,6.76-5.38,9.92-8.98,4.93-3.27-7.32-6.46-14.69-9.53-22.09Z"/>
</svg>