<?xml version="1.0" encoding="UTF-8"?>
<svg id="Layer_1" xmlns="http://www.w3.org/2000/svg" version="1.1" viewBox="0 0 600 600">
  <!-- Generator: Adobe Illustrator 29.5.1, SVG Export Plug-In . SVG Version: 2.1.0 Build 141)  -->
  <defs>
    <style>
      .st0 {
        fill: #191919;
      }
    </style>
  </defs>
  <path class="st0" d="M302.07,427.74c-2.57,0-4.98-1.28-6.41-3.41-20.4-30.22-57.38-46.56-57.75-46.72-3.92-1.7-5.72-6.26-4.01-10.18,1.71-3.92,6.27-5.71,10.18-4.02,1.53.67,34.73,15.28,58,43.67,23.27-28.39,56.47-43,58-43.67,3.92-1.69,8.47.1,10.18,4.02,1.7,3.92-.1,8.48-4.01,10.18-.37.16-37.35,16.51-57.75,46.72-1.44,2.13-3.84,3.41-6.41,3.41Z"/>
  <path class="st0" d="M302.07,595.33c-4.28,0-7.74-3.47-7.74-7.74v-167.59c0-4.28,3.47-7.74,7.74-7.74s7.74,3.47,7.74,7.74v167.59c0,4.28-3.47,7.74-7.74,7.74Z"/>
  <path class="st0" d="M321.2,274.53c-4.28,0-7.74-3.47-7.74-7.74,0-5.99-5.11-10.87-11.4-10.87s-11.4,4.88-11.4,10.87c0,4.28-3.47,7.74-7.74,7.74s-7.74-3.47-7.74-7.74c0-14.53,12.06-26.35,26.88-26.35s26.88,11.82,26.88,26.35c0,4.28-3.47,7.74-7.74,7.74Z"/>
  <g>
    <path class="st0" d="M111.17,600c-3.29,0-6.42-1.94-7.77-5.17-75.73-180.76-41.21-253.19-4.65-329.87,16.64-34.92,33.85-71.02,42.06-119.6,14.14-83.66-10.44-132.58-10.69-133.06-2.13-4.12-.52-9.2,3.59-11.34,4.11-2.14,9.19-.56,11.34,3.56,1.13,2.16,27.52,53.97,12.36,143.66-8.61,50.89-26.33,88.08-43.47,124.03-36.4,76.36-67.83,142.31,4.99,316.11,1.8,4.29-.22,9.22-4.51,11.02-1.06.45-2.17.66-3.25.66Z"/>
    <path class="st0" d="M488.83,600c-1.08,0-2.19-.21-3.25-.66-4.29-1.8-6.31-6.73-4.51-11.02,72.82-173.8,41.38-239.75,4.99-316.11-17.14-35.96-34.86-73.14-43.47-124.03-15.16-89.69,11.23-141.5,12.36-143.66,2.16-4.12,7.25-5.71,11.37-3.56,4.11,2.15,5.71,7.23,3.56,11.35-.35.69-24.8,49.58-10.69,133.06,8.21,48.58,25.42,84.68,42.06,119.6,36.55,76.68,71.07,149.11-4.65,329.87-1.35,3.23-4.48,5.17-7.77,5.17Z"/>
  </g>
  <path class="st0" d="M292.84,317.53c-29.32,0-55.03-4.05-76.35-9.5-65.84-16.82-104.34-49.49-105.94-50.87-3.43-2.95-3.82-8.13-.87-11.56,2.94-3.42,8.12-3.82,11.55-.87h0c.37.32,37.73,31.87,100.09,47.62,57.4,14.5,148.51,18.18,256.66-46.58,3.89-2.32,8.92-1.06,11.24,2.82,2.32,3.88,1.06,8.92-2.82,11.24-73.44,43.98-139.6,57.7-193.56,57.7Z"/>
  <g>
    <path class="st0" d="M141.91,598.46c-2.85,0-5.51-1.78-6.5-4.62-1.02-2.92-2-5.81-2.94-8.7-1.19-3.61.77-7.5,4.38-8.69,3.62-1.19,7.5.78,8.69,4.38.93,2.81,1.88,5.64,2.87,8.48,1.25,3.59-.65,7.51-4.24,8.76-.75.26-1.51.39-2.26.39ZM131.18,564.21c-3.01,0-5.78-1.99-6.62-5.03-1.48-5.31-2.87-10.57-4.15-15.77-.91-3.69,1.34-7.42,5.03-8.33,3.7-.92,7.42,1.34,8.33,5.03,1.25,5.07,2.6,10.19,4.04,15.37,1.02,3.66-1.12,7.46-4.78,8.48-.62.17-1.24.25-1.85.25ZM121.31,522.44c-3.23,0-6.11-2.28-6.75-5.57-1.02-5.29-1.98-10.7-2.84-16.08-.6-3.75,1.95-7.28,5.7-7.88,3.78-.6,7.28,1.96,7.88,5.71.84,5.23,1.77,10.49,2.76,15.63.72,3.73-1.72,7.34-5.45,8.06-.44.09-.88.13-1.32.13ZM115.03,479.98c-3.49,0-6.48-2.64-6.84-6.18-.55-5.38-1.01-10.86-1.37-16.29-.25-3.79,2.62-7.07,6.41-7.32,3.86-.24,7.07,2.62,7.32,6.41.35,5.27.8,10.58,1.33,15.8.39,3.78-2.37,7.16-6.15,7.55-.24.02-.47.04-.71.04ZM112.74,437.12c-3.78,0-6.85-3.05-6.88-6.83v-1.73c0-4.97.08-9.85.25-14.65.13-3.8,3.15-6.77,7.11-6.64,3.8.13,6.77,3.32,6.64,7.11-.16,4.65-.24,9.38-.25,14.19v1.63c.03,3.8-3.03,6.9-6.83,6.93-.02,0-.03,0-.05,0ZM114.81,394.26c-.23,0-.47-.01-.71-.04-3.78-.39-6.53-3.76-6.15-7.54.56-5.45,1.22-10.92,1.99-16.26.54-3.76,4.01-6.37,7.79-5.84,3.76.54,6.37,4.02,5.84,7.79-.74,5.15-1.38,10.43-1.92,15.7-.36,3.54-3.35,6.18-6.84,6.18ZM121.5,351.87c-.48,0-.97-.05-1.46-.16-3.72-.8-6.07-4.47-5.27-8.18,1.16-5.35,2.44-10.72,3.82-15.95.96-3.67,4.73-5.86,8.4-4.9,3.67.97,5.87,4.73,4.9,8.4-1.32,5.04-2.56,10.21-3.68,15.36-.7,3.22-3.55,5.43-6.72,5.43ZM133.01,310.54c-.74,0-1.5-.12-2.25-.38-3.59-1.24-5.5-5.16-4.26-8.75,1.8-5.22,3.72-10.4,5.7-15.39,1.4-3.53,5.4-5.26,8.93-3.86,3.53,1.4,5.26,5.4,3.86,8.93-1.91,4.8-3.75,9.79-5.48,14.81-.99,2.85-3.65,4.64-6.51,4.64ZM149.49,270.91c-1.02,0-2.06-.23-3.04-.71-3.41-1.68-4.8-5.81-3.12-9.22,2.44-4.94,5.02-9.84,7.67-14.57,1.86-3.32,6.05-4.49,9.37-2.64,3.32,1.86,4.49,6.05,2.64,9.37-2.54,4.52-5,9.21-7.34,13.93-1.2,2.43-3.64,3.84-6.17,3.84ZM171.23,233.89c-1.36,0-2.74-.4-3.94-1.25-3.11-2.18-3.87-6.47-1.68-9.58,6.11-8.71,10.19-13.26,10.36-13.45,2.54-2.82,6.88-3.05,9.72-.5,2.82,2.55,3.04,6.9.5,9.72-.16.18-3.84,4.33-9.31,12.13-1.34,1.91-3.47,2.93-5.64,2.93Z"/>
    <path class="st0" d="M462.22,598.46c-.75,0-1.51-.12-2.26-.39-3.59-1.25-5.49-5.17-4.24-8.76.99-2.84,1.94-5.67,2.87-8.48,1.18-3.61,5.06-5.57,8.69-4.38,3.61,1.19,5.57,5.08,4.38,8.69-.95,2.88-1.93,5.78-2.94,8.7-.99,2.84-3.65,4.62-6.5,4.62ZM472.95,564.21c-.61,0-1.23-.08-1.85-.25-3.66-1.02-5.8-4.82-4.78-8.48,1.44-5.18,2.79-10.3,4.04-15.37.91-3.69,4.61-5.95,8.33-5.03,3.69.91,5.94,4.64,5.03,8.33-1.29,5.2-2.67,10.46-4.15,15.77-.85,3.04-3.61,5.03-6.62,5.03ZM482.82,522.44c-.43,0-.87-.04-1.32-.13-3.73-.72-6.17-4.33-5.45-8.06.99-5.14,1.92-10.4,2.76-15.63.6-3.75,4.08-6.31,7.88-5.71,3.75.6,6.3,4.13,5.7,7.88-.86,5.38-1.81,10.78-2.84,16.08-.64,3.29-3.52,5.57-6.75,5.57ZM489.11,479.98c-.23,0-.47-.01-.71-.04-3.78-.39-6.53-3.77-6.15-7.55.53-5.22.98-10.53,1.33-15.8.25-3.79,3.53-6.66,7.32-6.41,3.79.25,6.66,3.53,6.41,7.32-.36,5.43-.82,10.91-1.37,16.29-.36,3.54-3.35,6.18-6.84,6.18ZM491.39,437.12s-.03,0-.05,0c-3.8-.02-6.86-3.13-6.83-6.93v-1.63c0-4.8-.08-9.53-.24-14.18-.13-3.8,2.84-6.98,6.64-7.11,3.92-.17,6.98,2.84,7.11,6.64.17,4.8.25,9.69.25,14.65v1.73c-.03,3.78-3.1,6.83-6.88,6.83ZM489.33,394.26c-3.49,0-6.48-2.64-6.84-6.18-.54-5.27-1.18-10.55-1.92-15.7-.54-3.76,2.08-7.25,5.84-7.79,3.76-.53,7.25,2.08,7.79,5.84.76,5.33,1.43,10.8,1.99,16.26.39,3.78-2.37,7.16-6.15,7.54-.24.02-.47.04-.71.04ZM482.63,351.87c-3.17,0-6.02-2.2-6.72-5.43-1.12-5.15-2.35-10.32-3.68-15.36-.97-3.68,1.23-7.44,4.9-8.4,3.69-.96,7.44,1.23,8.4,4.9,1.38,5.24,2.66,10.6,3.82,15.95.81,3.71-1.55,7.38-5.27,8.18-.49.11-.98.16-1.46.16ZM471.12,310.54c-2.85,0-5.52-1.79-6.51-4.64-1.73-5.02-3.58-10-5.48-14.81-1.4-3.53.33-7.53,3.86-8.93,3.54-1.41,7.53.33,8.93,3.86,1.98,5,3.9,10.18,5.7,15.39,1.24,3.59-.67,7.51-4.26,8.75-.74.26-1.5.38-2.25.38ZM454.64,270.91c-2.54,0-4.97-1.41-6.17-3.84-2.33-4.72-4.8-9.41-7.34-13.93-1.86-3.31-.68-7.51,2.64-9.37,3.31-1.86,7.51-.67,9.37,2.64,2.65,4.73,5.23,9.63,7.67,14.57,1.68,3.41.28,7.53-3.12,9.22-.98.48-2.02.71-3.04.71ZM432.91,233.89c-2.17,0-4.3-1.02-5.64-2.93-5.57-7.94-9.28-12.1-9.32-12.14-2.54-2.83-2.31-7.17.51-9.71,2.82-2.54,7.16-2.32,9.71.5.17.19,4.26,4.74,10.36,13.45,2.18,3.11,1.43,7.4-1.68,9.58-1.2.84-2.58,1.25-3.94,1.25Z"/>
  </g>
  <path class="st0" d="M312.54,201.07c-3.67,0-6.72-2.9-6.87-6.6-.15-3.8,2.8-7,6.59-7.16,5.22-.22,10.47-.6,15.62-1.14,3.8-.39,7.16,2.35,7.56,6.12.4,3.78-2.34,7.16-6.12,7.56-5.44.57-10.98.98-16.49,1.2-.1,0-.19,0-.29,0ZM285.73,200.78c-.14,0-.29,0-.43-.01-5.45-.34-10.98-.85-16.45-1.51-3.77-.46-6.46-3.89-6-7.66.46-3.77,3.87-6.44,7.67-6,5.19.64,10.44,1.12,15.62,1.44,3.8.23,6.68,3.5,6.44,7.29-.23,3.65-3.25,6.46-6.86,6.46ZM355.08,195.67c-3.17,0-6.02-2.2-6.72-5.43-.81-3.71,1.56-7.38,5.27-8.18,5.08-1.1,10.19-2.38,15.17-3.8,3.64-1.05,7.46,1.07,8.5,4.72,1.04,3.65-1.07,7.46-4.72,8.5-5.27,1.51-10.67,2.86-16.05,4.02-.49.11-.98.16-1.46.16ZM243.25,194.76c-.5,0-.99-.05-1.5-.16-5.34-1.18-10.73-2.54-16-4.04-3.66-1.04-5.78-4.84-4.74-8.5,1.04-3.65,4.84-5.79,8.5-4.74,5.02,1.42,10.14,2.72,15.23,3.84,3.71.82,6.05,4.5,5.23,8.21-.71,3.21-3.55,5.39-6.71,5.39ZM396.06,183.01c-2.72,0-5.29-1.62-6.38-4.29-1.43-3.52.26-7.53,3.78-8.96,4.79-1.95,9.61-4.09,14.32-6.36,3.41-1.64,7.54-.21,9.19,3.21,1.65,3.42.21,7.54-3.21,9.19-4.97,2.39-10.05,4.65-15.1,6.71-.85.35-1.73.51-2.59.51ZM202.2,182.22c-.85,0-1.71-.16-2.54-.49-9.71-3.87-15.19-6.8-15.42-6.92-3.35-1.8-4.6-5.96-2.81-9.31,1.79-3.34,5.96-4.61,9.31-2.82.05.03,5.11,2.71,14.02,6.27,3.53,1.41,5.25,5.41,3.84,8.94-1.07,2.69-3.66,4.33-6.4,4.33Z"/>
  <g>
    <g>
      <path class="st0" d="M194.96,423.19h-51.78c-2.99,0-5.41-2.42-5.41-5.41s2.42-5.41,5.41-5.41h51.78c2.99,0,5.41,2.42,5.41,5.41s-2.42,5.41-5.41,5.41Z"/>
      <path class="st0" d="M176.43,447.48c-1.53,0-3.05-.64-4.12-1.9-1.94-2.27-1.66-5.69.61-7.62l23.85-20.31-23.85-20.31c-2.27-1.94-2.54-5.35-.61-7.62,1.94-2.27,5.34-2.55,7.62-.61l28.68,24.42c1.21,1.03,1.9,2.53,1.9,4.12s-.7,3.09-1.9,4.12l-28.68,24.42c-1.02.87-2.26,1.29-3.5,1.29Z"/>
      <path class="st0" d="M201.15,499.3h-51.77c-2.99,0-5.41-2.42-5.41-5.41s2.42-5.41,5.41-5.41h51.77c2.99,0,5.41,2.42,5.41,5.41s-2.42,5.41-5.41,5.41Z"/>
      <path class="st0" d="M182.61,523.59c-1.53,0-3.05-.64-4.12-1.9-1.94-2.27-1.66-5.69.61-7.62l23.84-20.31-23.84-20.31c-2.28-1.94-2.55-5.35-.61-7.62s5.35-2.55,7.62-.61l28.68,24.42c1.21,1.03,1.91,2.53,1.91,4.12s-.7,3.09-1.91,4.12l-28.68,24.42c-1.02.87-2.26,1.29-3.5,1.29Z"/>
      <path class="st0" d="M217.76,575.4h-51.77c-2.99,0-5.41-2.42-5.41-5.41s2.42-5.41,5.41-5.41h51.77c2.99,0,5.41,2.42,5.41,5.41s-2.42,5.41-5.41,5.41Z"/>
      <path class="st0" d="M199.23,599.7c-1.53,0-3.05-.64-4.12-1.9-1.94-2.27-1.66-5.69.61-7.62l23.85-20.31-23.85-20.31c-2.27-1.94-2.54-5.35-.61-7.62,1.94-2.28,5.34-2.55,7.62-.61l28.68,24.42c1.21,1.03,1.9,2.53,1.9,4.12s-.7,3.09-1.9,4.12l-28.68,24.42c-1.02.87-2.26,1.29-3.5,1.29Z"/>
    </g>
    <g>
      <path class="st0" d="M460.95,423.19h-51.78c-2.99,0-5.41-2.42-5.41-5.41s2.42-5.41,5.41-5.41h51.78c2.99,0,5.41,2.42,5.41,5.41s-2.42,5.41-5.41,5.41Z"/>
      <path class="st0" d="M427.7,447.48c-1.24,0-2.48-.42-3.5-1.29l-28.68-24.42c-1.21-1.03-1.9-2.53-1.9-4.12s.7-3.09,1.9-4.12l28.68-24.42c2.28-1.94,5.69-1.66,7.62.61s1.66,5.69-.61,7.62l-23.85,20.31,23.85,20.31c2.27,1.94,2.54,5.35.61,7.62-1.07,1.26-2.59,1.9-4.12,1.9Z"/>
      <path class="st0" d="M454.76,499.3h-51.77c-2.99,0-5.41-2.42-5.41-5.41s2.42-5.41,5.41-5.41h51.77c2.99,0,5.41,2.42,5.41,5.41s-2.42,5.41-5.41,5.41Z"/>
      <path class="st0" d="M421.52,523.59c-1.24,0-2.48-.42-3.5-1.29l-28.68-24.42c-1.21-1.03-1.91-2.53-1.91-4.12s.7-3.09,1.91-4.12l28.68-24.42c2.28-1.94,5.69-1.66,7.62.61,1.94,2.27,1.66,5.69-.61,7.62l-23.84,20.31,23.84,20.31c2.28,1.94,2.55,5.35.61,7.62-1.07,1.26-2.59,1.9-4.12,1.9Z"/>
      <path class="st0" d="M438.14,575.4h-51.77c-2.99,0-5.41-2.42-5.41-5.41s2.42-5.41,5.41-5.41h51.77c2.99,0,5.41,2.42,5.41,5.41s-2.42,5.41-5.41,5.41Z"/>
      <path class="st0" d="M404.9,599.7c-1.24,0-2.48-.42-3.5-1.29l-28.68-24.42c-1.21-1.03-1.9-2.53-1.9-4.12s.7-3.09,1.9-4.12l28.68-24.42c2.28-1.94,5.69-1.66,7.62.61,1.94,2.27,1.66,5.69-.61,7.62l-23.85,20.31,23.85,20.31c2.27,1.94,2.54,5.35.61,7.62-1.07,1.26-2.59,1.9-4.12,1.9Z"/>
    </g>
  </g>
  <g>
    <g>
      <path class="st0" d="M251.26,146.77c-2.99,0-5.41-2.42-5.41-5.41v-51.78c0-2.99,2.42-5.41,5.41-5.41s5.41,2.42,5.41,5.41v51.78c0,2.99-2.42,5.41-5.41,5.41Z"/>
      <path class="st0" d="M275.82,113.54c-1.53,0-3.05-.64-4.12-1.9l-20.31-23.85-20.31,23.85c-1.94,2.27-5.35,2.55-7.62.61-2.28-1.94-2.55-5.35-.61-7.62l24.42-28.68c2.06-2.41,6.18-2.41,8.23,0l24.43,28.68c1.94,2.27,1.66,5.69-.61,7.62-1.02.87-2.26,1.29-3.5,1.29Z"/>
    </g>
    <g>
      <path class="st0" d="M348.48,146.77c-2.99,0-5.41-2.42-5.41-5.41v-51.78c0-2.99,2.42-5.41,5.41-5.41s5.41,2.42,5.41,5.41v51.78c0,2.99-2.42,5.41-5.41,5.41Z"/>
      <path class="st0" d="M373.04,113.54c-1.53,0-3.05-.64-4.12-1.9l-20.31-23.85-20.31,23.85c-1.94,2.27-5.35,2.55-7.62.61-2.28-1.94-2.55-5.35-.61-7.62l24.42-28.68c2.06-2.41,6.18-2.41,8.23,0l24.43,28.68c1.94,2.27,1.66,5.69-.61,7.62-1.02.87-2.26,1.29-3.5,1.29Z"/>
    </g>
  </g>
</svg>