<?xml version="1.0" encoding="UTF-8"?>
<svg id="Layer_1" xmlns="http://www.w3.org/2000/svg" version="1.1" viewBox="0 0 600 600">
  <!-- Generator: Adobe Illustrator 29.5.1, SVG Export Plug-In . SVG Version: 2.1.0 Build 141)  -->
  <defs>
    <style>
      .st0 {
        fill: #191919;
      }
    </style>
  </defs>
  <g>
    <ellipse class="st0" cx="310.86" cy="539.89" rx="7.63" ry="11.44"/>
    <path class="st0" d="M486.21,600c-3.32,0-6.33-2.27-7.13-5.65-4.96-20.95-12.69-38.92-20.86-57.95-11.08-25.78-22.53-52.43-26.42-86.74-9.03-80.04,38.22-155.56,40.23-158.74,2.17-3.42,6.71-4.43,10.12-2.26,3.42,2.17,4.44,6.7,2.27,10.12-.46.74-46.48,74.43-38.04,149.23,3.64,32.15,14.17,56.65,25.32,82.59,8.06,18.77,16.4,38.17,21.66,60.36.93,3.94-1.51,7.89-5.45,8.83-.57.13-1.14.2-1.7.2Z"/>
    <path class="st0" d="M113.79,600c-.56,0-1.13-.06-1.7-.2-3.94-.93-6.38-4.89-5.45-8.83,5.26-22.19,13.6-41.6,21.66-60.36,11.15-25.94,21.68-50.44,25.32-82.6,8.44-74.8-37.58-148.49-38.04-149.23-2.17-3.42-1.15-7.95,2.27-10.12,3.41-2.16,7.95-1.16,10.12,2.26,2.02,3.17,49.26,78.7,40.23,158.73-3.89,34.31-15.34,60.96-26.42,86.74-8.18,19.03-15.9,37-20.86,57.95-.8,3.37-3.81,5.65-7.13,5.65Z"/>
  </g>
  <path class="st0" d="M158.41,305.49c-16.3,0-32.81-3.45-48.78-10.37-26.08-11.3-45.14-32.32-52.29-57.69-5.46-19.37-6.46-50.29,19.74-87.57,28.72-40.85,46.32-92.84,50.35-111.61.85-3.96,4.77-6.49,8.71-5.63,3.96.85,6.49,4.75,5.63,8.71-5.01,23.38-23.75,75.81-52.69,116.98-18.12,25.77-24.21,51.76-17.62,75.15,5.95,21.1,21.98,38.67,44,48.21,28.56,12.37,59.01,12.19,85.75-.53,30.9-14.7,54.78-44.97,65.49-83.05,1.09-3.9,5.14-6.17,9.05-5.07,3.9,1.1,6.17,5.15,5.07,9.05-11.86,42.16-38.59,75.82-73.32,92.33-15.57,7.4-32.23,11.11-49.1,11.11Z"/>
  <path class="st0" d="M169.22,236.97c-3.92-.15-6.98-3.43-6.83-7.36h0c.11-3.89,3.39-6.98,7.32-6.83h0c3.92.11,6.98,3.4,6.83,7.32h0c-.11,3.85-3.25,6.87-7.06,6.87h-.27ZM187.19,229.08c-1.02-3.77,1.21-7.66,5.02-8.68h0c3.77-1.02,7.66,1.25,8.68,5.02h0c1.02,3.77-1.25,7.66-5.02,8.68h0c-.6.19-1.21.27-1.85.27h0c-3.13,0-6-2.11-6.83-5.28ZM143.19,233.19c-3.81-.94-6.08-4.83-5.1-8.61h0c.98-3.81,4.83-6.08,8.64-5.1h0c3.77.94,6.08,4.83,5.1,8.61h0c-.83,3.21-3.7,5.36-6.87,5.36h0c-.57-.04-1.17-.08-1.77-.26ZM210.59,220.89c-2.3-3.21-1.58-7.62,1.58-9.92h0c3.17-2.26,7.63-1.55,9.89,1.62h0c2.3,3.17,1.58,7.62-1.58,9.89h0c-1.25.91-2.72,1.36-4.15,1.36h0c-2.19,0-4.38-1.02-5.74-2.94ZM118.36,222.62c-3.28-2.15-4.19-6.53-2.07-9.81h0c2.15-3.28,6.56-4.23,9.81-2.07h0c3.32,2.15,4.23,6.53,2.07,9.81h0c-1.36,2.07-3.62,3.21-5.93,3.21h0c-1.36,0-2.68-.34-3.88-1.13ZM229.53,204.89c-3.21-2.26-3.96-6.72-1.66-9.89h0c2.27-3.21,6.68-3.96,9.89-1.66h0c3.17,2.26,3.92,6.68,1.66,9.89h0c-1.4,1.92-3.59,2.98-5.81,2.98h0c-1.4,0-2.83-.41-4.08-1.32ZM99,202.78c-2.04-3.32-.98-7.7,2.34-9.74h0c3.36-2.04,7.74-.98,9.78,2.38h0c2.04,3.32.98,7.7-2.38,9.74h0c-1.17.72-2.42,1.06-3.7,1.06h0c-2.38,0-4.72-1.21-6.04-3.43ZM242.7,183.83c-3.66-1.43-5.44-5.51-4.04-9.17h0c1.43-3.66,5.55-5.47,9.17-4.04h0c3.66,1.4,5.47,5.51,4.04,9.17h0c-1.09,2.79-3.74,4.53-6.6,4.53h0c-.83,0-1.74-.15-2.57-.49ZM89.75,177.04c-.6-3.89,2-7.55,5.89-8.15h0c3.85-.64,7.51,1.96,8.12,5.85h0c.64,3.85-1.96,7.51-5.85,8.15h0c-.38.04-.76.08-1.14.08h0c-3.43,0-6.45-2.45-7.02-5.93ZM250.89,160.24c-3.89-.45-6.64-3.96-6.19-7.85h0c.45-3.92,4-6.68,7.89-6.23h0c3.89.45,6.64,4,6.19,7.89h0c-.42,3.62-3.47,6.27-7.02,6.27h0c-.3,0-.56-.04-.87-.08ZM95.45,158.21c-3.89-.34-6.79-3.77-6.45-7.7h0c.34-3.89,3.77-6.79,7.66-6.45h0c3.92.34,6.79,3.77,6.45,7.66h0c-.3,3.7-3.4,6.49-7.06,6.49h-.6ZM98.5,133.56c-3.77-.94-6.11-4.79-5.17-8.6h0c.94-3.77,4.79-6.11,8.6-5.17h0c3.81.94,6.11,4.79,5.17,8.6h0c-.79,3.21-3.7,5.4-6.87,5.4h0c-.57,0-1.14-.08-1.74-.23ZM105.15,109.64c-3.66-1.36-5.55-5.47-4.15-9.13h0c1.36-3.66,5.44-5.51,9.1-4.15h0c3.7,1.36,5.55,5.44,4.19,9.13h0c-1.09,2.83-3.77,4.6-6.64,4.6h0c-.83,0-1.66-.15-2.49-.45ZM114.5,86.65c-3.62-1.43-5.47-5.55-4-9.21h0c1.4-3.62,5.51-5.43,9.17-4h0c3.62,1.4,5.44,5.51,4.04,9.17h0c-1.09,2.79-3.77,4.53-6.64,4.53h0c-.83,0-1.7-.15-2.57-.49ZM122.84,63.26c-3.81-.91-6.15-4.72-5.24-8.53h0c.91-3.81,4.75-6.19,8.56-5.25h0c3.77.91,6.15,4.72,5.25,8.53h0c-.79,3.28-3.7,5.47-6.91,5.47h0c-.53,0-1.09-.08-1.66-.23ZM127.9,38.95c-3.88-.38-6.71-3.85-6.34-7.74h0c.42-3.92,3.89-6.75,7.78-6.38h0c3.88.42,6.76,3.89,6.34,7.77h0c-.34,3.66-3.43,6.38-7.06,6.38h0c-.22,0-.45,0-.72-.04ZM122.35,7.36c-.15-3.89,2.91-7.17,6.79-7.32h0c3.92-.15,7.21,2.91,7.36,6.79h0c.15,3.92-2.9,7.21-6.79,7.36h-.3c-3.77,0-6.91-2.98-7.06-6.83Z"/>
  <g>
    <path class="st0" d="M441.59,305.49c-16.88,0-33.53-3.71-49.1-11.11-34.73-16.51-61.45-50.17-73.32-92.33-1.1-3.9,1.18-7.95,5.07-9.05,3.9-1.1,7.95,1.18,9.05,5.07,10.72,38.09,34.59,68.36,65.49,83.05,26.73,12.71,57.19,12.9,85.75.53,22.01-9.54,38.05-27.11,44-48.21,6.59-23.39.5-49.38-17.62-75.15-28.95-41.17-47.68-93.6-52.69-116.98-.85-3.96,1.67-7.86,5.63-8.71,3.95-.86,7.86,1.67,8.71,5.63,4.03,18.78,21.63,70.76,50.35,111.61,26.21,37.28,25.2,68.19,19.74,87.57-7.15,25.37-26.21,46.4-52.29,57.69-15.97,6.92-32.48,10.37-48.78,10.37Z"/>
    <path class="st0" d="M423.43,230.1c-.15-3.89,2.9-7.21,6.83-7.32h0c3.92-.15,7.21,2.91,7.32,6.83h0c.15,3.92-2.91,7.21-6.83,7.36h-.22c-3.81,0-6.98-3.02-7.09-6.87ZM404.11,234.1c-3.77-1.02-6.04-4.91-5.02-8.68h0c1.02-3.77,4.91-6.04,8.68-5.02h0c3.81,1.02,6.04,4.91,5.02,8.68h0c-.83,3.17-3.7,5.28-6.83,5.28h0c-.6,0-1.21-.08-1.85-.27ZM448.15,228.1c-.98-3.77,1.32-7.66,5.09-8.64h0c3.81-.94,7.66,1.32,8.64,5.13h0c.98,3.77-1.28,7.66-5.09,8.61h0c-.6.19-1.21.23-1.77.23h0c-3.17,0-6.04-2.11-6.87-5.32ZM379.54,222.51c-3.21-2.3-3.92-6.72-1.63-9.92h0c2.27-3.17,6.72-3.89,9.89-1.62h0c3.17,2.3,3.89,6.72,1.63,9.92h0c-1.4,1.93-3.59,2.94-5.78,2.94h0c-1.43,0-2.87-.45-4.11-1.32ZM471.82,220.55c-2.15-3.28-1.21-7.66,2.07-9.81h0c3.28-2.15,7.66-1.21,9.81,2.07h0c2.12,3.28,1.21,7.66-2.07,9.81h0c-1.21.79-2.53,1.13-3.89,1.13h0c-2.3,0-4.57-1.13-5.92-3.21ZM360.6,203.23c-2.3-3.21-1.55-7.62,1.66-9.89h0c3.17-2.26,7.58-1.55,9.89,1.66h0c2.26,3.17,1.51,7.62-1.66,9.89h0c-1.25.9-2.68,1.32-4.11,1.32h0c-2.23,0-4.42-1.06-5.78-2.98ZM491.25,205.15c-3.32-2.04-4.42-6.42-2.34-9.74h-.04c2.04-3.36,6.42-4.42,9.74-2.38h0c3.36,2.04,4.42,6.42,2.38,9.74h0c-1.32,2.19-3.66,3.43-6.08,3.43h0c-1.24-.04-2.53-.34-3.66-1.06ZM348.11,179.79h0c-1.43-3.62.38-7.77,4.04-9.17h0c3.66-1.43,7.74.38,9.17,4.04h0c1.43,3.62-.38,7.77-4.04,9.17h0c-.83.34-1.7.49-2.57.49h0c-2.83,0-5.51-1.7-6.6-4.53ZM502.08,182.89c-3.85-.64-6.49-4.3-5.85-8.15h0c.6-3.89,4.26-6.49,8.11-5.85h0c3.89.6,6.49,4.26,5.89,8.11h0c-.57,3.51-3.59,5.96-7.02,5.96h0c-.38,0-.76-.04-1.13-.08ZM341.2,154.05c-.45-3.89,2.34-7.43,6.23-7.89h0c3.88-.45,7.4,2.3,7.85,6.23h0c.49,3.89-2.3,7.4-6.19,7.85h0c-.3.04-.57.08-.87.08h0c-3.51,0-6.6-2.68-7.02-6.27ZM496.87,151.71c-.34-3.89,2.53-7.32,6.45-7.66h0c3.89-.34,7.32,2.57,7.66,6.45h0c.34,3.92-2.57,7.36-6.45,7.66h0c-.23.04-.42.04-.6.04h0c-3.66,0-6.76-2.79-7.06-6.49ZM492.87,128.39c-.94-3.81,1.36-7.66,5.17-8.6h0c3.81-.94,7.66,1.4,8.61,5.17h0c.94,3.81-1.4,7.66-5.17,8.6h0c-.6.15-1.17.23-1.74.23h0c-3.17,0-6.07-2.19-6.87-5.4ZM485.7,105.45h0c-1.36-3.66.49-7.74,4.19-9.1h0c3.66-1.4,7.74.49,9.09,4.15h0c1.4,3.66-.49,7.74-4.15,9.13h0c-.83.3-1.66.45-2.49.45h0c-2.87,0-5.55-1.77-6.64-4.64ZM476.3,82.61h-.04c-1.4-3.66.42-7.77,4.04-9.21h0c3.66-1.4,7.77.41,9.21,4.04h0c1.4,3.66-.38,7.77-4.04,9.21h0c-.87.3-1.74.49-2.57.49h0c-2.83,0-5.51-1.74-6.6-4.53ZM468.61,58.01h-.04c-.91-3.81,1.47-7.62,5.24-8.53h0c3.81-.94,7.66,1.43,8.57,5.21h0c.91,3.81-1.43,7.66-5.25,8.57h0c-.56.15-1.09.19-1.66.19h0c-3.21,0-6.11-2.19-6.87-5.43ZM464.3,32.61c-.42-3.89,2.45-7.36,6.34-7.77h0c3.89-.38,7.36,2.45,7.78,6.34h0c.38,3.92-2.45,7.4-6.38,7.77h0c-.22.04-.45.04-.72.04h0c-3.58,0-6.64-2.72-7.02-6.38ZM470.3,14.2c-3.92-.15-6.98-3.43-6.83-7.36h0c.15-3.92,3.43-6.98,7.36-6.83h0c3.89.15,6.98,3.43,6.8,7.36h0c-.11,3.85-3.28,6.83-7.1,6.83h-.22Z"/>
  </g>
  <g>
    <circle class="st0" cx="146.08" cy="249.8" r="12.59"/>
    <circle class="st0" cx="453.92" cy="249.8" r="12.59"/>
  </g>
</svg>