<?xml version="1.0" encoding="UTF-8"?>
<svg id="Layer_1" xmlns="http://www.w3.org/2000/svg" version="1.1" viewBox="0 0 600 600">
  <!-- Generator: Adobe Illustrator 29.5.1, SVG Export Plug-In . SVG Version: 2.1.0 Build 141)  -->
  <defs>
    <style>
      .st0 {
        fill: #191919;
      }
    </style>
  </defs>
  <g>
    <ellipse class="st0" cx="311.98" cy="533.66" rx="8.42" ry="12.63"/>
    <g>
      <path class="st0" d="M441.53,286.38c-24.39,0-50.39-7.31-72.12-21.2-31.54-20.15-49.7-50.65-51.14-85.88-.18-4.47,3.29-8.24,7.76-8.42,4.51-.16,8.24,3.29,8.42,7.76,1.22,29.79,16.73,55.67,43.68,72.89,29.8,19.04,68.4,24.14,96.06,12.67,23.47-9.73,38.84-23.74,45.68-41.65,8.41-22,4.32-50.54-12.15-84.83-40-83.27-24.89-130.28-24.23-132.24,1.43-4.23,6.03-6.51,10.26-5.08,4.22,1.43,6.49,5.99,5.09,10.22-.21.67-13.24,43.66,23.47,120.09,18.47,38.45,22.74,71.3,12.68,97.62-8.49,22.23-26.86,39.33-54.61,50.82-11.7,4.85-25.02,7.21-38.86,7.21Z"/>
      <path class="st0" d="M505.51,600c-3.67,0-6.99-2.51-7.87-6.23-5.47-23.12-14-42.96-23.02-63.95-12.23-28.45-24.87-57.87-29.16-95.73-9.96-88.33,42.18-171.68,44.4-175.19,2.4-3.78,7.4-4.89,11.17-2.5,3.78,2.39,4.9,7.4,2.5,11.17-.51.81-51.3,82.14-41.98,164.7,4.02,35.48,15.64,62.52,27.95,91.15,8.9,20.71,18.11,42.13,23.91,66.61,1.03,4.35-1.66,8.71-6.01,9.75-.63.15-1.26.22-1.87.22Z"/>
    </g>
    <path class="st0" d="M158.47,286.38c-13.84,0-27.15-2.36-38.86-7.21-27.74-11.5-46.12-28.6-54.61-50.83-10.06-26.32-5.79-59.16,12.68-97.61C114.5,54.09,101.29,11.07,101.15,10.64c-1.37-4.23.93-8.81,5.15-10.2,4.22-1.4,8.78.85,10.21,5.07.66,1.96,15.77,48.97-24.23,132.24-16.47,34.28-20.56,62.82-12.15,84.82,6.84,17.91,22.21,31.92,45.68,41.65,27.66,11.46,66.26,6.37,96.06-12.67,26.95-17.22,42.47-43.11,43.68-72.89.18-4.47,4.04-7.95,8.42-7.76,4.47.18,7.94,3.95,7.76,8.42-1.44,35.23-19.6,65.73-51.14,85.88-21.72,13.88-47.74,21.2-72.12,21.2Z"/>
    <path class="st0" d="M94.48,600c-.62,0-1.24-.07-1.87-.22-4.35-1.03-7.04-5.39-6.01-9.75,5.8-24.49,15.01-45.9,23.91-66.61,12.3-28.63,23.92-55.67,27.95-91.16,9.31-82.55-41.47-163.88-41.98-164.69-2.39-3.78-1.27-8.78,2.5-11.17,3.77-2.39,8.77-1.28,11.17,2.5,2.22,3.51,54.36,86.86,44.4,175.19-4.29,37.86-16.94,67.28-29.16,95.73-9.02,21-17.55,40.84-23.02,63.95-.88,3.72-4.21,6.23-7.87,6.23Z"/>
  </g>
  <path class="st0" d="M155.8,205.25c-.49,0-.99-.05-1.48-.14-1.39-.27-2.78-.63-4.13-1.07-4.11-1.35-6.35-5.77-5-9.88,1.35-4.11,5.76-6.35,9.88-5.01.71.23,1.45.43,2.2.57,4.25.82,7.03,4.92,6.22,9.17-.72,3.75-4,6.36-7.68,6.36ZM181.78,195.07c-1.61,0-3.24-.5-4.63-1.52-3.49-2.56-4.23-7.47-1.67-10.95.45-.61.86-1.25,1.23-1.92,2.11-3.78,6.88-5.14,10.65-3.03,3.78,2.1,5.14,6.87,3.04,10.65-.68,1.23-1.46,2.44-2.3,3.58-1.54,2.09-3.91,3.19-6.32,3.19ZM134.84,182.89c-3.89,0-7.26-2.9-7.76-6.85-.17-1.39-.26-2.82-.26-4.24,0-4.33,3.51-7.98,7.84-7.98s7.83,3.35,7.83,7.68c0,.09,0,.49,0,.58,0,.5.05,1.26.15,2.01.54,4.29-2.5,8.21-6.79,8.75-.33.04-.66.06-.99.06ZM181.97,164.44c-2.44,0-4.84-1.13-6.37-3.26-.45-.62-.94-1.22-1.46-1.78-2.94-3.17-2.75-8.13.43-11.07,3.18-2.94,8.13-2.75,11.07.43.96,1.03,1.86,2.14,2.68,3.29,2.52,3.51,1.72,8.41-1.79,10.93-1.38.99-2.98,1.47-4.56,1.47ZM149.86,155.91c-2.96,0-5.8-1.69-7.12-4.56-1.81-3.93-.09-8.58,3.84-10.39,1.28-.59,2.62-1.11,3.99-1.53,4.11-1.3,8.52.99,9.82,5.12,1.3,4.13-1,8.52-5.12,9.82-.73.23-1.44.5-2.13.82-1.06.49-2.17.72-3.27.72Z"/>
  <path class="st0" d="M444.25,205.25c-.49,0-.99-.05-1.48-.14-1.39-.27-2.78-.63-4.13-1.07-4.11-1.35-6.35-5.77-5-9.88s5.76-6.35,9.88-5.01c.71.23,1.45.43,2.2.57,4.25.82,7.03,4.92,6.22,9.17-.72,3.75-4,6.36-7.68,6.36ZM470.23,195.07c-1.61,0-3.24-.5-4.63-1.52-3.49-2.56-4.23-7.47-1.67-10.95.45-.61.86-1.25,1.23-1.92,2.11-3.78,6.88-5.14,10.65-3.03,3.78,2.1,5.14,6.87,3.04,10.65-.68,1.23-1.46,2.44-2.3,3.58-1.54,2.09-3.91,3.19-6.32,3.19ZM423.3,182.89c-3.89,0-7.26-2.9-7.76-6.85-.17-1.39-.26-2.82-.26-4.24,0-4.33,3.51-7.99,7.83-7.99s7.83,3.35,7.83,7.68v.3c0,.77.05,1.54.14,2.28.54,4.29-2.5,8.21-6.79,8.75-.33.04-.66.06-.99.06ZM470.43,164.44c-2.44,0-4.84-1.13-6.37-3.26-.45-.62-.94-1.22-1.46-1.78-2.94-3.17-2.75-8.13.43-11.07,3.17-2.94,8.13-2.75,11.07.43.96,1.03,1.86,2.14,2.68,3.29,2.52,3.51,1.72,8.41-1.79,10.93-1.38.99-2.98,1.47-4.56,1.47ZM438.32,155.91c-2.96,0-5.8-1.69-7.12-4.56-1.81-3.93-.09-8.58,3.84-10.39,1.29-.59,2.63-1.11,3.99-1.54,4.1-1.29,8.52,1,9.82,5.13,1.29,4.13-1,8.52-5.13,9.82-.73.23-1.44.5-2.12.82-1.06.49-2.17.72-3.27.72Z"/>
  <circle class="st0" cx="160.75" cy="171.8" r="11.35"/>
  <circle class="st0" cx="445.38" cy="239.61" r="11.35"/>
  <g>
    <path class="st0" d="M445.28,126.29c-2.4,0-4.35-1.95-4.35-4.36v-41.7c0-2.41,1.95-4.36,4.35-4.36s4.35,1.95,4.35,4.36v41.7c0,2.41-1.95,4.36-4.35,4.36Z"/>
    <path class="st0" d="M465.06,99.52c-1.23,0-2.46-.52-3.32-1.53l-16.36-19.21-16.36,19.21c-1.55,1.83-4.3,2.05-6.14.49-1.83-1.56-2.05-4.31-.49-6.14l19.67-23.1c1.65-1.94,4.98-1.94,6.63,0l19.67,23.1c1.56,1.83,1.34,4.58-.49,6.14-.82.7-1.82,1.04-2.82,1.04Z"/>
  </g>
</svg>