<?xml version="1.0" encoding="UTF-8"?>
<svg id="Layer_1" xmlns="http://www.w3.org/2000/svg" version="1.1" viewBox="0 0 600 600">
  <!-- Generator: Adobe Illustrator 29.5.1, SVG Export Plug-In . SVG Version: 2.1.0 Build 141)  -->
  <defs>
    <style>
      .st0 {
        fill: #191919;
      }
    </style>
  </defs>
  <g>
    <ellipse class="st0" cx="289.53" cy="552.74" rx="7.57" ry="11.36"/>
    <path class="st0" d="M423.68,358.38c-16.44,0-33.87-5.41-50.4-15.97-33.29-21.27-54.96-58.62-56.54-97.48-.16-4.02,2.96-7.41,6.98-7.57,4.11-.17,7.41,2.96,7.57,6.98,1.4,34.17,20.49,67.05,49.83,85.8,21.66,13.84,44.69,17.37,63.2,9.71,22.31-9.25,40.12-27.69,48.88-50.6,6.71-17.55,11.1-45.98-6.06-81.7-1.74-3.63-.21-7.98,3.41-9.72,3.62-1.74,7.98-.22,9.72,3.41,19.4,40.39,14.26,72.98,6.53,93.2-10.18,26.63-30.92,48.08-56.91,58.85-8.21,3.4-17.06,5.08-26.22,5.08Z"/>
    <circle class="st0" cx="431.08" cy="282.12" r="12.93"/>
    <path class="st0" d="M478.26,600c-3.01,0-5.83-1.88-6.88-4.89-4.18-12-9.19-23.67-14.04-34.95-10.99-25.58-22.34-52.03-26.19-86.05-6.67-59.25,17.54-116.1,32.58-144.72,1.87-3.56,6.27-4.93,9.83-3.06,3.56,1.87,4.93,6.27,3.06,9.83-11.48,21.85-37.47,78.86-31,136.31,3.61,31.89,14.05,56.2,25.1,81.94,4.95,11.52,10.06,23.43,14.41,35.91,1.32,3.8-.68,7.95-4.48,9.27-.79.28-1.6.41-2.4.41Z"/>
  </g>
  <path class="st0" d="M402.95,249.72c-4.01-.22-7.07-3.68-6.84-7.68h0c.25-4.04,3.68-7.1,7.72-6.85h0c4.01.26,7.07,3.68,6.81,7.72h0c-.22,3.86-3.42,6.84-7.24,6.84h0c-.15,0-.29,0-.44-.04ZM421.59,242.22c-.69-3.97,1.93-7.76,5.86-8.45h0c3.97-.73,7.76,1.89,8.48,5.86h0c.69,3.97-1.93,7.72-5.9,8.45h0c-.44.07-.87.11-1.27.11h0c-3.46,0-6.52-2.44-7.17-5.97ZM376.11,244.66h0c-3.82-1.27-5.86-5.39-4.63-9.21h0c1.28-3.82,5.39-5.9,9.21-4.62h0c3.82,1.27,5.86,5.39,4.63,9.21h0c-1.02,3.06-3.86,4.99-6.92,4.99h0c-.76,0-1.53-.11-2.29-.36ZM446.39,236.4c-1.53-3.71.26-7.97,3.97-9.5h0c3.72-1.57,7.98.22,9.5,3.93h0c1.53,3.71-.22,7.97-3.97,9.5h0c-.91.4-1.82.55-2.77.55h0c-2.84,0-5.57-1.67-6.73-4.48ZM351.54,232.39c-3.31-2.29-4.11-6.84-1.82-10.16h0c2.29-3.28,6.84-4.08,10.12-1.78h0c3.31,2.29,4.11,6.85,1.82,10.12h0c-1.42,2.04-3.68,3.13-5.97,3.13h0c-1.45,0-2.91-.44-4.15-1.31ZM469.58,225.77c-2.37-3.28-1.6-7.83,1.67-10.16h0c3.24-2.37,7.79-1.64,10.16,1.64h0c2.33,3.28,1.6,7.83-1.67,10.16h0c-1.28.95-2.77,1.38-4.22,1.38h0c-2.29,0-4.52-1.06-5.93-3.02ZM331.55,213.35c-2.44-3.17-1.86-7.76,1.31-10.2h0c3.2-2.48,7.76-1.89,10.23,1.31h0c2.44,3.17,1.86,7.76-1.31,10.2h0c-1.35,1.02-2.92,1.53-4.44,1.53h0c-2.18,0-4.33-.98-5.79-2.84ZM489.17,209.42c-3.42-2.11-4.48-6.59-2.4-10.01h.04c2.08-3.42,6.59-4.48,10.01-2.4h0c3.42,2.11,4.48,6.59,2.37,10.05h0c-1.35,2.22-3.75,3.46-6.19,3.46h0c-1.31,0-2.62-.36-3.82-1.09ZM318.11,189.46h-.04c-1.45-3.75.37-7.97,4.11-9.47h0c3.75-1.46,7.98.4,9.47,4.11h0c1.45,3.75-.37,7.97-4.11,9.47h0c-.87.33-1.79.51-2.66.51h0c-2.91,0-5.64-1.75-6.77-4.62ZM500.17,186.48c-4.01-.36-6.96-3.93-6.56-7.94h0c.37-4,3.93-6.95,7.94-6.55h0c4,.36,6.95,3.93,6.55,7.94h0c-.37,3.79-3.53,6.59-7.25,6.59h0c-.22,0-.47,0-.69-.04ZM311.26,163.25c-.58-4,2.19-7.68,6.16-8.27h0c3.97-.58,7.68,2.19,8.26,6.19v-.04c.55,4-2.18,7.68-6.19,8.27h0c-.33.07-.69.07-1.06.07h0c-3.53,0-6.66-2.62-7.18-6.23ZM491.83,155.49h0c-.87-3.93,1.6-7.79,5.53-8.67h0c3.93-.87,7.83,1.6,8.7,5.53h0c.84,3.93-1.64,7.79-5.53,8.67h0c-.55.11-1.09.18-1.6.18h0c-3.35,0-6.33-2.29-7.1-5.72ZM484.33,132.55c-1.56-3.71.15-7.97,3.86-9.54h0c3.71-1.57,7.97.18,9.54,3.9h0c1.57,3.71-.18,7.97-3.86,9.54h0c-.95.4-1.89.58-2.84.58h0c-2.84,0-5.53-1.67-6.7-4.48ZM473.84,109.32c-1.56-3.71.18-7.97,3.9-9.54h0c3.71-1.57,7.97.18,9.54,3.9h0c1.53,3.71-.18,7.97-3.9,9.54h0c-.95.4-1.9.58-2.84.58h0c-2.84,0-5.53-1.68-6.7-4.48ZM464.81,84.74c-1.2-3.82.95-7.9,4.81-9.1h0c3.82-1.2,7.9.95,9.1,4.77h0c1.2,3.86-.95,7.94-4.77,9.14h0c-.73.22-1.46.33-2.19.33h0c-3.09,0-5.97-2-6.96-5.13ZM458.44,59.18c-.73-3.93,1.9-7.76,5.86-8.48h0c3.93-.73,7.76,1.89,8.48,5.86h0c.73,3.97-1.89,7.76-5.86,8.48h0c-.43.07-.87.11-1.31.11h0c-3.46,0-6.52-2.44-7.18-5.97ZM455.64,32.71c-.07-4.01,3.13-7.36,7.14-7.43h0c4.04-.11,7.36,3.09,7.43,7.14h0v-.04h0c.11,4.04-3.09,7.36-7.14,7.46h-.15c-3.97,0-7.17-3.17-7.28-7.14ZM463.17,14.18c-3.79-1.27-5.86-5.43-4.55-9.21h0c1.27-3.82,5.42-5.86,9.21-4.55h0c3.83,1.27,5.86,5.39,4.59,9.21h0c-1.06,3.02-3.86,4.95-6.92,4.95h0c-.76,0-1.56-.15-2.33-.4Z"/>
  <path class="st0" d="M189.83,242.92c-.22-4.04,2.8-7.46,6.84-7.72h0c4.01-.25,7.46,2.84,7.72,6.85h0c.22,4-2.84,7.46-6.84,7.68h0c-.15.04-.33.04-.47.04h0c-3.82,0-6.99-2.99-7.25-6.84ZM170.43,248.09c-3.97-.73-6.59-4.51-5.86-8.45h0c.69-3.97,4.48-6.59,8.45-5.86h0c3.97.69,6.59,4.48,5.86,8.45h0c-.62,3.53-3.68,5.97-7.14,5.97h0c-.44,0-.87-.04-1.31-.11ZM215.18,240.04c-1.27-3.82.8-7.94,4.63-9.21h0c3.82-1.27,7.94.8,9.21,4.62h0c1.24,3.82-.84,7.94-4.62,9.21h0c-.76.26-1.57.36-2.29.36h0c-3.06,0-5.9-1.93-6.92-4.99ZM144.57,240.33h0c-3.72-1.53-5.46-5.79-3.93-9.5h0c1.53-3.71,5.79-5.46,9.5-3.97h0c3.72,1.57,5.5,5.83,3.93,9.54h0c-1.13,2.8-3.86,4.51-6.73,4.51h0c-.91,0-1.86-.18-2.77-.58ZM238.84,230.57c-2.33-3.28-1.49-7.83,1.79-10.12h0c3.31-2.29,7.83-1.49,10.16,1.78h0c2.29,3.31,1.49,7.87-1.82,10.16h0c-1.28.87-2.73,1.31-4.15,1.31h0c-2.29,0-4.55-1.09-5.97-3.13ZM120.72,227.4h.04c-3.28-2.33-4.01-6.88-1.67-10.16h0c2.36-3.28,6.88-4.01,10.16-1.64h0c3.27,2.33,4,6.88,1.67,10.16h0c-1.42,1.97-3.68,3.02-5.93,3.02h0c-1.46,0-2.95-.44-4.26-1.38ZM258.72,214.66c-3.2-2.44-3.79-7.03-1.35-10.2h0c2.48-3.2,7.07-3.79,10.23-1.35h0c3.17,2.48,3.79,7.03,1.31,10.23h0c-1.42,1.86-3.57,2.84-5.75,2.84h0c-1.56,0-3.13-.51-4.44-1.53ZM101.32,207.05c-2.15-3.42-1.06-7.94,2.36-10.01h0c3.42-2.11,7.9-1.06,10.01,2.37h0c2.11,3.42,1.06,7.9-2.4,10.01h0c-1.16.73-2.47,1.09-3.79,1.09h0c-2.44,0-4.84-1.24-6.19-3.46ZM272.96,193.54c-3.75-1.46-5.61-5.68-4.11-9.43h0c1.45-3.75,5.68-5.57,9.43-4.11h0c3.75,1.46,5.57,5.68,4.11,9.47h0c-1.13,2.84-3.86,4.59-6.77,4.59h0c-.91,0-1.78-.14-2.66-.51ZM92.36,179.92c-.37-4.01,2.55-7.57,6.59-7.94h0c4-.4,7.54,2.55,7.94,6.55h0c.37,4.01-2.59,7.57-6.55,7.94h0c-.26.04-.47.04-.73.04h0c-3.71,0-6.88-2.84-7.24-6.59ZM280.97,169.4c-3.97-.58-6.74-4.3-6.16-8.27h0c.55-3.97,4.26-6.74,8.23-6.15h0c3.97.58,6.74,4.26,6.19,8.23h0c-.54,3.64-3.68,6.26-7.21,6.26h0c-.37,0-.73-.04-1.06-.07ZM99.97,161.03c-3.93-.87-6.41-4.73-5.54-8.67h0c.87-3.93,4.73-6.41,8.67-5.53h0c3.93.87,6.41,4.73,5.54,8.67h0c-.73,3.42-3.75,5.72-7.1,5.72h0c-.51,0-1.02-.07-1.56-.18ZM106.63,136.45c-3.72-1.57-5.46-5.83-3.9-9.54h0c1.56-3.71,5.82-5.46,9.54-3.86h0c3.71,1.53,5.46,5.83,3.89,9.54h0c-1.16,2.77-3.86,4.44-6.7,4.44h0c-.95,0-1.93-.18-2.84-.58ZM117.12,113.22c-3.72-1.57-5.46-5.83-3.9-9.54h0c1.56-3.71,5.82-5.46,9.54-3.9h0c3.71,1.57,5.43,5.83,3.9,9.54h0c-1.2,2.8-3.9,4.48-6.74,4.48h0c-.95,0-1.89-.18-2.8-.58ZM126.55,89.55c-3.86-1.2-6.01-5.28-4.81-9.14h0c1.2-3.82,5.28-5.97,9.14-4.77h0c3.83,1.2,5.97,5.28,4.77,9.1h0c-.98,3.13-3.86,5.13-6.96,5.13h0c-.73,0-1.46-.11-2.15-.33ZM133.54,65.05c-3.97-.73-6.55-4.51-5.82-8.48h0c.73-3.97,4.51-6.59,8.45-5.83h0c3.97.69,6.59,4.51,5.86,8.45h0c-.65,3.53-3.72,5.97-7.17,5.97h0c-.4,0-.87-.04-1.31-.11ZM137.4,39.85c-4.04-.11-7.21-3.42-7.14-7.43h0c.11-4.04,3.42-7.25,7.43-7.14h0c4.04.07,7.21,3.42,7.14,7.43h0c-.07,3.97-3.31,7.14-7.28,7.14h-.15ZM128.08,9.63c-1.27-3.82.76-7.94,4.55-9.25h0c3.82-1.27,7.98.76,9.25,4.59h0c1.27,3.82-.76,7.94-4.59,9.21h0c-.76.26-1.53.4-2.33.4h0c-3.02,0-5.86-1.93-6.88-4.95Z"/>
  <g>
    <g>
      <path class="st0" d="M184.12,201.58c-2.16,0-3.92-1.75-3.92-3.92v-37.51c0-2.16,1.76-3.92,3.92-3.92s3.92,1.75,3.92,3.92v37.51c0,2.16-1.76,3.92-3.92,3.92Z"/>
      <path class="st0" d="M201.72,177.5c-1.11,0-2.21-.47-2.99-1.38l-14.71-17.27-14.71,17.27c-1.4,1.65-3.88,1.85-5.52.44-1.65-1.4-1.85-3.87-.44-5.52l17.69-20.78c1.49-1.75,4.48-1.75,5.97,0l17.69,20.78c1.4,1.65,1.21,4.12-.44,5.52-.74.63-1.64.94-2.54.94Z"/>
    </g>
    <g>
      <path class="st0" d="M416.69,201.58c-2.16,0-3.92-1.75-3.92-3.92v-37.51c0-2.16,1.76-3.92,3.92-3.92s3.92,1.75,3.92,3.92v37.51c0,2.16-1.76,3.92-3.92,3.92Z"/>
      <path class="st0" d="M434.3,177.5c-1.11,0-2.21-.47-2.99-1.38l-14.71-17.27-14.71,17.27c-1.4,1.65-3.88,1.85-5.52.44-1.65-1.4-1.85-3.87-.44-5.52l17.69-20.78c1.49-1.75,4.48-1.75,5.97,0l17.69,20.78c1.4,1.65,1.21,4.12-.44,5.52-.74.63-1.64.94-2.54.94Z"/>
    </g>
  </g>
  <g>
    <path class="st0" d="M174.17,358.38c-9.16,0-18.01-1.68-26.22-5.08-24.96-10.35-44.92-31.04-54.75-56.77-7.83-20.48-12.96-53.64,7.05-95.29,1.75-3.63,6.11-5.15,9.72-3.41,3.62,1.74,5.15,6.09,3.41,9.72-17.76,36.98-13.38,65.98-6.57,83.79,8.41,22.01,25.44,39.69,46.72,48.51,18.5,7.67,41.54,4.14,63.2-9.71,29.34-18.75,48.44-51.62,49.83-85.8.16-4.02,3.48-7.14,7.57-6.98,4.02.16,7.14,3.55,6.98,7.57-1.59,38.86-23.25,76.21-56.54,97.48-16.52,10.56-33.95,15.97-50.4,15.97Z"/>
    <circle class="st0" cx="166.77" cy="282.12" r="12.93"/>
    <path class="st0" d="M119.59,600c-.8,0-1.6-.13-2.4-.41-3.8-1.32-5.8-5.48-4.48-9.27,4.35-12.48,9.47-24.39,14.41-35.91,11.05-25.74,21.49-50.05,25.1-81.94,6.47-57.45-19.52-114.46-31-136.31-1.87-3.56-.5-7.96,3.06-9.83,3.55-1.87,7.96-.5,9.83,3.06,15.03,28.61,39.25,85.46,32.58,144.71-3.85,34.03-15.2,60.48-26.19,86.06-4.85,11.29-9.86,22.96-14.04,34.95-1.05,3-3.87,4.89-6.88,4.89Z"/>
  </g>
</svg>