<?xml version="1.0" encoding="UTF-8"?>
<svg id="Layer_1" xmlns="http://www.w3.org/2000/svg" version="1.1" viewBox="0 0 600 600">
  <!-- Generator: Adobe Illustrator 29.5.1, SVG Export Plug-In . SVG Version: 2.1.0 Build 141)  -->
  <defs>
    <style>
      .st0 {
        fill: #191919;
      }
    </style>
  </defs>
  <ellipse class="st0" cx="289.27" cy="478.29" rx="7.54" ry="11.32"/>
  <g>
    <path class="st0" d="M172.95,249.68c-.26-3.99,2.79-7.44,6.78-7.73h0c3.99-.25,7.44,2.79,7.73,6.78h0c.26,3.99-2.76,7.44-6.75,7.73h-.51c-3.77,0-6.97-2.94-7.26-6.78ZM153.5,254.79h0c-3.92-.8-6.46-4.64-5.69-8.56h0c.8-3.92,4.64-6.46,8.56-5.66h0c3.95.8,6.46,4.61,5.7,8.56h0c-.73,3.41-3.74,5.81-7.11,5.81h0c-.47,0-.98-.07-1.45-.15ZM198.2,246.74c-1.16-3.85,1.02-7.87,4.86-9.03h0c3.84-1.16,7.87,1.02,9.03,4.86h0c1.12,3.85-1.02,7.87-4.86,9.03h0c-.69.22-1.42.33-2.1.33h0c-3.12,0-5.99-2.03-6.93-5.19ZM127.81,245.29c-3.52-1.85-4.9-6.28-3.01-9.8h0c1.85-3.56,6.24-4.9,9.8-3.05h0c3.56,1.89,4.9,6.28,3.01,9.8h0c-1.27,2.47-3.81,3.88-6.42,3.88h0c-1.13,0-2.29-.25-3.38-.83ZM222.14,238.32c-1.96-3.48-.69-7.91,2.8-9.87h0c3.48-1.96,7.91-.73,9.87,2.79h0c1.96,3.48.73,7.91-2.76,9.87h0c-1.13.62-2.36.94-3.56.94h0c-2.54,0-5.01-1.34-6.35-3.74ZM105.54,229.25c-2.83-2.83-2.83-7.44-.04-10.27h0c2.83-2.83,7.44-2.83,10.27-.04h0c2.87,2.83,2.87,7.44.04,10.27h0c-1.42,1.42-3.27,2.14-5.15,2.14h0c-1.85,0-3.7-.69-5.12-2.1ZM243.66,224.82c-2.72-2.9-2.61-7.51.33-10.27h0c2.9-2.72,7.51-2.61,10.27.33h0c2.72,2.9,2.61,7.51-.33,10.23h0c-1.38,1.34-3.2,2-4.97,2h0c-1.92,0-3.85-.76-5.3-2.29ZM89.86,205.92c-1.49-3.74.29-7.95,4.03-9.47h0c3.7-1.49,7.94.29,9.43,4.03h0c1.52,3.7-.29,7.91-3.99,9.43h0c-.91.36-1.81.54-2.72.54h0c-2.87,0-5.59-1.74-6.75-4.54ZM261.11,206.39c-3.45-2.03-4.57-6.49-2.54-9.94h0c2.03-3.45,6.49-4.61,9.94-2.58h0c3.45,2.03,4.57,6.49,2.54,9.94h0c-1.34,2.29-3.77,3.56-6.24,3.56h0c-1.27,0-2.54-.29-3.7-.98ZM84.64,178.46c-.07-3.99,3.16-7.26,7.18-7.33h0c3.99-.04,7.26,3.19,7.33,7.18h0c.04,4.03-3.19,7.29-7.22,7.33h-.07c-3.95,0-7.18-3.19-7.22-7.18ZM272.57,183.72c-3.92-.91-6.35-4.79-5.44-8.71h0c.91-3.88,4.83-6.31,8.71-5.41h0c3.92.91,6.35,4.79,5.44,8.71h0c-.8,3.34-3.77,5.62-7.07,5.62h0c-.55,0-1.09-.07-1.63-.22ZM93.31,160.32c-3.88-.98-6.27-4.9-5.3-8.78h0c.94-3.88,4.9-6.28,8.78-5.3h0c3.88.94,6.28,4.9,5.3,8.78h0c-.8,3.3-3.77,5.51-7.04,5.51h0c-.58,0-1.16-.07-1.74-.22ZM100.38,135.94c-3.66-1.56-5.41-5.84-3.81-9.51h0c1.56-3.7,5.8-5.41,9.51-3.85h0c3.7,1.56,5.4,5.84,3.84,9.51h0c-1.2,2.76-3.88,4.43-6.71,4.43h0c-.95,0-1.89-.18-2.83-.58ZM110.87,112.83c-3.7-1.56-5.44-5.81-3.88-9.51h0c1.56-3.7,5.8-5.44,9.5-3.88h0c3.7,1.56,5.44,5.81,3.88,9.51h0c-1.16,2.76-3.84,4.43-6.71,4.43h0c-.91,0-1.89-.18-2.8-.54ZM120.26,89.21c-3.81-1.2-5.95-5.26-4.75-9.07h0c1.16-3.85,5.22-5.99,9.07-4.79h0c3.81,1.2,5.95,5.26,4.75,9.11h0c-.94,3.08-3.81,5.08-6.89,5.08h0c-.73,0-1.45-.11-2.18-.33ZM127.23,64.79c-3.92-.73-6.53-4.5-5.8-8.45h0c.73-3.92,4.5-6.53,8.45-5.81h0c3.92.73,6.53,4.5,5.8,8.45h0c-.62,3.48-3.7,5.95-7.11,5.95h0c-.44,0-.87-.07-1.34-.14ZM131.08,39.68c-3.99-.07-7.19-3.41-7.08-7.4h0c.07-3.99,3.37-7.18,7.4-7.11h0c3.99.11,7.19,3.41,7.11,7.4h-.04c-.07,3.95-3.3,7.11-7.22,7.11h-.18ZM121.79,9.57c-1.27-3.77.76-7.91,4.57-9.18h0c3.81-1.31,7.91.76,9.18,4.54h0c1.31,3.81-.76,7.91-4.54,9.21h0c-.76.25-1.56.36-2.32.36h0c-3.05,0-5.88-1.89-6.89-4.93Z"/>
    <path class="st0" d="M173.43,223.28c-41.51,0-62.17-35.19-63.08-36.78-1.99-3.48-.79-7.91,2.69-9.9,3.48-1.99,7.9-.79,9.9,2.67.81,1.4,19.61,32.88,56.62,29.18,39.81-3.98,54.34-28.22,59.47-42.31,1.37-3.76,5.53-5.71,9.3-4.34,3.77,1.37,5.71,5.53,4.34,9.3-5.06,13.92-22.18,46.84-71.66,51.79-2.6.26-5.12.38-7.58.38Z"/>
    <circle class="st0" cx="169.71" cy="143.35" r="12.88"/>
    <path class="st0" d="M111.02,600c-3.77,0-6.96-2.92-7.23-6.74-3.82-53.82,11.53-89.56,26.37-124.11,11.03-25.66,21.44-49.91,25.04-81.73,8.36-73.99-37.15-146.9-37.61-147.63-2.14-3.39-1.14-7.87,2.25-10.01,3.38-2.14,7.86-1.14,10.01,2.24,1.99,3.14,48.72,77.86,39.77,157.03-3.84,33.95-15.17,60.32-26.12,85.82-14.81,34.48-28.8,67.05-25.23,117.35.28,4-2.73,7.47-6.72,7.75-.17.01-.35.02-.52.02Z"/>
  </g>
  <path class="st0" d="M419.29,256.46c-3.99-.29-7-3.74-6.75-7.73h0c.25-4.03,3.74-7.04,7.73-6.75h0c3.99.25,7.04,3.7,6.75,7.69h0c-.26,3.85-3.45,6.78-7.22,6.78h-.51ZM437.94,249.1c-.8-3.92,1.74-7.73,5.69-8.53h0c3.92-.8,7.73,1.74,8.53,5.66h0c.8,3.92-1.74,7.76-5.66,8.56h0c-.47.11-.98.15-1.45.15h0c-3.37,0-6.42-2.39-7.11-5.84ZM392.77,251.6h0c-3.84-1.16-6.02-5.19-4.86-9.03h0c1.16-3.85,5.19-6.02,9.03-4.86h0c3.84,1.16,6.02,5.19,4.86,9.03h0c-.94,3.16-3.81,5.19-6.93,5.19h0c-.69,0-1.41-.11-2.1-.33ZM462.36,242.28c-1.85-3.56-.51-7.95,3.05-9.83h0c3.56-1.85,7.95-.51,9.8,3.05h0c1.89,3.52.51,7.91-3.01,9.8h0c-1.09.58-2.25.83-3.37.83h0c-2.61,0-5.15-1.42-6.46-3.85ZM367.95,241.11c-3.48-1.96-4.75-6.39-2.8-9.87h0c1.96-3.48,6.39-4.75,9.91-2.79h0c3.48,1.96,4.72,6.39,2.76,9.87h0c-1.31,2.4-3.77,3.74-6.31,3.74h0c-1.2,0-2.43-.33-3.55-.94ZM484.2,229.21c-2.83-2.83-2.83-7.44.04-10.27h-.04c2.87-2.83,7.44-2.79,10.27.04h0c2.83,2.83,2.83,7.44-.04,10.27h0c-1.41,1.42-3.26,2.1-5.11,2.1h0c-1.85,0-3.7-.73-5.12-2.14ZM346.08,225.15c-2.94-2.76-3.05-7.37-.33-10.27h0c2.76-2.94,7.37-3.05,10.27-.33h0c2.9,2.76,3.05,7.37.33,10.27h0c-1.45,1.52-3.37,2.29-5.3,2.29h0c-1.78,0-3.59-.65-4.97-1.96ZM500.67,209.91c-3.7-1.52-5.52-5.73-3.99-9.43h0c1.49-3.74,5.73-5.51,9.44-4.03h0c3.7,1.52,5.51,5.73,4.02,9.47h0c-1.16,2.79-3.88,4.54-6.75,4.54h0c-.91,0-1.81-.18-2.72-.54ZM328.95,203.82h0c-2.03-3.45-.91-7.91,2.54-9.94h0c3.48-2.03,7.91-.87,9.94,2.58h0c2.03,3.45.91,7.91-2.58,9.94h0c-1.12.69-2.39,1.02-3.66,1.02h0c-2.47,0-4.9-1.31-6.24-3.59ZM508.03,185.64c-3.99-.04-7.22-3.3-7.18-7.33h0c.07-3.99,3.34-7.22,7.33-7.18h0c4.03.07,7.22,3.34,7.19,7.33h0c-.04,3.99-3.27,7.18-7.26,7.18h-.07ZM318.72,178.31c-.91-3.92,1.52-7.8,5.44-8.71h0c3.88-.91,7.8,1.52,8.71,5.41h0c.91,3.92-1.52,7.8-5.44,8.71h0c-.55.15-1.09.22-1.63.22h0c-3.3,0-6.28-2.29-7.08-5.62ZM497.91,155.02c-.98-3.88,1.42-7.84,5.3-8.78h0c3.88-.98,7.8,1.41,8.78,5.3h0c.98,3.88-1.42,7.8-5.3,8.78h0c-.58.15-1.16.22-1.74.22h0c-3.27,0-6.24-2.21-7.04-5.51ZM490.08,132.09c-1.56-3.7.18-7.95,3.84-9.51h0c3.7-1.56,7.95.15,9.54,3.85h0c1.56,3.66-.15,7.95-3.84,9.51h0c-.94.4-1.89.58-2.83.58h0c-2.83,0-5.51-1.67-6.71-4.43ZM479.63,108.94v-.04c-1.56-3.66.18-7.91,3.88-9.47h0c3.7-1.56,7.95.18,9.51,3.88h0c1.56,3.66-.18,7.95-3.88,9.47h0c-.91.4-1.88.58-2.79.58h0c-2.83,0-5.55-1.67-6.71-4.43ZM470.66,84.45c-1.2-3.85.94-7.91,4.75-9.11h0c3.81-1.2,7.87.94,9.11,4.79h0c1.16,3.81-.98,7.87-4.79,9.07h0c-.73.22-1.45.33-2.18.33h0c-3.09,0-5.95-2-6.89-5.08ZM464.31,58.95v.04c-.76-3.95,1.85-7.73,5.81-8.45h0c3.95-.73,7.73,1.89,8.45,5.81h0c.72,3.95-1.89,7.73-5.84,8.45h0c-.44.07-.87.11-1.31.11h0c-3.45,0-6.49-2.43-7.11-5.95ZM461.49,32.57h.04c-.11-3.99,3.08-7.29,7.08-7.4h0c4.02-.07,7.33,3.08,7.4,7.11h0c.11,3.99-3.09,7.33-7.08,7.4h-.15c-3.95,0-7.19-3.12-7.29-7.11ZM468.99,14.14c-3.77-1.31-5.8-5.41-4.54-9.21h0c1.31-3.77,5.41-5.81,9.22-4.54h0c3.77,1.27,5.81,5.41,4.54,9.18h0c-1.02,3.05-3.84,4.93-6.89,4.93h0c-.76,0-1.53-.11-2.32-.36Z"/>
  <path class="st0" d="M426.58,223.28c-2.45,0-4.98-.12-7.58-.38-49.48-4.95-66.6-37.87-71.66-51.79-1.37-3.77.57-7.93,4.34-9.3,3.75-1.37,7.93.57,9.3,4.34,5.12,14.09,19.67,38.33,59.47,42.31,37.27,3.72,56.43-28.84,56.62-29.17,1.99-3.48,6.42-4.68,9.9-2.69,3.48,1.99,4.68,6.43,2.69,9.9-.91,1.59-21.58,36.78-63.08,36.78Z"/>
  <circle class="st0" cx="430.31" cy="143.35" r="12.88"/>
  <path class="st0" d="M488.99,600c-.17,0-.35,0-.52-.02-4-.28-7.01-3.75-6.72-7.75,3.57-50.31-10.42-82.87-25.23-117.35-10.96-25.5-22.29-51.88-26.13-85.83-8.95-79.17,37.78-153.88,39.77-157.03,2.15-3.38,6.63-4.38,10.01-2.24,3.38,2.14,4.39,6.63,2.25,10.01-.46.73-45.97,73.63-37.61,147.63,3.6,31.82,14.01,56.06,25.04,81.73,14.85,34.55,30.2,70.29,26.38,124.11-.27,3.82-3.46,6.74-7.23,6.74Z"/>
</svg>