<?xml version="1.0" encoding="UTF-8"?>
<svg id="Layer_1" xmlns="http://www.w3.org/2000/svg" version="1.1" viewBox="0 0 600 600">
  <!-- Generator: Adobe Illustrator 29.5.1, SVG Export Plug-In . SVG Version: 2.1.0 Build 141)  -->
  <defs>
    <style>
      .st0 {
        fill: #191919;
      }
    </style>
  </defs>
  <g>
    <ellipse class="st0" cx="261.96" cy="539.89" rx="10" ry="15.01"/>
    <path class="st0" d="M511.33,600c-3.01,0-5.83-1.88-6.88-4.89-5.55-15.93-12.19-31.39-18.61-46.35-14.45-33.64-29.39-68.43-34.43-113.04-8.75-77.66,23.05-152.29,42.79-189.86,1.87-3.56,6.27-4.93,9.83-3.06s4.93,6.27,3.06,9.83c-15.27,29.06-49.84,104.91-41.21,181.46,4.8,42.47,19.31,76.25,33.34,108.92,6.52,15.18,13.26,30.88,18.98,47.3,1.32,3.8-.68,7.95-4.48,9.27-.79.28-1.6.41-2.4.41Z"/>
  </g>
  <path class="st0" d="M412.64,308.05c-69.7,0-104.13-72.16-104.52-73-1.69-3.65-.11-7.98,3.54-9.67,3.64-1.69,7.97-.11,9.67,3.53h0c1.63,3.48,40.76,85,121.22,59.73,29.87-9.38,49.1-27.58,57.16-54.09,9.26-30.42.49-63.02-5.29-70.24-4.88-6.08-10.17-12.16-15.29-18.05-22.18-25.48-45.11-51.82-46.49-90.57-.14-4.02,3-7.39,7.02-7.54,4.11-.1,7.39,3,7.54,7.02,1.2,33.6,21.46,56.88,42.92,81.53,5.22,5.99,10.61,12.19,15.67,18.5,8.66,10.81,18.7,47.99,7.86,83.58-6.57,21.58-23.48,50.15-66.73,63.74-12.25,3.85-23.67,5.52-34.28,5.52Z"/>
  <path class="st0" d="M500.1,167.04c-3.4,0-6.44-2.39-7.13-5.84-.84-4.16-20.24-102.5,5.36-157.01,1.71-3.64,6.04-5.21,9.69-3.5,3.64,1.71,5.21,6.05,3.5,9.69-23.56,50.16-4.46,146.97-4.27,147.94.79,3.94-1.76,7.78-5.7,8.58-.48.1-.97.14-1.44.14Z"/>
  <path class="st0" d="M433.16,358.29c-4.95,0-9.01-3.97-9.1-8.94-.09-5.03,3.91-9.17,8.94-9.26,1.13-.02,2.26-.06,3.4-.1,4.98-.22,9.27,3.67,9.49,8.7.22,5.02-3.68,9.27-8.7,9.49-1.3.06-2.59.1-3.88.12-.05,0-.11,0-.16,0ZM400.7,354.86c-.69,0-1.4-.08-2.1-.25-1.27-.3-2.53-.62-3.78-.95-4.86-1.3-7.74-6.28-6.45-11.14,1.3-4.86,6.29-7.75,11.14-6.45,1.08.29,2.18.56,3.27.82,4.89,1.16,7.92,6.06,6.76,10.95-.99,4.19-4.73,7.01-8.85,7.01ZM469.11,353.2c-4.02,0-7.7-2.69-8.79-6.76-1.29-4.86,1.59-9.85,6.45-11.14,1.1-.29,2.19-.6,3.27-.92,4.83-1.42,9.89,1.33,11.31,6.16,1.42,4.82-1.34,9.88-6.16,11.3-1.23.36-2.47.71-3.73,1.05-.79.21-1.57.31-2.35.31ZM366.92,341.61c-1.51,0-3.04-.38-4.45-1.17-1.13-.63-2.24-1.28-3.35-1.93-4.32-2.57-5.74-8.16-3.17-12.48,2.57-4.32,8.17-5.73,12.48-3.17.97.58,1.96,1.15,2.95,1.71,4.38,2.46,5.94,8.01,3.48,12.4-1.67,2.97-4.76,4.64-7.94,4.64ZM502.49,339c-3.03,0-6-1.51-7.72-4.27-2.67-4.26-1.38-9.88,2.88-12.55.94-.59,1.87-1.19,2.78-1.81,4.16-2.82,9.82-1.73,12.64,2.43,2.82,4.16,1.73,9.82-2.44,12.64-1.09.74-2.19,1.46-3.32,2.16-1.5.94-3.17,1.39-4.83,1.39ZM337.63,320.11c-2.22,0-4.43-.8-6.19-2.43-.94-.87-1.87-1.75-2.78-2.63-3.62-3.49-3.71-9.26-.22-12.87,3.49-3.62,9.26-3.71,12.87-.22.82.8,1.66,1.59,2.51,2.38,3.69,3.42,3.9,9.18.48,12.87-1.8,1.93-4.23,2.91-6.68,2.91ZM529.1,314.5c-1.88,0-3.77-.58-5.39-1.78-4.05-2.98-4.91-8.68-1.92-12.73.65-.89,1.29-1.79,1.92-2.71,2.84-4.15,8.5-5.22,12.65-2.38,4.15,2.84,5.22,8.5,2.38,12.65-.75,1.1-1.51,2.18-2.3,3.24-1.79,2.42-4.54,3.7-7.33,3.7ZM313.51,292.87c-2.8,0-5.57-1.29-7.35-3.73-.76-1.04-1.5-2.06-2.22-3.08-2.9-4.1-1.93-9.79,2.18-12.69s9.78-1.93,12.69,2.17c.66.94,1.34,1.88,2.04,2.84,2.97,4.06,2.09,9.75-1.97,12.72-1.62,1.19-3.5,1.76-5.37,1.76ZM544.78,281.87c-.8,0-1.6-.11-2.41-.33-4.85-1.33-7.7-6.34-6.37-11.19.3-1.07.57-2.16.84-3.25,1.17-4.89,6.09-7.91,10.98-6.72,4.89,1.18,7.9,6.09,6.72,10.98-.31,1.28-.63,2.55-.98,3.8-1.11,4.04-4.78,6.7-8.78,6.7ZM294.61,261.71c-3.39,0-6.65-1.9-8.21-5.17-1.15-2.39-1.71-3.74-1.71-3.74-1.95-4.63.22-9.97,4.85-11.92,4.63-1.95,9.95.21,11.91,4.83h0c.04.1.5,1.16,1.36,2.96,2.18,4.53.26,9.97-4.27,12.14-1.27.61-2.61.9-3.93.9ZM548.92,245.83c-4.92,0-8.96-3.92-9.1-8.86-.03-1.13-.08-2.26-.14-3.4-.27-5.02,3.59-9.3,8.61-9.57,5.12-.25,9.31,3.59,9.57,8.61.07,1.3.12,2.59.16,3.87.14,5.03-3.83,9.21-8.86,9.34-.08,0-.16,0-.25,0ZM543.58,209.9c-4.03,0-7.71-2.7-8.79-6.78-.3-1.11-.6-2.23-.92-3.34-1.38-4.83,1.42-9.87,6.26-11.25,4.82-1.38,9.87,1.42,11.25,6.26.35,1.23.69,2.45,1.01,3.68,1.29,4.86-1.61,9.84-6.47,11.13-.78.21-1.56.31-2.34.31ZM530.91,175.82c-3.39,0-6.64-1.9-8.21-5.15-.5-1.05-1.02-2.1-1.55-3.15-2.25-4.5-.43-9.96,4.06-12.21,4.5-2.25,9.97-.43,12.21,4.07.57,1.13,1.12,2.25,1.67,3.38,2.18,4.53.28,9.97-4.25,12.15-1.27.62-2.62.91-3.95.91ZM512.4,144.52c-2.85,0-5.66-1.34-7.44-3.84-.67-.95-1.35-1.9-2.04-2.84-2.97-4.06-2.09-9.75,1.97-12.72,4.06-2.97,9.75-2.09,12.72,1.97.75,1.02,1.48,2.04,2.21,3.07,2.91,4.1,1.94,9.78-2.17,12.69-1.6,1.13-3.43,1.68-5.26,1.68Z"/>
  <path class="st0" d="M425.47,238.46c-3.31,0-6.27-2.35-6.91-5.73-.73-3.82,1.78-7.51,5.6-8.24.68-.13,1.33-.3,1.97-.51,3.71-1.22,7.68.8,8.89,4.5,1.21,3.7-.8,7.68-4.5,8.89-1.22.4-2.47.72-3.72.96-.44.09-.89.13-1.33.13ZM402.1,229.29c-2.17,0-4.3-.99-5.68-2.87-.75-1.02-1.44-2.1-2.07-3.21-1.9-3.4-.68-7.69,2.72-9.59,3.4-1.9,7.69-.68,9.59,2.72.34.6.71,1.18,1.11,1.74,2.31,3.14,1.63,7.54-1.5,9.85-1.26.92-2.72,1.37-4.16,1.37ZM444.31,218.35c-.29,0-.59-.02-.89-.06-3.86-.49-6.6-4.01-6.11-7.87.09-.67.13-1.36.13-2.06,0-3.89,3.15-7.18,7.04-7.18s7.04,3.02,7.04,6.91v.27c0,1.29-.08,2.57-.23,3.81-.45,3.56-3.48,6.17-6.98,6.17ZM401.92,201.75c-1.42,0-2.85-.43-4.1-1.32-3.16-2.27-3.89-6.67-1.63-9.83.74-1.04,1.55-2.02,2.41-2.96,2.65-2.86,7.1-3.03,9.96-.4,2.86,2.64,3.04,7.1.4,9.96-.47.51-.91,1.04-1.31,1.6-1.38,1.92-3.54,2.94-5.74,2.94ZM430.8,194.07c-.99,0-1.99-.21-2.94-.65-.62-.28-1.26-.53-1.91-.74-3.71-1.17-5.77-5.12-4.61-8.83,1.17-3.71,5.12-5.77,8.83-4.61,1.22.38,2.43.85,3.58,1.38,3.53,1.63,5.08,5.81,3.45,9.35-1.19,2.58-3.74,4.1-6.4,4.1Z"/>
  <path class="st0" d="M49.26,600c-.8,0-1.6-.13-2.4-.41-3.8-1.32-5.8-5.48-4.48-9.27,5.72-16.41,12.46-32.11,18.98-47.28,14.03-32.67,28.54-66.46,33.34-108.94,8.62-76.54-25.95-152.39-41.21-181.45-1.87-3.56-.5-7.96,3.06-9.83,3.55-1.87,7.97-.5,9.83,3.06,19.74,37.57,51.54,112.2,42.79,189.86-5.04,44.62-19.98,79.41-34.43,113.05-6.42,14.95-13.06,30.4-18.61,46.33-1.05,3-3.87,4.89-6.88,4.89Z"/>
  <path class="st0" d="M147.96,308.05c-10.61,0-22.02-1.67-34.28-5.52-43.26-13.59-60.17-42.17-66.74-63.74-10.83-35.6-.8-72.77,7.86-83.58,5.06-6.31,10.45-12.51,15.67-18.5,21.46-24.65,41.72-47.93,42.92-81.53.15-4.02,3.42-7.11,7.54-7.02,4.02.14,7.16,3.52,7.02,7.54-1.39,38.75-24.32,65.1-46.5,90.57-5.12,5.88-10.42,11.97-15.29,18.05-5.78,7.21-14.55,39.81-5.29,70.23,8.07,26.51,27.3,44.7,57.17,54.09,80.67,25.34,119.6-56.23,121.22-59.72,1.7-3.65,6.03-5.23,9.67-3.54,3.65,1.69,5.23,6.02,3.54,9.67-.39.84-34.83,73-104.52,73Z"/>
  <path class="st0" d="M60.49,167.04c-.48,0-.96-.05-1.44-.14-3.94-.79-6.5-4.63-5.7-8.58.2-.97,19.29-97.79-4.27-147.94-1.71-3.64-.14-7.98,3.5-9.69,3.64-1.71,7.98-.15,9.69,3.5,25.61,54.52,6.2,152.85,5.36,157.01-.7,3.46-3.74,5.84-7.13,5.84Z"/>
  <path class="st0" d="M144.03,238.46c-3.31,0-6.27-2.35-6.91-5.72-.73-3.82,1.77-7.51,5.59-8.25.68-.13,1.34-.3,1.98-.51,3.7-1.22,7.68.8,8.89,4.5,1.21,3.7-.8,7.68-4.5,8.89-1.21.4-2.46.72-3.72.96-.45.09-.9.13-1.33.13ZM120.66,229.3c-2.17,0-4.3-.99-5.68-2.87-.75-1.02-1.44-2.1-2.07-3.21-1.9-3.4-.68-7.69,2.72-9.59,3.41-1.9,7.69-.68,9.59,2.72.34.6.71,1.18,1.11,1.74,2.31,3.14,1.63,7.54-1.5,9.85-1.26.92-2.72,1.37-4.16,1.37ZM162.88,218.35c-.29,0-.59-.02-.89-.06-3.86-.49-6.6-4.01-6.11-7.87.09-.67.13-1.36.13-2.06,0-3.89,3.15-7.18,7.04-7.18s7.04,3.02,7.04,6.91h-7.04l7.04.07c0,1.5-.07,2.77-.23,4.02-.45,3.56-3.48,6.17-6.98,6.17ZM120.48,201.75c-1.42,0-2.85-.43-4.1-1.32-3.16-2.27-3.89-6.67-1.63-9.83.74-1.04,1.55-2.03,2.41-2.96,2.65-2.86,7.1-3.03,9.96-.39,2.86,2.64,3.03,7.1.39,9.96-.47.5-.9,1.04-1.3,1.6-1.38,1.92-3.54,2.94-5.74,2.94ZM149.37,194.07c-.98,0-1.99-.21-2.94-.65-.62-.28-1.26-.53-1.91-.74-3.71-1.17-5.77-5.12-4.61-8.83,1.17-3.71,5.12-5.77,8.83-4.61,1.23.39,2.42.85,3.58,1.38,3.53,1.63,5.08,5.81,3.46,9.34-1.19,2.58-3.74,4.1-6.4,4.1Z"/>
  <circle class="st0" cx="139.58" cy="208.36" r="10.21"/>
  <circle class="st0" cx="421.02" cy="208.36" r="10.21"/>
</svg>