<?xml version="1.0" encoding="UTF-8"?>
<svg id="Layer_1" xmlns="http://www.w3.org/2000/svg" version="1.1" viewBox="0 0 600 600">
  <!-- Generator: Adobe Illustrator 29.5.1, SVG Export Plug-In . SVG Version: 2.1.0 Build 141)  -->
  <defs>
    <style>
      .st0 {
        fill: #191919;
      }
    </style>
  </defs>
  <path class="st0" d="M299.24,561.28c-19.6,0-66.91-1.92-110.72-18.47-42.51-16.06-69.87-37.8-91.85-55.27-7.01-5.57-13.63-10.83-19.92-15.23-1.35-.94-2.21-2.44-2.35-4.08-.14-1.64.45-3.26,1.62-4.42,2.04-2.03,50.99-50.09,130.89-78.02,73.87-25.82,188.73-38.06,316.48,50.25,2.33,1.61,3.07,4.7,1.74,7.19-.6,1.12-15.02,27.63-49.05,55.55-31.26,25.64-85.71,57.27-167.61,62.32-.57.03-3.86.17-9.22.17ZM88.69,467.23c4.81,3.59,9.75,7.51,14.9,11.6,21.38,16.99,47.98,38.13,88.87,53.57,53.66,20.27,114.8,17.63,115.41,17.6,132.7-8.18,192.29-88.29,204.88-107.78-98.14-66.28-199.77-81.74-302.17-45.95-63.58,22.23-107.77,58.39-121.89,70.95Z"/>
  <path class="st0" d="M300.58,562c-23.8,0-46.51-8.57-64.5-24.48-19.53-17.27-31.17-41.1-32.78-67.12-1.6-26.02,7.02-51.1,24.28-70.64,17.27-19.53,41.1-31.17,67.12-32.78,26.02-1.6,51.1,7.02,70.64,24.28,19.53,17.27,31.17,41.1,32.78,67.12,3.31,53.71-37.69,100.11-91.4,103.42-2.05.13-4.1.19-6.14.19ZM300.83,378.81c-1.79,0-3.58.06-5.38.17-22.82,1.41-43.72,11.62-58.86,28.74-15.14,17.13-22.71,39.13-21.3,61.95,1.41,22.82,11.62,43.73,28.75,58.87,17.13,15.14,39.16,22.7,61.95,21.3,22.82-1.41,43.73-11.62,58.87-28.75,15.14-17.13,22.7-39.13,21.3-61.95-1.41-22.82-11.62-43.73-28.75-58.87-15.78-13.95-35.69-21.46-56.57-21.46Z"/>
  <path class="st0" d="M300.69,501.22c-19.28,0-35.54-15.05-36.74-34.55-.6-9.82,2.65-19.29,9.17-26.65,6.52-7.36,15.51-11.75,25.34-12.36,3.87-.25,7.71.13,11.4,1.1,1.89.49,3.42,1.88,4.11,3.71s.43,3.89-.68,5.5c-.78,1.14-1.69,3.01-1.54,5.46.14,2.32,1.18,4.45,2.92,5.99,1.74,1.54,3.98,2.33,6.28,2.16,1.85-.11,3.6-.8,5.04-1.99,1.51-1.24,3.54-1.67,5.43-1.14,1.89.53,3.4,1.95,4.04,3.8,1.12,3.21,1.79,6.53,2,9.88.6,9.82-2.65,19.28-9.17,26.65-6.51,7.36-15.5,11.75-25.31,12.36-.77.05-1.53.07-2.29.07ZM300,439.6c-.27,0-.54.02-.81.04-6.63.41-12.69,3.36-17.08,8.33s-6.59,11.34-6.18,17.96c.84,13.66,12.68,24.13,26.32,23.24,6.61-.41,12.67-3.36,17.06-8.33,4.37-4.94,6.56-11.28,6.18-17.86-1.23.31-2.51.51-3.8.59-5.48.36-10.83-1.49-14.97-5.16-4.14-3.66-6.61-8.72-6.95-14.24-.09-1.52-.01-3.06.23-4.56Z"/>
  <path class="st0" d="M20.9,400.75c-3.14,0-6.26-.85-9.01-2.53-4.81-2.94-7.9-8.06-8.26-13.69L.12,329.74H.12c-.45-7.08,3.38-13.64,9.76-16.71,38.17-18.36,173.96-78.98,318.8-88.28,87.9-5.63,156.72,32.8,199.01,66.04,45.68,35.9,70.36,72.62,71.39,74.17,1.68,2.53,1.21,5.91-1.1,7.89-2.31,1.98-5.73,1.91-7.96-.14-51.05-46.9-151.11-91.77-250.18-79.48-88.89,11.05-261.31,83.99-312.04,106.09-2.21.96-4.56,1.44-6.91,1.44ZM12.09,328.97l3.51,54.79c.11,1.76,1.04,3.3,2.54,4.21,1.49.91,3.27,1.03,4.87.34,51.1-22.26,224.86-95.75,315.35-107,80.17-9.95,160.98,16.16,217.83,51.23-9.97-10.21-22.1-21.48-36.23-32.56-40.6-31.83-106.58-68.67-190.52-63.25-146.35,9.39-287.54,74.21-314.36,87.11-1.95.94-3.12,2.95-2.98,5.13h0Z"/>
  <path class="st0" d="M18.15,290.71c-2.84-.03-5.13-2.37-5.11-5.21h0c.05-2.87,2.4-5.14,5.24-5.11h0c2.86.05,5.13,2.37,5.11,5.24h0c-.05,2.81-2.35,5.08-5.16,5.08h-.08ZM30.46,281.67c-1.01-2.66.31-5.65,2.97-6.68h0c2.66-1.01,5.65.31,6.68,2.97h0c1.01,2.68-.31,5.65-2.97,6.68h0c-.62.23-1.24.34-1.86.34h0c-2.06,0-4.03-1.27-4.83-3.3ZM585.65,281.34c-1.58-2.37-.9-5.57,1.47-7.15h0c2.37-1.58,5.57-.9,7.15,1.47h0c1.57,2.38.9,5.57-1.47,7.15h0c-.88.57-1.86.85-2.84.85h0c-1.68,0-3.33-.83-4.31-2.32ZM1.9,273.93c-.08-2.84,2.17-5.21,5.01-5.29h0c2.86-.08,5.24,2.17,5.29,5.03h0c.08,2.84-2.17,5.21-5.01,5.29h-.13c-2.81,0-5.11-2.22-5.16-5.03ZM47.37,275.2c-1.01-2.66.34-5.65,3.02-6.66h0c2.66-1.01,5.63.34,6.66,3.02h0c1.01,2.66-.36,5.65-3.02,6.66h0c-.59.21-1.21.34-1.83.34h0c-2.09,0-4.05-1.29-4.83-3.35ZM577.41,275.04c-2.06-1.78-2.37-4.83-.8-6.97h0c-.49-.31-.93-.72-1.29-1.21h0v.03h0c-1.73-2.27-1.29-5.52.98-7.25h0c2.27-1.73,5.5-1.29,7.23.98h0c1.42,1.86,1.37,4.38.05,6.17h0c.21.13.39.28.57.44h0c2.17,1.86,2.4,5.11.54,7.28h0c-1.03,1.19-2.48,1.78-3.92,1.78h0c-1.19,0-2.37-.41-3.35-1.24ZM64.32,268.85c-1.01-2.68.36-5.65,3.05-6.63h0v-.03h0c2.66-.98,5.62.39,6.63,3.05h0c.98,2.68-.39,5.65-3.04,6.66h0c-.59.21-1.21.31-1.81.31h0c-2.09,0-4.08-1.29-4.83-3.35ZM81.27,262.58c-.96-2.68.41-5.65,3.1-6.61h0c2.68-.98,5.63.41,6.61,3.07h0c.98,2.68-.41,5.65-3.07,6.63h0c-.59.21-1.19.31-1.78.31h0c-2.09,0-4.08-1.32-4.85-3.4ZM563.61,263.9c-2.27-1.7-2.71-4.95-1.01-7.23h0c1.01-1.34,2.58-2.06,4.16-2.04h0c-.98-.28-1.89-.83-2.61-1.68h0c-1.83-2.17-1.55-5.42.62-7.25h0c2.17-1.86,5.45-1.58,7.28.59h0c1.83,2.19,1.58,5.45-.62,7.28h0c-.98.83-2.17,1.24-3.35,1.21h0c.62.18,1.21.47,1.75.88h0c2.27,1.7,2.74,4.96,1.01,7.23h0c-1.01,1.34-2.56,2.06-4.13,2.06h0c-1.08,0-2.17-.36-3.09-1.06ZM1.43,255.87c-.08-2.84,2.17-5.21,5.03-5.29h0c2.84-.08,5.21,2.19,5.29,5.03h0c.05,2.84-2.19,5.21-5.03,5.29h-.13c-2.79,0-5.08-2.22-5.16-5.03ZM98.28,256.41c-.96-2.68.46-5.62,3.15-6.58h0c2.68-.96,5.63.44,6.58,3.12h0c.96,2.68-.44,5.65-3.12,6.61h0c-.57.18-1.16.28-1.73.28h0c-2.12,0-4.1-1.32-4.88-3.43ZM549.13,253.6h0c-2.37-1.57-3.02-4.77-1.42-7.15h0c1.57-2.37,4.77-2.99,7.15-1.42h0c2.37,1.57,2.99,4.8,1.42,7.15h0c-1.01,1.5-2.63,2.3-4.31,2.3h0c-.98,0-1.96-.28-2.84-.88ZM115.34,250.37c-.93-2.68.49-5.62,3.17-6.58h0c2.68-.93,5.63.49,6.58,3.18h0c.93,2.68-.49,5.65-3.17,6.58h0c-.57.18-1.14.28-1.7.28h0c-2.14,0-4.13-1.34-4.88-3.46ZM132.42,244.44c-.93-2.71.52-5.62,3.23-6.55h0c2.68-.93,5.63.52,6.55,3.23h0c.9,2.68-.52,5.62-3.23,6.55h0c-.54.18-1.11.28-1.65.28h0c-2.17,0-4.15-1.37-4.9-3.51ZM534.06,244.1c-2.45-1.47-3.25-4.62-1.78-7.07h0c1.47-2.45,4.62-3.25,7.07-1.78h0c2.45,1.44,3.25,4.62,1.81,7.07h0c-.98,1.6-2.68,2.5-4.47,2.5h0c-.88,0-1.81-.23-2.63-.72ZM.97,237.81c-.08-2.84,2.19-5.21,5.03-5.29h0c2.84-.05,5.21,2.19,5.29,5.03h0c.08,2.87-2.17,5.21-5.03,5.29h-.13c-2.79,0-5.08-2.22-5.16-5.03ZM149.56,238.63c-.9-2.71.57-5.62,3.28-6.53h0c2.68-.9,5.6.54,6.5,3.25h0c.9,2.71-.54,5.65-3.25,6.53h0c-.54.18-1.08.28-1.63.28h0c-2.17,0-4.18-1.37-4.9-3.54ZM552.3,239.61h0c-1.94-2.09-1.8-5.34.28-7.3h0c2.09-1.94,5.34-1.81,7.3.28h0c1.94,2.09,1.81,5.34-.28,7.28h0c-.98.93-2.24,1.39-3.51,1.39h0c-1.39,0-2.76-.57-3.8-1.65ZM166.74,232.95c-.9-2.71.59-5.62,3.3-6.5h0c2.71-.88,5.62.59,6.5,3.33h0c.88,2.71-.62,5.6-3.33,6.48h0c-.52.18-1.06.26-1.57.26h0c-2.19,0-4.21-1.39-4.9-3.56ZM518.55,235.36v.03c-2.53-1.34-3.49-4.47-2.14-6.99h0c1.34-2.53,4.46-3.49,6.97-2.14h0c2.53,1.34,3.49,4.46,2.14,6.99h0c-.93,1.73-2.71,2.73-4.54,2.73h0c-.83,0-1.65-.21-2.42-.62ZM183.93,227.43c-.85-2.74.67-5.62,3.38-6.48h0c2.74-.85,5.63.67,6.48,3.38h0c.85,2.71-.67,5.62-3.38,6.45v.03c-.52.16-1.03.23-1.55.23h0c-2.19,0-4.23-1.42-4.93-3.61ZM539.87,226.84c-2.04-1.99-2.06-5.26-.08-7.3h0c1.99-2.04,5.26-2.06,7.3-.08h0c2.04,1.99,2.06,5.26.08,7.3h0c-1.01,1.03-2.35,1.55-3.69,1.55h0c-1.32,0-2.61-.49-3.61-1.47ZM502.6,227.41v-.03c-2.58-1.21-3.69-4.28-2.48-6.86h0c1.24-2.58,4.31-3.69,6.89-2.45h0v-.03h0c2.58,1.21,3.69,4.31,2.48,6.89h0c-.9,1.86-2.76,2.97-4.69,2.97h0c-.72,0-1.47-.18-2.19-.49ZM201.22,222.04c-.83-2.71.72-5.6,3.46-6.43h0c2.71-.83,5.6.72,6.42,3.46h0c.83,2.71-.72,5.6-3.46,6.43h0c-.49.15-1.01.21-1.5.21h0c-2.22,0-4.26-1.42-4.93-3.66ZM.53,219.77c-.03-.34,0-.65.05-.96h0c-.03-.34-.03-.67,0-1.01h0c.26-2.84,2.76-4.93,5.6-4.64h0c2.84.26,4.93,2.76,4.67,5.6h0c0,.13-.03.23-.05.34h0c.03.13.03.28.03.41h0c.08,2.84-2.17,5.21-5.03,5.29h-.13c-2.79,0-5.08-2.24-5.13-5.03ZM218.53,216.85c-.77-2.74.8-5.6,3.53-6.38h0c2.74-.8,5.6.77,6.4,3.51h0c.77,2.73-.8,5.6-3.53,6.4h0c-.49.13-.96.21-1.45.21h0c-2.22,0-4.28-1.47-4.95-3.74ZM486.32,220.21c-2.66-1.11-3.9-4.13-2.81-6.76h0c1.08-2.63,4.1-3.87,6.73-2.79h0c2.63,1.08,3.9,4.1,2.81,6.74h0c-.82,1.99-2.76,3.2-4.77,3.2h0c-.67,0-1.32-.13-1.96-.39ZM526.81,214.68h0c-2.11-1.88-2.32-5.16-.44-7.3h0c1.91-2.11,5.16-2.32,7.3-.41h0c2.14,1.88,2.32,5.13.44,7.28h0c-1.03,1.16-2.45,1.73-3.87,1.73h0c-1.21,0-2.42-.41-3.43-1.29ZM235.93,211.9c-.75-2.76.88-5.6,3.61-6.35h0c2.76-.75,5.6.88,6.35,3.61h0c.75,2.76-.85,5.6-3.61,6.35h0c-.46.13-.9.18-1.37.18h0c-2.27,0-4.34-1.5-4.98-3.8ZM469.67,213.81c-2.68-.96-4.08-3.92-3.12-6.61h0c.96-2.68,3.92-4.08,6.61-3.12h0c2.68.96,4.08,3.92,3.12,6.61h0c-.75,2.09-2.73,3.41-4.88,3.41h0c-.57,0-1.16-.08-1.73-.28ZM13.22,208.62c-1.11-2.63.1-5.65,2.74-6.76h0c2.63-1.11,5.65.1,6.76,2.74h0c1.11,2.63-.1,5.65-2.73,6.76h0c-.67.28-1.34.41-2.01.41h0c-2.01,0-3.92-1.19-4.75-3.15ZM253.4,207.18c-.72-2.76.96-5.57,3.72-6.3h0c2.76-.7,5.57.98,6.27,3.74h0c.72,2.76-.96,5.57-3.72,6.27h0c-.44.1-.85.16-1.29.16h0c-2.3,0-4.39-1.55-4.98-3.87ZM452.77,208.26h0c-2.74-.83-4.28-3.72-3.46-6.45h0c.82-2.74,3.69-4.26,6.42-3.46h0c2.74.83,4.28,3.72,3.46,6.45h0c-.67,2.22-2.71,3.67-4.93,3.67h0c-.49,0-1.01-.08-1.5-.21ZM270.95,202.76c-.67-2.78,1.06-5.55,3.82-6.22h0c2.79-.65,5.57,1.08,6.22,3.87h0c.65,2.76-1.08,5.55-3.84,6.19h0c-.39.1-.8.13-1.19.13h0c-2.35,0-4.46-1.6-5.01-3.97ZM29.92,201.65c-1.06-2.63.23-5.65,2.89-6.68h0c2.66-1.06,5.65.23,6.68,2.87h0c1.06,2.66-.23,5.68-2.89,6.71h.03c-.65.26-1.29.36-1.91.36h0c-2.07,0-4-1.21-4.8-3.25ZM513.21,203.2h0c-2.22-1.78-2.58-5.03-.8-7.25h0c1.76-2.25,5.01-2.58,7.25-.8h0c2.22,1.78,2.58,5.03.8,7.25h0c-1.03,1.27-2.53,1.94-4.05,1.94h0c-1.11,0-2.27-.39-3.2-1.13ZM435.61,203.56h-.03c-2.76-.67-4.47-3.46-3.77-6.24h0c.67-2.76,3.46-4.47,6.22-3.77h0c2.79.67,4.46,3.46,3.79,6.22h0c-.57,2.37-2.68,3.95-5.01,3.95h0c-.39,0-.8-.05-1.21-.15ZM288.57,198.71c-.59-2.79,1.21-5.52,4-6.12h0c2.79-.57,5.52,1.21,6.12,4.02h0c.57,2.79-1.24,5.5-4.03,6.09h0c-.34.08-.7.1-1.06.1h0c-2.37,0-4.54-1.68-5.03-4.1ZM418.22,199.82c-2.81-.54-4.64-3.23-4.13-6.04h0c.54-2.79,3.23-4.64,6.04-4.1h0c2.79.52,4.64,3.23,4.1,6.01h0c-.46,2.48-2.63,4.21-5.06,4.21h0c-.31,0-.65-.03-.96-.08ZM306.3,195.15c-.49-2.81,1.39-5.5,4.21-5.99h0c2.79-.49,5.47,1.39,5.96,4.21h0c.49,2.81-1.39,5.5-4.21,5.99h0c-.28.05-.59.05-.88.05h0c-2.48,0-4.64-1.75-5.08-4.26ZM46.75,195.05c-1.01-2.66.36-5.63,3.02-6.63h0c2.66-1.01,5.65.34,6.66,3.02h0c.98,2.66-.36,5.62-3.04,6.63h0c-.59.23-1.19.34-1.81.34h0c-2.09,0-4.05-1.27-4.83-3.35ZM400.67,197.03h0c-2.84-.36-4.83-2.97-4.46-5.78h0c.36-2.84,2.97-4.82,5.78-4.46h0c2.84.36,4.83,2.97,4.47,5.78h0c-.34,2.61-2.56,4.52-5.11,4.52h0c-.23,0-.44-.03-.67-.05ZM324.13,192.21c-.34-2.84,1.68-5.42,4.49-5.75h0c2.84-.36,5.42,1.65,5.76,4.46h0c.36,2.84-1.65,5.42-4.47,5.78h0c-.23.03-.44.03-.65.03h0c-2.58,0-4.8-1.91-5.14-4.52ZM382.99,195.28c-2.84-.21-4.98-2.66-4.8-5.5h0c.21-2.87,2.66-5.01,5.52-4.8h0c2.84.18,4.98,2.66,4.8,5.5h0c-.21,2.74-2.45,4.8-5.16,4.8h-.36ZM342.09,190.22c-.15-2.87,2.01-5.32,4.85-5.47h0c2.84-.15,5.29,2.01,5.47,4.85h0c.16,2.84-2.01,5.29-4.85,5.47h-.31c-2.73,0-4.98-2.12-5.16-4.85ZM365.26,194.61h0c-2.84-.03-5.14-2.35-5.11-5.21h0c0-2.84,2.35-5.14,5.19-5.11h0c2.84.03,5.13,2.32,5.13,5.19h0c-.03,2.84-2.32,5.14-5.16,5.14h-.05ZM499.02,192.41c-2.32-1.65-2.84-4.88-1.19-7.2h0c1.68-2.3,4.9-2.84,7.23-1.16h0c2.3,1.65,2.81,4.88,1.16,7.2h0c-1.01,1.39-2.58,2.14-4.18,2.14h0c-1.06,0-2.12-.31-3.02-.98ZM63.7,188.77c-.96-2.68.44-5.65,3.12-6.61h0c2.68-.96,5.65.46,6.61,3.15h0c.95,2.68-.46,5.63-3.15,6.58h0c-.57.21-1.14.31-1.7.31h0c-2.14,0-4.13-1.32-4.88-3.43ZM80.76,182.76c-.9-2.68.54-5.62,3.25-6.53h0c2.68-.9,5.63.54,6.53,3.25h0c.9,2.68-.54,5.62-3.25,6.53h0c-.54.18-1.08.28-1.65.28h0c-2.14,0-4.16-1.37-4.88-3.54ZM484.31,182.45c-2.42-1.52-3.12-4.72-1.6-7.12h0c1.55-2.4,4.72-3.12,7.15-1.57h0c2.4,1.52,3.09,4.72,1.57,7.12h0c-1.01,1.55-2.66,2.37-4.36,2.37h0c-.96,0-1.91-.26-2.76-.8ZM97.92,177.06c-.88-2.71.62-5.6,3.36-6.48h0c2.71-.85,5.62.65,6.48,3.35h0c.85,2.71-.65,5.63-3.35,6.48h0c-.52.18-1.06.26-1.58.26h0c-2.19,0-4.21-1.42-4.9-3.61ZM115.16,171.67c-.83-2.73.75-5.62,3.46-6.42h0c2.74-.83,5.63.72,6.43,3.46h0c.83,2.73-.72,5.6-3.46,6.42h0c-.49.16-.98.21-1.47.21h0c-2.25,0-4.28-1.42-4.95-3.66ZM469.05,173.32v.03h0c-2.5-1.39-3.38-4.54-1.99-7.05h0c1.37-2.48,4.52-3.35,7.02-1.99h0c2.48,1.39,3.35,4.54,1.99,7.04h0c-.96,1.68-2.71,2.63-4.52,2.63h0c-.85,0-1.73-.21-2.5-.67ZM132.5,166.56c-.77-2.76.83-5.6,3.59-6.38h0c2.74-.77,5.57.83,6.35,3.59h0c.77,2.73-.83,5.57-3.59,6.35h0c-.46.13-.93.21-1.39.21h0c-2.25,0-4.31-1.5-4.96-3.77ZM453.29,165.14h0c-2.56-1.24-3.64-4.31-2.4-6.89h0c1.24-2.55,4.31-3.64,6.89-2.4h0c2.56,1.24,3.64,4.31,2.4,6.89h0c-.88,1.83-2.74,2.92-4.65,2.92h0c-.75,0-1.52-.18-2.24-.51ZM149.92,161.73c-.72-2.76.93-5.57,3.69-6.3h0c2.76-.72,5.57.93,6.3,3.69h0c.72,2.76-.93,5.57-3.69,6.3h0c-.44.13-.88.18-1.32.18h0c-2.27,0-4.36-1.55-4.98-3.87ZM167.44,157.24c-.67-2.79,1.03-5.57,3.79-6.22v-.03c2.79-.67,5.55,1.03,6.22,3.82h0c.67,2.76-1.03,5.55-3.79,6.22h0c-.41.1-.83.16-1.21.16h0c-2.32,0-4.44-1.6-5.01-3.95ZM437.08,157.94c-2.63-1.06-3.9-4.08-2.84-6.71h0c1.09-2.66,4.08-3.92,6.74-2.84h0c2.63,1.06,3.9,4.08,2.84,6.71h0c-.83,2.01-2.76,3.23-4.8,3.23h0c-.65,0-1.29-.13-1.94-.39ZM185.01,153.06c-.62-2.79,1.14-5.52,3.92-6.14h0c2.79-.62,5.55,1.14,6.17,3.92h0c.59,2.79-1.14,5.52-3.92,6.14h0c-.39.08-.75.13-1.14.13h0c-2.37,0-4.49-1.65-5.03-4.05ZM202.69,149.24c-.57-2.81,1.24-5.52,4.05-6.09h0c2.79-.54,5.5,1.27,6.06,4.05h0c.57,2.79-1.26,5.52-4.05,6.09h0c-.34.05-.67.1-1.01.1h0c-2.43,0-4.57-1.7-5.06-4.15ZM420.46,151.82c-2.71-.9-4.18-3.82-3.28-6.53h0c.9-2.71,3.82-4.18,6.53-3.28h0c2.71.9,4.15,3.82,3.28,6.53h0c-.72,2.17-2.73,3.54-4.9,3.54h0c-.54,0-1.08-.08-1.63-.26ZM220.42,145.76c-.49-2.79,1.37-5.47,4.18-5.99h0c2.79-.49,5.47,1.37,5.99,4.18h0c.49,2.81-1.37,5.5-4.18,5.99h0c-.31.05-.62.08-.9.08h0c-2.45,0-4.64-1.75-5.08-4.26ZM238.22,142.66c-.44-2.81,1.5-5.45,4.31-5.88h0c2.81-.44,5.44,1.5,5.88,4.31h0c.44,2.81-1.47,5.45-4.28,5.88h0c-.28.05-.54.08-.83.08h0c-2.48,0-4.7-1.83-5.08-4.38ZM403.48,146.82c-2.76-.72-4.41-3.54-3.71-6.3h0c.72-2.76,3.54-4.41,6.3-3.69h0c2.76.7,4.41,3.51,3.72,6.27h0c-.62,2.32-2.71,3.87-5.01,3.87h0c-.44,0-.85-.05-1.29-.16ZM256.11,139.98c-.39-2.84,1.6-5.42,4.41-5.81h0c2.84-.36,5.44,1.63,5.81,4.44h0c.36,2.84-1.6,5.42-4.44,5.81h0c-.23.03-.46.05-.67.05h0c-2.56,0-4.77-1.91-5.11-4.49ZM386.19,142.97h.03c-2.81-.51-4.67-3.23-4.13-6.01h0c.52-2.81,3.2-4.64,6.01-4.13h0c2.81.52,4.65,3.2,4.13,6.01h0c-.47,2.48-2.63,4.21-5.09,4.21h0c-.31,0-.62-.03-.95-.08ZM274.02,137.68c-.31-2.81,1.75-5.37,4.59-5.68h0c2.84-.28,5.37,1.76,5.68,4.59h0c.31,2.84-1.76,5.37-4.59,5.68h0c-.18.03-.36.03-.54.03h0c-2.61,0-4.85-1.96-5.13-4.62ZM292,135.85c-.23-2.84,1.88-5.31,4.72-5.55h0c2.84-.23,5.34,1.88,5.57,4.72h0c.23,2.84-1.88,5.34-4.75,5.57h-.41c-2.66,0-4.9-2.04-5.14-4.75ZM368.72,140.34c-2.84-.34-4.88-2.89-4.54-5.73h0c.34-2.84,2.89-4.85,5.73-4.54v.03c2.84.31,4.85,2.86,4.54,5.7h0c-.31,2.63-2.55,4.57-5.13,4.57h0c-.21,0-.39,0-.59-.03ZM310.04,134.51c-.15-2.84,2.04-5.29,4.88-5.42h0c2.84-.15,5.29,2.01,5.44,4.88h0c.13,2.84-2.04,5.26-4.9,5.42h-.26c-2.73,0-5-2.12-5.16-4.88ZM351.1,138.92c-2.86-.16-5.06-2.56-4.93-5.39h0c.13-2.87,2.56-5.06,5.4-4.93h0c2.86.13,5.06,2.55,4.93,5.39h0c-.13,2.76-2.42,4.93-5.16,4.93h-.23ZM328.1,133.66c-.05-2.87,2.19-5.21,5.06-5.29h0c2.84-.05,5.21,2.19,5.26,5.06h0c.08,2.84-2.19,5.21-5.03,5.26h-.13c-2.79,0-5.08-2.22-5.16-5.03Z"/>
  <g>
    <path class="st0" d="M125.22,134.09c-2.15,0-3.89-1.74-3.89-3.89v-37.27c0-2.15,1.74-3.89,3.89-3.89s3.89,1.74,3.89,3.89v37.27c0,2.15-1.74,3.89-3.89,3.89Z"/>
    <path class="st0" d="M107.55,110.17c-.89,0-1.79-.3-2.52-.93-1.64-1.39-1.83-3.85-.44-5.49l17.58-20.64c1.48-1.74,4.45-1.74,5.93,0l17.58,20.64c1.39,1.64,1.2,4.09-.44,5.49-1.63,1.39-4.09,1.2-5.49-.44l-14.62-17.16-14.62,17.16c-.77.9-1.86,1.37-2.96,1.37Z"/>
  </g>
  <g>
    <path class="st0" d="M290.37,91.16c-2.15,0-3.89-1.74-3.89-3.89v-37.27c0-2.15,1.74-3.89,3.89-3.89s3.89,1.74,3.89,3.89v37.27c0,2.15-1.74,3.89-3.89,3.89Z"/>
    <path class="st0" d="M307.86,67.24c-1.1,0-2.19-.46-2.97-1.37l-14.62-17.16-14.62,17.16c-1.4,1.64-3.85,1.83-5.49.44-1.64-1.39-1.83-3.85-.44-5.49l17.58-20.64c.74-.87,1.82-1.37,2.96-1.37h0c1.14,0,2.22.5,2.96,1.37l17.58,20.64c1.39,1.64,1.2,4.09-.44,5.49-.73.62-1.63.93-2.52.93Z"/>
  </g>
  <g>
    <path class="st0" d="M467.82,135.73c-2.15,0-3.89-1.74-3.89-3.89v-37.27c0-2.15,1.74-3.89,3.89-3.89s3.89,1.74,3.89,3.89v37.27c0,2.15-1.74,3.89-3.89,3.89Z"/>
    <path class="st0" d="M485.31,111.81c-1.1,0-2.19-.46-2.97-1.37l-14.62-17.16-14.62,17.16c-1.4,1.64-3.85,1.83-5.49.44-1.64-1.39-1.83-3.85-.44-5.49l17.58-20.64c1.48-1.74,4.45-1.74,5.93,0l17.58,20.64c1.39,1.64,1.2,4.09-.44,5.49-.73.62-1.63.93-2.52.93Z"/>
  </g>
  <path class="st0" d="M79.93,473.31c-1.07,0-2.16-.31-3.11-.96-2.54-1.72-3.21-5.18-1.49-7.72,3.62-5.34,90.08-130.97,220.52-140.4,78.28-5.66,155.15,32.23,228.47,112.64,2.07,2.27,1.91,5.78-.36,7.85-2.27,2.07-5.78,1.91-7.85-.36-70.91-77.75-144.75-114.43-219.46-109.04-125.12,9.04-211.27,134.29-212.12,135.55-1.07,1.59-2.83,2.44-4.61,2.44Z"/>
  <path class="st0" d="M434.92,525.16c-1.49,0-2.98-.59-4.07-1.77-2.09-2.25-1.96-5.77.29-7.86,53.84-50.02,16.03-107.7,14.39-110.13-1.71-2.54-1.04-6,1.5-7.71,2.55-1.72,5.99-1.05,7.71,1.48.45.67,44.87,67.91-16.04,124.5-1.07.99-2.43,1.48-3.78,1.48Z"/>
</svg>