<?xml version="1.0" encoding="UTF-8"?>
<svg id="Layer_1" xmlns="http://www.w3.org/2000/svg" version="1.1" viewBox="0 0 600 600">
  <!-- Generator: Adobe Illustrator 29.5.1, SVG Export Plug-In . SVG Version: 2.1.0 Build 141)  -->
  <defs>
    <style>
      .st0 {
        fill: #191919;
      }
    </style>
  </defs>
  <path class="st0" d="M360.66,600c-2.38,0-4.59-1.06-6.08-2.91-1.52-1.89-2.1-4.35-1.57-6.74,7.19-32.93,22.69-49.95,47.4-52.04,1.43-.12,3.02-.18,4.72-.18,7.56,0,16.72,1.16,26.42,2.39,10.59,1.34,21.54,2.73,31.42,2.73,11.24,0,19.37-1.86,24.85-5.69,12.42-8.64,11.29-21.21,10.19-33.36-.74-8.22-1.51-16.72,1.79-24.19l.35-.8-.74-.46c-2.16-1.33-4.37-2.55-6.5-3.74-4.27-2.37-8.31-4.6-12.1-7.68-2.12-1.74-4.43-4.13-6.67-6.45-1.85-1.92-3.77-3.91-5.6-5.54-1.06-.95-2.22-1.65-3.34-2.33-2.24-1.37-4.17-2.55-4.71-5.32-1.06-5.37,4.11-6.91,11.52-8.48,2.27-.48,4.41-.94,5.99-1.62,3.68-1.6,7.54-4.34,11.63-7.24,3.69-2.62,7.51-5.33,11.06-7.02,2.52-1.21,5.25-2.09,7.9-2.94,1.63-.52,3.31-1.06,4.94-1.68l.74-.28-.1-.79c-.21-1.6-.45-3.12-.68-4.57-1.22-7.63-2.1-13.15,3.03-20.37,4.65-6.56,10.48-8.59,16.13-10.56,3.98-1.39,7.73-2.7,10.97-5.45,6.91-5.9,4.58-10.05,1.36-15.79-4.37-7.82-9.98-15.55-15.4-23.03-11.93-16.44-24.27-33.45-25.75-53.88-.74-10.34.85-20.68,2.38-30.67,1.51-9.87,3.08-20.09,2.51-30.58-1.37-25.45-9.75-52.6-24.91-80.7l-.28-.53h-.6c-2.92,0-4.61,3.77-5.96,6.8-.47,1.04-.91,2.02-1.28,2.56-27.31,40.11-58.71,51.81-98.45,66.62-5.16,1.92-10.49,3.91-15.98,6.02-9.95,3.82-13.33,10.24-17.23,17.68-1.46,2.79-2.98,5.67-4.95,8.63-16.08,24.33-36.86,49.44-69.09,51.23-1.49.08-2.79.12-3.98.12-8.73,0-10.09-1.97-13.39-6.72-1.27-1.83-2.85-4.1-5.19-6.74-9.95-11.2-26.63-22.5-41.47-22.5-9.38,0-16.89,4.37-22.3,12.99-12.44,19.8-4.36,50.33,8.41,70.33,4.83,7.62,21.11,29.7,32.2,31.19.97.13,1.92.19,2.84.19,5.2,0,8.69-2.09,11.5-3.77,1.97-1.18,3.67-2.2,5.45-2.2.16,0,.32,0,.49.02,2.58.27,4.79,1.99,5.76,4.49,1,2.57.47,5.39-1.42,7.53-5.47,6.17-13.27,9.58-21.97,9.58-4.5,0-9-.88-13.39-2.63-1.6-.63-3.01-1.55-4.37-2.43-2-1.3-4.07-2.64-6.61-2.95l-1.17-.14.04,1.17c.61,16.04-3.7,34.12-12.15,50.9-8.71,17.33-20.82,29.15-37.54,42.61l-.44.36.08.56c.49,3.64,1.31,7.24,2.1,10.73.89,3.93,1.81,8,2.26,12.09,3.26,29.9-4.36,64.67-11.32,88.58-.96,3.29-4.06,5.59-7.54,5.59-2.53,0-4.83-1.17-6.31-3.2-1.5-2.05-1.91-4.61-1.14-7.04,6.27-19.72,9.83-38.6,10.88-57.71,2.48-45.63-16.16-67.19-37.73-92.16-8.27-9.57-16.81-19.46-25.14-31.58-31.47-45.85-45.82-101.55-41.51-161.08,4.1-56.68,25.4-112.26,59.95-156.51C140.88,33.07,212.96,0,293.59,0c40.49,0,80.85,8.68,116.71,25.09,2.8,1.28,5.6,2.93,8.3,4.53,4.13,2.44,8.4,4.97,13,6.39,7.07,2.17,13.48,3.64,19.68,5.07,14.3,3.29,26.65,6.14,41.86,16.13,17.73,11.65,30.83,29.32,37.9,51.08,6.7,20.61,7.29,43.45,1.67,64.29-1.13,4.26-2.9,8.41-4.61,12.42-2.99,7-6.07,14.24-5.82,22.22.15,4.54.61,9.08,1.06,13.47.71,6.95,1.45,14.13.93,21.43-.41,5.6-1.49,10.74-2.54,15.7-1.68,7.98-3.41,16.22-2.25,26.19,1.82,15.92,13.88,32.13,25.55,47.81,6.44,8.66,12.52,16.84,16.4,24.4,3.44,6.72,4.28,12.92,2.48,18.41-2.37,7.24-9.33,13.66-21.27,19.65-1.68.85-3.54,1.48-5.35,2.08-6.02,2.02-12.25,4.12-9.18,14.35,1.11,3.71,2.76,6.24,4.21,8.46,2.48,3.8,4.62,7.08,3.49,15.29-.65,4.66-5.16,10.08-7.59,12.99-1.4,1.68-1.77,2.14-1.82,2.67-.03.59.26,1.26,1.09,3.13,1.39,3.13,3.72,8.38,3.47,12.35-.5,7.82-3.98,10.46-8.39,13.8-1.96,1.49-3.99,3.02-5.93,5.16-5.67,6.22-4.4,13.28-3.16,20.12.46,2.57.95,5.23,1.05,7.82.8,19.36-6.98,33.62-22.48,41.24-7.17,3.53-15.81,5.25-26.42,5.25h0c-9.91,0-20.21-1.46-30.16-2.87-7.23-1.02-14.06-1.99-20.52-2.39-1.91-.11-3.77-.17-5.52-.17-30.48,0-34.51,18.22-39.18,39.31-.73,4.15-4.33,7.12-8.56,7.12h-1.06ZM484.41,454.43c-.44,1.89.5,2.72,1.25,3.39.16.14.32.28.49.45,3.09,3.05,16.13,11.87,24.03,11.87,3.92,0,6.2-2.2,6.42-6.2.21-3.28-2.6-9.44-6.19-10.25-1.46-.34-3.27-.5-5.53-.5-2.43,0-5.11.19-7.71.37-2.57.18-5.22.37-7.59.37-1.59,0-2.91-.08-4.04-.25l-.91-.14-.21.9ZM294.82,15.16c-60.62,0-118.2,21.64-162.11,60.94-79.87,71.5-106.03,208.12-57.12,298.33,10.04,18.56,22.87,33.68,35.28,48.3,8.45,9.96,17.19,20.27,25.01,31.59.57.81,1.76,3.05,2.92,5.22,2.42,4.54,3.16,5.83,3.7,6.2.31.21.67.3,1.07.3.61,0,2.48,0,9.36-5.78,19.95-16.68,32.34-42.97,33.99-72.15.98-17.1-3.26-23.51-8.62-31.63-2.75-4.16-5.86-8.88-8.65-15.82-7.56-18.78-11.29-48.18-1.59-68.33,4.92-10.23,12.75-17.01,23.27-20.16,3.97-1.18,8.28-1.78,12.8-1.78,18.45,0,40.64,10.48,53.95,25.48.95,1.07,2.65,3.87,3.89,5.92,1.7,2.8,1.96,3.18,2.33,3.4.5.32,1.32.47,2.63.47,1.92,0,4.26-.33,4.93-.43,26.2-3.9,48.07-30.88,58.84-52.8l.33-.68-.56-.51c-.35-.32-.87-.44-1.84-.44-3.68,0-14.57,1.9-24.18,3.58-6.7,1.17-13.03,2.28-15.08,2.4-.95.06-2.06.11-3.14.11-5.45,0-8.14-1.56-9.28-5.39-.73-2.41-.58-4.47.44-6.14,1.17-1.91,3.54-3.28,6.67-3.84,5.63-1.03,11.76-1.63,17.69-2.22,5.88-.58,11.95-1.18,17.74-2.2,53.82-9.51,120.33-35.07,145.57-78.29,1.27-2.17,2.54-5.31,3.89-8.63,2.31-5.71,4.94-12.17,7.78-14.08,1.38-.94,2.97-1.43,4.6-1.43,2.53,0,4.96,1.18,6.66,3.23,7.74,9.33,18.98,34.63,23.21,45.42.21.55.38,1.4.56,2.31.49,2.46,1.1,5.52,3.45,5.52.57,0,1.16-.2,1.79-.6,1.71-1.17,4.39-18.95,4.45-19.67,2.23-29.18-8.96-57.16-29.95-74.85-10.77-9.07-26.8-17.15-40.83-20.58-3.42-.84-7.33-1.39-11.47-1.98-6.04-.85-12.29-1.74-16.79-3.58-2.42-.98-5.24-2.79-8.21-4.71-2.59-1.67-5.27-3.4-7.74-4.58-34.71-16.65-73.29-25.44-111.59-25.44ZM518.47,429.26c-2.63,0-4.76.24-6.91.77-1.14.26-16.7,7.09-17.69,10.94-.17.68.02,1.34.54,1.8l.29.25h15.49c2.1,0,9.21-4.82,11.55-8.77,1-1.69,1.16-3.17.49-4.4l-.27-.5-.57-.02c-1-.04-1.97-.07-2.92-.07Z"/>
  <path class="st0" d="M460.41,314.37c-4.71,0-9.97-4.16-10.92-12.11-.08-.64.04-1.77.15-2.87.29-2.89.59-5.87-1.58-6.18-.13-.02-.27-.03-.42-.03-2.03,0-6.22,1.85-11.07,4-4.9,2.17-10.45,4.63-13.08,4.73h-.12c-2.24,0-5.76-2.33-6.07-4.51-.61-4.29,3.88-7.06,7.86-8.99,7.72-3.75,16.8-6.51,25.59-9.18,8.1-2.46,16.48-5.01,23.89-8.35.34-.08.69-.12,1.04-.12,1.52,0,3.05.79,4.19,2.16,1.2,1.43,1.74,3.23,1.45,4.82-.78,4.28-7.98,6.94-11.68,7.75l-1.01.22.25,1c1.49,5.98,2.67,10.7,1.46,17.06-1.49,7.8-6.1,10.59-9.92,10.59Z"/>
  <path class="st0" d="M406.51,256.8c-2.25,0-4.17-1.2-5.01-3.14-.9-2.09-.35-4.49,1.47-6.41,6.4-6.77,26.13-13.91,35.62-14.98,2.63-.3,5.3-.45,7.93-.45,9.41,0,19.03,1.89,30.26,5.94.65.24,1.36.48,2.08.73,7.8,2.67,14.1,5.41,12.14,11.96-.7,2.34-2.27,3.43-4.93,3.43-3.91,0-9.29-2.42-13.21-4.18-1.77-.8-3.3-1.49-4.47-1.87-8.47-2.77-15.56-4.05-22.32-4.05-8.85,0-17.57,2.22-28.25,7.18-1.43.67-2.76,1.64-4.05,2.57-1.86,1.36-3.63,2.64-5.65,3.09-.54.12-1.08.18-1.6.18Z"/>
  <path class="st0" d="M116.23,338.59c-3.09,0-6.83-1.77-7.73-5.65-.57-2.44.19-11.12.51-14.83l.08-.96c2.73-32.17,14.47-62.14,32.21-82.2,29.41-33.27,69.41-40.69,111.76-48.55,47.66-8.84,96.94-17.98,133.35-65.73,1.32-1.74,3.65-5.48,6.11-9.44,3.36-5.41,7.55-12.15,8.86-13.11,1.4-1.02,3.02-1.56,4.7-1.56,2.13,0,4.12.87,5.47,2.38,1.35,1.51,1.92,3.51,1.65,5.76-.82,6.99-18.09,30.11-24.88,37.6-37.66,41.61-77.29,48.83-123.19,57.18-17.36,3.16-35.31,6.43-54.03,11.82-48.92,14.09-79.63,49.2-86.46,98.86-.25,1.81-.3,4.39-.36,7.37-.14,7.49-.34,17.75-4.13,20.01-1.14.68-2.5,1.04-3.93,1.04Z"/>
  <path class="st0" d="M107.73,194.45c-1.02,0-2.18-.19-3.54-.6-1.62-.48-2.73-1.33-3.38-2.59-1.82-3.53.25-9.48,1.62-13.42l.32-.93c15.18-44.47,55.52-87.69,100.38-107.55,2.08-.92,20.47-9.02,26.65-10.07.46-.08.92-.12,1.36-.12,2.3,0,4.42,1.07,5.82,2.95,1.55,2.07,2,4.87,1.23,7.47-1.04,3.5-11.31,6.82-18.1,9.02-2.63.85-4.91,1.59-6.39,2.23-22.33,9.62-43.4,24.15-59.32,40.91-16.77,17.66-23.48,32-31.96,50.16-2.38,5.09-4.84,10.35-7.7,16.09-2.01,4.02-3.48,6.46-6.98,6.46Z"/>
  <path class="st0" d="M352.6,497.17c-4.69,0-8.5-3.81-8.5-8.5s3.81-8.5,8.5-8.5,8.46,3.81,8.49,8.5c0,4.68-3.81,8.49-8.49,8.49ZM326.31,490.19c-1.44,0-2.9-.4-4.24-1.15-4.04-2.34-5.44-7.56-3.11-11.61,1.52-2.62,4.36-4.24,7.4-4.24,1.48,0,2.94.39,4.22,1.12,4.04,2.35,5.44,7.56,3.12,11.62-1.55,2.63-4.38,4.27-7.39,4.27ZM378.85,490.11c-3.03,0-5.85-1.62-7.35-4.23-2.35-4.05-.97-9.26,3.09-11.62,1.29-.75,2.76-1.15,4.25-1.15,3.02,0,5.85,1.62,7.36,4.24,2.35,4.05.97,9.26-3.09,11.62-1.34.76-2.78,1.14-4.27,1.14ZM307.08,470.99c-3,0-5.82-1.62-7.36-4.24-2.35-4.04-.96-9.26,3.09-11.61,1.3-.76,2.79-1.16,4.28-1.16,3.01,0,5.83,1.61,7.34,4.21,2.34,4.06.95,9.27-3.09,11.61-1.33.79-2.77,1.18-4.26,1.18ZM398.04,470.88c-1.54,0-2.98-.38-4.26-1.14-1.96-1.13-3.36-2.94-3.95-5.13-.59-2.2-.28-4.49.86-6.46l.14-.23v-.03c1.55-2.48,4.29-4.01,7.23-4.01,1.49,0,2.96.4,4.25,1.15,1.96,1.14,3.37,2.98,3.95,5.17.58,2.19.28,4.48-.86,6.45-1.51,2.61-4.32,4.23-7.35,4.23ZM300.02,444.75c-4.67,0-8.5-3.82-8.53-8.5,0-4.68,3.81-8.49,8.5-8.49s8.5,3.81,8.53,8.5c0,4.68-3.81,8.49-8.5,8.49ZM405.06,444.63c-4.68,0-8.49-3.81-8.49-8.5v-.19c0-4.67,3.8-8.5,8.46-8.54,4.7,0,8.53,3.79,8.53,8.46v.27c0,4.68-3.81,8.5-8.5,8.5ZM306.96,418.46c-1.54,0-2.96-.37-4.23-1.11-4.07-2.37-5.47-7.58-3.13-11.62,1.5-2.62,4.32-4.25,7.36-4.25,1.48,0,2.94.39,4.22,1.13,3.94,2.27,5.39,7.27,3.34,11.29l-.22.33c-1.51,2.61-4.32,4.23-7.35,4.23ZM397.96,418.18c-3.04,0-5.86-1.6-7.35-4.19-1.16-1.97-1.48-4.26-.9-6.46.58-2.2,1.98-4.05,3.95-5.21,1.29-.75,2.76-1.15,4.26-1.15,3.02,0,5.84,1.61,7.36,4.2,2.35,4.04.98,9.28-3.06,11.66-1.33.75-2.77,1.14-4.26,1.14ZM326.15,399.19c-3.09,0-5.84-1.57-7.35-4.19-2.36-4.06-.99-9.27,3.05-11.62,1.31-.76,2.79-1.16,4.29-1.16,3.01,0,5.82,1.61,7.33,4.21,2.36,4.06.99,9.27-3.05,11.62-1.29.76-2.72,1.14-4.27,1.14ZM378.65,399.03c-1.54,0-2.96-.37-4.23-1.11-4.06-2.36-5.48-7.57-3.16-11.62,1.53-2.63,4.35-4.26,7.38-4.26,1.48,0,2.94.39,4.24,1.14,1.97,1.13,3.38,2.96,3.97,5.16.59,2.19.29,4.47-.85,6.41-1.5,2.64-4.32,4.27-7.35,4.27ZM352.37,392.09c-4.65,0-8.46-3.8-8.5-8.46,0-4.7,3.79-8.53,8.46-8.53s8.53,3.79,8.53,8.46-3.79,8.54-8.46,8.54h-.04Z"/>
</svg>