<?xml version="1.0" encoding="UTF-8"?>
<svg id="Layer_1" xmlns="http://www.w3.org/2000/svg" version="1.1" viewBox="0 0 600 600">
  <!-- Generator: Adobe Illustrator 29.5.1, SVG Export Plug-In . SVG Version: 2.1.0 Build 141)  -->
  <defs>
    <style>
      .st0 {
        fill: #191919;
      }
    </style>
  </defs>
  <path class="st0" d="M428.89,504.25c-6.13,0-12.68-.44-19.7-1.38-36.41-4.91-63.63-12.06-83.52-17.28-13.27-3.48-23.75-6.24-29.64-6.24s-16.37,2.75-29.64,6.24c-19.88,5.22-47.11,12.37-83.52,17.29-58.91,7.94-85.24-19.95-106.4-42.36-2.72-2.87-5.36-5.68-8.01-8.33-22.4-22.4-50.49-49.02-50.77-49.29-2.51-2.38-3.17-6.11-1.65-9.2,1.53-3.1,4.9-4.84,8.31-4.29.51.08,50.65,7.77,103.27-11.96,22.31-8.37,38.33-17.04,52.46-24.69,20.22-10.94,36.23-19.61,57.97-19.61.23,0,.45,0,.68,0,20.97.17,31.43,5.55,39.84,9.87,5.93,3.05,10.21,5.25,17.45,5.25s11.52-2.2,17.45-5.25c8.4-4.32,18.87-9.69,39.83-9.87.23,0,.46,0,.68,0,21.74,0,37.75,8.67,57.97,19.61,14.13,7.65,30.15,16.32,52.46,24.69,52.8,19.8,102.77,12.04,103.26,11.96,3.4-.56,6.78,1.18,8.32,4.28,1.53,3.1.87,6.83-1.65,9.21-.28.27-28.37,26.89-50.77,49.29-2.65,2.65-5.29,5.45-8,8.32-18.64,19.75-41.3,43.75-86.7,43.75ZM296.04,463.58c7.92,0,18.71,2.83,33.64,6.76,19.49,5.12,46.17,12.13,81.62,16.91,50.92,6.86,72.22-15.72,92.84-37.57,2.82-2.98,5.57-5.9,8.32-8.65,11.75-11.75,25.04-24.64,35.12-34.33-20.98.48-54.03-1.53-88.68-14.52-23.32-8.75-40.57-18.08-54.43-25.58-19.87-10.75-32.96-17.76-51.02-17.71-17.22.14-25.12,4.2-32.77,8.13-6.69,3.44-13.6,6.99-24.65,6.99s-17.96-3.55-24.65-6.99c-7.64-3.93-15.54-7.99-32.77-8.13-18.14-.18-31.15,6.95-51.02,17.71-13.86,7.5-31.11,16.84-54.43,25.58-34.64,12.99-67.68,15.03-88.68,14.52,10.08,9.69,23.37,22.59,35.12,34.33,2.75,2.75,5.5,5.67,8.32,8.65,20.62,21.84,41.93,44.42,92.84,37.56,35.45-4.78,62.14-11.79,81.62-16.91,14.93-3.92,25.72-6.75,33.64-6.75Z"/>
  <g>
    <path class="st0" d="M576.87,405.03c-2.09,0-4.1-.83-5.59-2.28-1.46-1.5-2.28-3.51-2.28-5.59s.83-4.09,2.28-5.55c.39-.39.79-.71,1.22-.98.43-.28.87-.55,1.34-.75.47-.2.98-.32,1.5-.43.98-.2,2.05-.2,3.07,0,.51.12.98.24,1.46.43.47.2.95.47,1.38.75.43.28.83.59,1.18.98.35.35.71.75.98,1.18.28.43.55.91.75,1.38.16.47.32.94.43,1.46.08.51.16,1.02.16,1.53s-.08,1.03-.16,1.54c-.12.51-.28,1.03-.43,1.5-.2.47-.47.91-.75,1.34-.28.43-.63.83-.98,1.22-1.46,1.46-3.51,2.28-5.55,2.28Z"/>
    <path class="st0" d="M568.72,419.41c-1.06-.47-2.17-.71-3.27-.71-2.99,0-5.87,1.69-7.21,4.57-1.81,3.94-.12,8.63,3.86,10.44,1.06.51,2.21.75,3.31.75,2.95,0,5.79-1.69,7.13-4.57.51-1.06.75-2.2.75-3.31,0-2.99-1.69-5.83-4.57-7.17ZM41.8,423.47c-1.34-2.91-4.18-4.57-7.13-4.57-1.1,0-2.24.24-3.31.71-3.94,1.85-5.67,6.54-3.82,10.48,1.34,2.88,4.17,4.57,7.13,4.57,1.1,0,2.25-.24,3.31-.75,2.88-1.3,4.57-4.18,4.57-7.13,0-1.1-.24-2.24-.75-3.31ZM554.66,447.77c-1.26-.75-2.68-1.14-4.06-1.14-2.68,0-5.28,1.38-6.74,3.86-2.25,3.74-1.02,8.55,2.72,10.79,1.26.75,2.64,1.1,4.02,1.1,2.68,0,5.32-1.34,6.77-3.82.75-1.26,1.14-2.68,1.14-4.06,0-2.68-1.38-5.28-3.86-6.73ZM56.26,450.68v-.04c-1.5-2.44-4.1-3.82-6.77-3.82-1.38,0-2.8.39-4.06,1.14-3.74,2.21-4.92,7.05-2.72,10.79,1.5,2.44,4.1,3.82,6.77,3.82,1.38,0,2.76-.35,4.06-1.1,3.7-2.25,4.92-7.09,2.72-10.79ZM537.76,474.47c-1.42-1.06-3.07-1.58-4.73-1.58-2.4,0-4.77,1.1-6.3,3.15-2.6,3.51-1.89,8.43,1.58,11.03,1.42,1.06,3.07,1.58,4.73,1.58,2.4,0,4.77-1.1,6.3-3.15,1.06-1.42,1.58-3.07,1.58-4.73,0-2.4-1.1-4.77-3.15-6.3ZM73.39,476.25c-1.54-2.09-3.9-3.19-6.3-3.19-1.65,0-3.31.55-4.73,1.62-3.47,2.6-4.17,7.52-1.58,11.03,1.54,2.05,3.9,3.15,6.3,3.15,1.65,0,3.31-.51,4.73-1.58,2.05-1.58,3.15-3.94,3.15-6.34,0-1.61-.51-3.27-1.58-4.69ZM518.15,499.25c-3.19-2.95-8.11-2.8-11.11.39-2.99,3.19-2.84,8.15.35,11.15,1.54,1.42,3.47,2.09,5.4,2.09,2.09,0,4.21-.83,5.75-2.48,1.42-1.54,2.13-3.47,2.13-5.4,0-2.09-.87-4.21-2.52-5.75ZM93.12,499.8c-1.58-1.65-3.66-2.48-5.75-2.48-1.93,0-3.86.71-5.4,2.13-3.19,2.95-3.35,7.92-.35,11.11,1.54,1.65,3.62,2.52,5.75,2.52,1.93,0,3.86-.71,5.36-2.13,1.65-1.58,2.52-3.66,2.52-5.79,0-1.89-.71-3.82-2.13-5.36ZM495.97,521.74c-1.58-1.81-3.78-2.76-6.03-2.76-1.81,0-3.58.59-5.08,1.85-3.35,2.84-3.74,7.8-.91,11.11,1.58,1.85,3.78,2.8,5.99,2.8,1.81,0,3.62-.63,5.12-1.89,1.81-1.58,2.76-3.78,2.76-6.03,0-1.81-.59-3.58-1.85-5.08ZM115.3,520.99c-1.46-1.26-3.27-1.89-5.08-1.89-2.25,0-4.45.95-6.03,2.8-2.8,3.31-2.4,8.27.91,11.11,1.5,1.26,3.31,1.85,5.12,1.85,2.21,0,4.41-.95,5.99-2.76,1.26-1.46,1.89-3.27,1.89-5.08,0-2.24-.95-4.45-2.8-6.03ZM471.31,541.51c-1.5-2.28-4.02-3.51-6.58-3.51-1.5,0-2.99.39-4.33,1.3-3.62,2.4-4.61,7.29-2.21,10.91,1.54,2.28,4.02,3.51,6.58,3.51,1.5,0,2.99-.39,4.33-1.3,2.28-1.5,3.51-4.02,3.51-6.58,0-1.5-.39-2.99-1.3-4.33ZM139.76,539.42c-1.34-.91-2.84-1.3-4.33-1.3-2.56,0-5.08,1.22-6.58,3.51-2.4,3.62-1.42,8.51,2.21,10.91,1.34.91,2.88,1.34,4.37,1.34,2.52,0,5.04-1.26,6.54-3.54,2.4-3.62,1.42-8.51-2.21-10.91ZM444.53,558.21c-1.38-2.76-4.17-4.37-7.05-4.37-1.18,0-2.4.28-3.54.87-3.9,1.97-5.44,6.73-3.47,10.59,1.38,2.76,4.14,4.33,7.01,4.33,1.22,0,2.4-.28,3.54-.87,2.76-1.38,4.33-4.14,4.33-7.05,0-1.18-.28-2.36-.83-3.5ZM166.26,554.82c-1.14-.59-2.36-.87-3.54-.87-2.88,0-5.67,1.61-7.05,4.37-1.97,3.86-.39,8.59,3.51,10.56,1.1.59,2.32.87,3.54.87,2.88,0,5.63-1.61,7.01-4.33.59-1.14.87-2.36.87-3.54,0-2.88-1.61-5.67-4.33-7.05ZM415.94,571.6c-1.18-3.19-4.17-5.16-7.4-5.16-.91,0-1.81.16-2.72.47-4.1,1.5-6.18,5.99-4.69,10.08,1.18,3.19,4.17,5.2,7.4,5.2.91,0,1.81-.16,2.72-.51,3.19-1.18,5.16-4.18,5.16-7.41,0-.87-.16-1.77-.47-2.68ZM194.35,566.99c-.91-.32-1.77-.47-2.68-.47-3.23,0-6.22,1.97-7.4,5.16-.32.91-.47,1.81-.47,2.68,0,3.23,1.97,6.22,5.16,7.41h.04c.87.35,1.77.47,2.68.47,3.23,0,6.22-1.97,7.4-5.16,1.5-4.1-.63-8.63-4.73-10.08ZM385.96,581.61c-.87-3.62-4.06-6.03-7.6-6.03-.63,0-1.26.08-1.89.24-4.25,1.02-6.81,5.28-5.79,9.49.87,3.62,4.1,6.03,7.64,6.03.63,0,1.26-.08,1.85-.24,3.62-.87,6.03-4.1,6.03-7.6,0-.63-.08-1.26-.24-1.89ZM223.73,575.86c-.63-.16-1.26-.24-1.85-.24-3.54,0-6.77,2.44-7.64,6.03-1.06,4.21,1.54,8.47,5.79,9.53.63.12,1.22.2,1.85.2,3.54,0,6.77-2.4,7.64-6.03.16-.63.24-1.26.24-1.85,0-3.54-2.44-6.77-6.03-7.64ZM355.12,588.26c-.55-3.98-3.94-6.81-7.8-6.81-.35,0-.71.04-1.06.08-4.33.59-7.33,4.53-6.74,8.86.51,3.94,3.9,6.81,7.8,6.81.35,0,.71-.04,1.06-.08,3.94-.55,6.81-3.94,6.81-7.8,0-.35-.04-.71-.08-1.06ZM253.94,581.53c-.35-.04-.71-.08-1.06-.08-3.86,0-7.25,2.88-7.8,6.85-.59,4.29,2.44,8.27,6.74,8.86.35.04.75.08,1.1.08,3.86,0,7.25-2.88,7.76-6.81.04-.35.08-.75.08-1.1,0-3.86-2.84-7.25-6.81-7.8ZM315.89,584.25h-.35c-4.33.2-7.72,3.86-7.52,8.19.2,4.25,3.66,7.56,7.84,7.56h.35c4.25-.2,7.56-3.7,7.56-7.92v-.31c-.2-4.21-3.7-7.52-7.88-7.52ZM284.66,584.25h-.32c-4.21,0-7.72,3.31-7.92,7.56-.16,4.33,3.19,8,7.56,8.19h.32c4.21,0,7.68-3.31,7.88-7.52v-.35c0-4.21-3.31-7.68-7.52-7.88Z"/>
    <path class="st0" d="M23.13,405.03c-2.09,0-4.14-.83-5.59-2.28-1.46-1.5-2.28-3.51-2.28-5.59,0-.51.04-1.02.16-1.53.08-.51.23-.98.43-1.46.2-.47.43-.95.75-1.38.28-.43.59-.83.94-1.18,1.81-1.85,4.57-2.68,7.13-2.17.51.12.98.28,1.46.43.47.24.95.47,1.38.75.43.28.83.63,1.18.98.36.35.71.75.98,1.18.28.43.51.91.71,1.38.24.47.35.94.47,1.46.08.51.16,1.02.16,1.53,0,2.09-.87,4.1-2.33,5.59-.35.35-.75.67-1.18.94-.43.32-.91.55-1.38.75-.47.2-.94.36-1.46.43-.51.12-1.02.16-1.53.16Z"/>
    <path class="st0" d="M372.97,206.25c-.2,0-.39-.04-.59-.04-4.1,0-7.52,3.23-7.8,7.37-.32,4.33,2.95,8.07,7.33,8.39h.51c4.14,0,7.6-3.19,7.88-7.33v-.51c0-4.13-3.15-7.6-7.33-7.88ZM405.74,215.78c-1.18-.67-2.48-.95-3.78-.95-2.8,0-5.51,1.46-6.93,4.1-2.09,3.82-.67,8.59,3.15,10.67,1.18.67,2.48.98,3.74.98,2.8,0,5.51-1.5,6.93-4.1.67-1.22.98-2.52.98-3.78,0-2.8-1.5-5.51-4.1-6.93ZM202.19,216.06c-1.26-.83-2.68-1.22-4.17-1.22-1.3,0-2.6.28-3.78.95v.04c-3.78,2.09-5.2,6.85-3.11,10.67,1.42,2.6,4.14,4.1,6.93,4.1,1.26,0,2.56-.32,3.78-.98,1.18-.67,2.17-1.58,2.8-2.68-1.58-3.5-2.36-7.21-2.44-10.87ZM431.53,236.66c-1.54-1.58-3.58-2.4-5.67-2.4-1.97,0-3.94.75-5.47,2.25-3.11,3.07-3.19,8.04-.12,11.15,1.54,1.58,3.58,2.4,5.63,2.4s3.94-.75,5.47-2.25c1.61-1.54,2.4-3.58,2.4-5.63s-.75-3.98-2.24-5.51ZM179.58,236.54c-1.54-1.5-3.54-2.24-5.51-2.24s-4.1.79-5.63,2.36c-3.03,3.11-2.95,8.11.16,11.15,1.54,1.5,3.51,2.25,5.51,2.25s4.1-.79,5.63-2.36c1.5-1.54,2.25-3.54,2.25-5.51s-.83-4.1-2.4-5.63ZM452.8,259.74c-1.58-1.77-3.74-2.68-5.91-2.68-1.85,0-3.7.67-5.2,1.97-3.27,2.88-3.58,7.84-.71,11.11,1.58,1.77,3.74,2.68,5.91,2.68,1.85,0,3.7-.63,5.2-1.97,1.77-1.58,2.68-3.74,2.68-5.91,0-1.85-.67-3.7-1.97-5.2ZM158.27,259.03c-1.5-1.3-3.35-1.97-5.2-1.97-2.17,0-4.33.91-5.91,2.68-2.88,3.27-2.56,8.23.71,11.15,1.5,1.3,3.35,1.93,5.2,1.93,2.17,0,4.37-.87,5.91-2.64,1.3-1.5,1.97-3.35,1.97-5.2,0-2.21-.91-4.37-2.68-5.95ZM473.09,283.37c-1.54-1.85-3.78-2.8-5.99-2.8-1.81,0-3.62.63-5.08,1.89-3.35,2.8-3.78,7.76-.95,11.07,1.54,1.85,3.78,2.8,6.03,2.8,1.77,0,3.58-.59,5.04-1.85,1.85-1.54,2.84-3.78,2.84-6.03,0-1.77-.63-3.58-1.89-5.08ZM137.98,282.46c-1.5-1.26-3.31-1.85-5.12-1.85-2.21,0-4.45.95-5.99,2.8-2.8,3.31-2.4,8.31.95,11.11,1.46,1.22,3.27,1.85,5.08,1.85,2.21,0,4.45-.95,6.03-2.8,1.26-1.5,1.85-3.31,1.85-5.08,0-2.25-.95-4.49-2.8-6.03ZM493.06,307.04c-1.54-1.81-3.78-2.76-5.99-2.76-1.81,0-3.62.59-5.12,1.85-3.31,2.84-3.7,7.8-.87,11.11,1.58,1.85,3.78,2.8,5.99,2.8,1.81,0,3.62-.63,5.12-1.89,1.81-1.58,2.76-3.78,2.76-5.99,0-1.81-.63-3.62-1.89-5.12ZM118.02,306.17c-1.5-1.26-3.31-1.89-5.12-1.89-2.25,0-4.45.95-5.99,2.76-2.84,3.31-2.44,8.31.87,11.11,1.5,1.26,3.31,1.89,5.12,1.89,2.21,0,4.41-.95,5.99-2.76,1.26-1.5,1.89-3.31,1.89-5.12,0-2.21-.95-4.41-2.76-5.99ZM513.34,330.12c-1.54-1.69-3.66-2.6-5.83-2.6-1.89,0-3.78.71-5.28,2.09-3.23,2.91-3.43,7.92-.51,11.11,1.54,1.73,3.7,2.56,5.83,2.56,1.89,0,3.78-.67,5.32-2.05,1.69-1.54,2.56-3.66,2.56-5.79,0-1.89-.71-3.82-2.09-5.32ZM97.73,329.65c-1.5-1.38-3.43-2.09-5.32-2.09-2.13,0-4.25.87-5.79,2.56-2.95,3.23-2.72,8.23.47,11.15,1.54,1.38,3.43,2.05,5.32,2.05,2.13,0,4.25-.87,5.83-2.56,1.38-1.5,2.05-3.43,2.05-5.32,0-2.13-.87-4.25-2.56-5.79ZM534.53,352.06c-1.54-1.5-3.51-2.24-5.47-2.24-2.09,0-4.14.83-5.67,2.4-3.03,3.11-2.95,8.11.16,11.15,1.54,1.5,3.51,2.24,5.51,2.24s4.1-.83,5.63-2.4c1.5-1.54,2.24-3.51,2.24-5.48,0-2.09-.83-4.13-2.4-5.67ZM76.54,352.26c-1.54-1.58-3.58-2.36-5.63-2.36s-3.98.75-5.51,2.24c-3.11,3.03-3.19,8-.16,11.11,1.58,1.61,3.62,2.4,5.67,2.4s3.94-.75,5.47-2.25c1.58-1.54,2.4-3.58,2.4-5.67,0-1.97-.75-3.94-2.25-5.47ZM557.06,372.42c-1.46-1.22-3.27-1.81-5.04-1.81-2.25,0-4.49.95-6.03,2.84-2.8,3.35-2.32,8.31,1.02,11.11,1.46,1.18,3.27,1.81,5.04,1.81,2.25,0,4.49-.98,6.07-2.88,1.22-1.46,1.81-3.23,1.81-5,0-2.24-.98-4.53-2.88-6.07ZM53.93,373.49c-1.54-1.89-3.78-2.84-6.03-2.84-1.77,0-3.58.59-5.04,1.81-3.35,2.76-3.82,7.72-1.06,11.07,1.58,1.89,3.82,2.88,6.1,2.88,1.73,0,3.54-.59,5-1.81,1.89-1.58,2.84-3.82,2.84-6.07,0-1.77-.59-3.58-1.81-5.04Z"/>
  </g>
  <path class="st0" d="M148.92,329.07l61.16-60.96c.89-1.45-.72-2.35-1.22-3.8-5.3-15.26,1.16-24.73,12.22-34.58-6.87-6.05-9.67-15.51-4.01-23.43l124.36-124.55c.66-1.47-1.68-4.1-2.37-5.88-6.77-17.45,9.92-34.1,27.34-27.92,7.89,2.8,15.23,14.15,21.8,19.43l1.59-.15,26.22-26.22c1.09-2.17-3.72-5.43-5.14-7.53-12.86-19,8.8-42.32,28.9-30.08,7.91,4.81,32.9,30.89,39.9,38.94,1.56,1.79,3.75,4.3,4.82,6.36,10.09,19.27-11.64,39.42-30.25,27.89-1.94-1.2-6.31-6.37-8-5.94l-26.83,26.83.49,1.67c4.58,5.2,11.03,9.97,15.31,15.29,13.4,16.61-1.8,39.81-22.35,34.12-2.18-.6-6.29-3.58-7.62-2.98l-108.92,109.4c-6.41,4.14-12.64,15.06-19.92,17.15-7.51,2.16-14.01-.62-19.15-6.19-9.85,11.98-23.26,18.58-38.16,10.67l-62.77,62.54c-7.01,3.55-12.65-4.11-7.42-10.07ZM234.77,267.54c5.37-.82,10.08-6.6,13.34-10.66l-18.41-17.98c-3.72,3.87-9.36,7.65-10.23,13.34-1.38,8.95,6.32,16.67,15.31,15.31ZM262.06,252.59c3.15,3.05,7.11,10.68,12.4,6.68l8.17-8.62c-2.79-5.49-17.44-12.86-11.2-19.98,6.91-7.88,15,7.69,20.43,10.46l15.49-15.2-.32-1.5-21.15-21.24c-2.75-6.75,4.19-11.67,10.13-7.19,6.17,4.64,12.87,13.91,18.91,19.34.42.38,1.23,1,1.77.97,4.59-3.65,8.62-8.16,12.69-12.44-2.77-5.19-18.27-13.92-10.58-20.55,6.94-5.99,14.72,7.91,19.66,11.4l15.52-15.07.39-1.38-21.42-21.54c-2.73-5.94,2.33-11.13,8.38-8.38,3.14,2.2,20.14,21.12,21.83,21.11,2.31-.01,9.75-9.88,12.48-11.36l.61-1.3c-3.11-4.71-18-13.49-10.98-19.96,7.06-6.52,14.73,7.34,19.76,10.81.54.09,2.51-1.59,3.08-2.09,1.01-.88,7.56-7.39,7.89-8.02.47-.91.64-1.73-.12-2.52l-44.75-44.72-2.68,1.48-121,121.39c-1.73,2.32-.8,3.91.71,6,11.15,11.31,22.51,22.4,33.92,33.45ZM420.68,136.93c6.61-1.05,9.7-9.76,4.86-14.58-21.17-20.77-41.67-42.41-63.24-62.66-8.41-3.15-15.92,5.97-10.61,13.54l62.07,62.07c2.15,1.5,4.32,2.03,6.92,1.62ZM410.71,88.76l27.34-27.28c.07-.9-10.75-11.22-12.52-12.55l-27.29,27.36c-.27.73.12,1.13.49,1.67.7,1.04,9.27,9.61,10.3,10.3.59.4.86.71,1.67.49ZM450.81,56.21c3.83,3.71,9.46,11.67,15.24,11.4,6.83-.31,11.22-8.72,6.75-14.28-12.8-11.29-24.78-27.5-37.87-38.03-9.58-7.71-19.47,2.34-13.71,11.36,9.73,9.98,19.59,19.85,29.59,29.55Z"/>
</svg>