<?xml version="1.0" encoding="UTF-8"?>
<svg id="Layer_1" xmlns="http://www.w3.org/2000/svg" version="1.1" viewBox="0 0 600 600">
  <!-- Generator: Adobe Illustrator 29.5.1, SVG Export Plug-In . SVG Version: 2.1.0 Build 141)  -->
  <defs>
    <style>
      .st0 {
        fill: #191919;
      }
    </style>
  </defs>
  <g>
    <path class="st0" d="M5.22,206.77c-4.05-2.42-5.35-7.63-2.93-11.69h0c2.42-4.02,7.67-5.35,11.69-2.93h0c4.02,2.42,5.35,7.63,2.93,11.69h0c-1.6,2.66-4.43,4.16-7.33,4.16h0c-1.5,0-3-.41-4.36-1.23ZM577.06,191.74c-3-3.65-2.42-9,1.23-11.99h0c3.64-2.93,9.03-2.39,11.99,1.26h0c2.97,3.65,2.39,9.03-1.26,12h0c-1.57,1.26-3.47,1.91-5.35,1.91h0c-2.49,0-4.94-1.09-6.61-3.17ZM26.52,175.79c-3.61-3.03-4.09-8.42-1.06-12h0c3.03-3.61,8.42-4.09,11.99-1.06h0c3.61,3.03,4.09,8.42,1.06,12h0c-1.7,2.01-4.09,3.03-6.54,3.03h0c-1.91,0-3.85-.65-5.45-1.98ZM552.96,163.66h0c-3.17-3.51-2.9-8.89.58-12.03h0c3.51-3.17,8.89-2.9,12.06.58h-.04c3.17,3.48,2.93,8.86-.55,12.03h0c-1.67,1.47-3.71,2.21-5.72,2.21h0c-2.35,0-4.64-.95-6.34-2.79ZM51.47,147.78c-3.27-3.41-3.21-8.79.2-12.06h0c3.37-3.27,8.76-3.2,12.03.2h0c3.27,3.37,3.21,8.76-.17,12.03h0c-1.67,1.6-3.82,2.42-5.96,2.42h0c-2.22,0-4.43-.89-6.1-2.59ZM527.27,137.28c-3.41-3.24-3.54-8.65-.31-12.06h0c3.24-3.41,8.66-3.54,12.06-.31h0c3.41,3.24,3.54,8.62.31,12.06h0c-1.67,1.74-3.92,2.66-6.17,2.66h0c-2.11,0-4.23-.78-5.89-2.35ZM79.11,122.39c-2.9-3.68-2.29-9.03,1.39-11.96h0c3.72-2.93,9.07-2.28,11.96,1.4h0c2.93,3.71,2.32,9.07-1.4,11.96h0c-1.57,1.26-3.41,1.84-5.28,1.84h0c-2.49,0-5.01-1.09-6.68-3.24ZM499.59,113.32c-3.72-2.9-4.36-8.25-1.47-11.96h0c2.9-3.72,8.21-4.36,11.93-1.5h0c3.71,2.9,4.4,8.25,1.5,11.96h0c-1.67,2.18-4.19,3.3-6.71,3.3h0c-1.84,0-3.68-.61-5.25-1.81ZM109.17,99.99c-2.52-3.99-1.33-9.27,2.66-11.76h0c3.95-2.52,9.24-1.33,11.76,2.62h0c2.52,3.99,1.33,9.24-2.66,11.76h0c-1.4.89-3,1.33-4.53,1.33h0c-2.83,0-5.59-1.4-7.23-3.95ZM469.64,92.67c-4.06-2.42-5.35-7.63-2.93-11.69h0c2.42-4.02,7.63-5.35,11.69-2.93h0c4.02,2.42,5.35,7.67,2.93,11.69h0c-1.6,2.69-4.43,4.16-7.33,4.16h0c-1.5,0-3-.41-4.36-1.23ZM141.44,80.88c-2.08-4.23-.31-9.34,3.92-11.38h0c4.23-2.08,9.34-.31,11.38,3.92h0c2.08,4.23.31,9.34-3.92,11.38h0c-1.19.61-2.49.89-3.72.89h0c-3.17,0-6.2-1.77-7.67-4.81ZM437.33,76.24c-4.33-1.84-6.34-6.85-4.5-11.18h0c1.84-4.33,6.82-6.37,11.18-4.53h0c4.29,1.84,6.34,6.85,4.5,11.18h0c-1.36,3.24-4.53,5.18-7.84,5.18h0c-1.12,0-2.25-.2-3.34-.65ZM175.59,65.51c-1.57-4.46.75-9.34,5.22-10.87h-.04c4.43-1.6,9.31.72,10.91,5.18h0c1.57,4.43-.75,9.3-5.18,10.87h-.03c-.92.31-1.91.48-2.83.48h0c-3.51,0-6.78-2.18-8.04-5.66ZM403.04,64.42c-4.53-1.23-7.23-5.9-6-10.43h0c1.23-4.53,5.93-7.22,10.46-6h0c4.53,1.23,7.23,5.9,6,10.43h0c-1.02,3.82-4.46,6.31-8.21,6.31h0c-.75,0-1.5-.1-2.25-.31ZM211.27,54.09c-1.02-4.57,1.84-9.13,6.44-10.19h0c4.57-1.06,9.13,1.81,10.19,6.41h0c1.06,4.57-1.8,9.13-6.41,10.19h0c-.65.17-1.26.24-1.91.24h0c-3.89,0-7.4-2.69-8.32-6.64ZM367.36,57.09c-4.67-.72-7.87-5.04-7.19-9.68h0c.72-4.67,5.04-7.87,9.68-7.19h0c4.67.68,7.87,5.01,7.19,9.68h0c-.62,4.23-4.26,7.26-8.42,7.26h0c-.41,0-.85-.03-1.26-.07ZM248.04,46.9c-.51-4.67,2.86-8.89,7.53-9.41h0c4.67-.51,8.9,2.83,9.41,7.5h0c.51,4.7-2.83,8.89-7.53,9.44h.04c-.34.03-.65.03-.96.03h0c-4.29,0-8.01-3.2-8.49-7.57ZM330.86,53.37h0c-4.7-.27-8.28-4.33-8.01-9.03h0c.27-4.67,4.29-8.25,9-7.97h.04c4.67.27,8.25,4.33,7.97,9h0c-.27,4.53-4.02,8.01-8.52,8.01h-.48ZM285.4,43.87c-.03-4.7,3.78-8.52,8.49-8.52h0c4.7,0,8.52,3.78,8.55,8.49h0c0,4.7-3.82,8.56-8.52,8.56h0c-4.7,0-8.52-3.82-8.52-8.52Z"/>
    <path class="st0" d="M304.21,505.65c0-4.7,3.78-8.52,8.52-8.52h0c4.71,0,8.52,3.82,8.52,8.52h0c0,4.7-3.81,8.52-8.52,8.52h0c-4.7,0-8.52-3.82-8.52-8.52ZM274.19,511.51c-4.67-.65-7.91-4.94-7.26-9.61h0c.65-4.67,4.94-7.91,9.61-7.26h0v-.03h0c4.63.65,7.9,4.98,7.26,9.61h0c-.58,4.29-4.23,7.36-8.42,7.36h0c-.41,0-.78-.03-1.19-.07ZM341.63,504.18c-.65-4.67,2.56-9,7.23-9.64h0c4.63-.68,8.96,2.56,9.64,7.19h0c.68,4.67-2.56,9-7.19,9.64h0c-.41.07-.82.1-1.23.1h0c-4.19,0-7.84-3.07-8.45-7.29ZM236.39,503.74c-4.53-1.23-7.19-5.93-5.96-10.46h0c1.22-4.53,5.93-7.23,10.46-6h0v.03h0c4.53,1.23,7.23,5.9,6,10.46h0c-1.06,3.78-4.5,6.27-8.25,6.27h0c-.72,0-1.5-.1-2.25-.31ZM378.51,497.33c-1.36-4.5,1.22-9.24,5.72-10.57h.03c4.5-1.33,9.24,1.23,10.57,5.76h0c1.33,4.5-1.26,9.24-5.76,10.57h0c-.79.24-1.6.34-2.42.34h0c-3.68,0-7.06-2.39-8.14-6.1ZM199.96,491.37h0c-4.36-1.77-6.47-6.71-4.7-11.08h0c1.77-4.36,6.75-6.47,11.11-4.7h0c4.36,1.77,6.44,6.75,4.7,11.11h0c-1.36,3.31-4.57,5.32-7.94,5.32h0c-1.06,0-2.15-.2-3.17-.65ZM413.98,485.37c-1.94-4.29,0-9.34,4.3-11.28h0c4.26-1.94,9.3,0,11.25,4.26h0c1.94,4.29.03,9.34-4.26,11.28h0c-1.12.51-2.32.75-3.48.75h0c-3.27,0-6.37-1.87-7.8-5.01ZM165.2,474.87h0c-4.12-2.25-5.65-7.47-3.37-11.59h0c2.25-4.12,7.43-5.62,11.55-3.37h0c4.12,2.28,5.62,7.46,3.37,11.59h0c-1.53,2.83-4.47,4.43-7.47,4.43h0c-1.4,0-2.79-.34-4.09-1.06ZM447.59,468.81c-2.42-4.06-1.16-9.27,2.86-11.72h0c4.02-2.45,9.24-1.19,11.69,2.83h0c2.45,4.02,1.19,9.27-2.83,11.72h0c-1.4.85-2.93,1.23-4.43,1.23h0c-2.86,0-5.69-1.43-7.29-4.06ZM132.34,453.88h0c-3.68-2.93-4.29-8.28-1.36-11.96h0c2.93-3.68,8.28-4.29,11.96-1.36h0c3.68,2.93,4.29,8.28,1.36,11.96h0c-1.67,2.11-4.16,3.2-6.68,3.2h0c-1.84,0-3.71-.58-5.28-1.84Z"/>
  </g>
  <path class="st0" d="M304.82,421.41c-108.33,0-183.94-37.24-228.3-68.48C28.26,318.95,5.94,285.23,5.02,283.81c-2-3.06-1.44-7.12,1.3-9.53,2.86-2.51,71.28-61.88,178.87-92.21,99.47-28.03,251.87-34.84,413.08,91.95,2.94,2.31,3.67,6.45,1.71,9.63-.88,1.42-22.04,35.2-69.16,69.23-43.29,31.26-117.64,68.53-226,68.53ZM21.18,281.06c18.89,24.5,107.6,125.67,283.64,125.67s260.83-100.75,278.93-125.41c-123.8-95.21-256.34-123.91-394.02-85.28-88.19,24.74-150.74,70.85-168.55,85.02Z"/>
  <path class="st0" d="M302.45,422.2c-71.07,0-128.89-57.82-128.89-128.89s57.82-128.89,128.89-128.89,128.89,57.82,128.89,128.89-57.82,128.89-128.89,128.89ZM302.45,180.27c-62.33,0-113.04,50.71-113.04,113.04s50.71,113.04,113.04,113.04,113.04-50.71,113.04-113.04-50.71-113.04-113.04-113.04Z"/>
  <path class="st0" d="M302.47,341.93c-26.83,0-48.65-21.81-48.65-48.62s21.83-48.61,48.65-48.61c5.12,0,10.14.8,14.94,2.37,2.46.8,4.37,2.76,5.12,5.23.75,2.47.25,5.16-1.34,7.19-1.13,1.44-2.47,3.84-2.47,7.08,0,6.34,5.14,11.5,11.47,11.5,2.46,0,4.81-.77,6.8-2.21,2.1-1.52,4.81-1.91,7.26-1.07,2.45.85,4.32,2.85,5.02,5.34,1.21,4.32,1.83,8.75,1.83,13.19,0,26.81-21.81,48.62-48.62,48.62ZM302.47,260.55c-18.09,0-32.8,14.7-32.8,32.77s14.71,32.77,32.8,32.77,32.69-14.63,32.77-32.64c-1.65.31-3.35.46-5.06.46-15.06,0-27.32-12.27-27.32-27.35,0-2.02.23-4.03.68-5.99-.35-.01-.71-.02-1.07-.02Z"/>
  <path class="st0" d="M308.47,566.81c-102.72,0-188.01-49.55-246.65-143.28C17.86,353.24,4.5,284.06,3.95,281.15c-.28-1.47-.1-3,.52-4.37.83-1.85,20.97-45.83,69.03-90.3,44.32-41,121.69-89.87,238.61-89.87s189.3,49.02,229.23,90.15c43.34,44.63,58.71,88.81,59.34,90.67.37,1.1.48,2.27.32,3.42-.42,2.91-10.81,72.14-51.78,142.48-54.67,93.87-137.92,143.48-240.74,143.48ZM18.85,280.75c2.71,12.58,17.42,74.4,55.65,135.37,56.6,90.25,135.32,136.01,233.97,136.01s175.2-45.69,227.84-135.81c36.1-61.8,47.96-124.51,49.87-135.79-3.17-8.25-19.13-46.4-55.84-84.03-55.17-56.54-128.6-85.21-218.23-85.21-111.87,0-185.83,46.52-228.17,85.54-40.33,37.16-60.54,74.81-65.09,83.92Z"/>
  <path class="st0" d="M480.41,382.19c-1.97,0-3.93-.79-5.38-2.34-2.76-2.97-2.59-7.61.38-10.37,71.1-66.05,21.17-142.23,19.01-145.44-2.26-3.36-1.38-7.92,1.98-10.18,3.35-2.27,7.91-1.39,10.18,1.96.6.89,59.26,89.69-21.18,164.42-1.41,1.31-3.21,1.96-4.99,1.96Z"/>
</svg>