<?xml version="1.0" encoding="UTF-8"?>
<svg id="Layer_1" xmlns="http://www.w3.org/2000/svg" version="1.1" viewBox="0 0 600 600">
  <!-- Generator: Adobe Illustrator 29.5.1, SVG Export Plug-In . SVG Version: 2.1.0 Build 141)  -->
  <defs>
    <style>
      .st0 {
        fill: #191919;
      }
    </style>
  </defs>
  <g>
    <path class="st0" d="M451.77,44.96c29.3,19.29,40.25,58.11,31.33,91.27-2.48,9.23-8.47,17.3-8.15,26.87.3,9.19,2.23,18.02,1.54,27.46-.85,11.56-5.2,20.18-3.75,32.65,2.22,19.18,24.29,39.72,32.8,56.33,7.82,15.25-2.18,24.4-15.08,30.89-5.79,2.91-13.85,2.42-10.98,11.94,2.31,7.69,7.52,8.36,6.06,18.94-.74,5.33-7.28,11.52-7.34,12.24-.07.85,3.85,7.39,3.55,12.09-.59,9.28-6.56,9.96-11.42,15.31-5.8,6.39-1.76,13.91-1.46,21.33.58,14.47-4.82,26.54-18.04,33.06-17.82,8.78-42.03,1.21-60.8.08-26.63-1.61-30.57,12.28-35.23,34.92-8.21,39.89-7.02,63.77,18.08,96.51,4.36,5.68,15.55,16.3,18.12,21.49,3.41,6.89,1.46,12.63-6.94,11.51-24.61-23.4-46.64-51.7-48.57-87.11,2.66-30.86,1.04-87.43,43.09-90.99,18.19-1.54,53.54,9.74,68.12-.44,15.75-11,2.55-29.95,9.11-44.78-4.96-3.05-10.07-5.27-14.65-9-3.1-2.52-6.54-6.63-9.64-9.41-2.45-2.2-5.85-2.75-6.57-6.45-1.41-7.2,9.77-6.87,14.18-8.78,5.49-2.37,11.92-8.38,17.77-11.18,3.23-1.55,6.76-2.38,10.11-3.64-1.04-7.87-3.01-13.07,1.97-20.1,6.33-8.94,15.35-7.56,21.37-12.69,4.84-4.12,3.46-6.81.91-11.38-10.85-19.4-30.66-36.9-32.35-60.59-1.15-16.16,4.73-31.5,3.84-48.02-1.2-22.1-9.07-43.65-19.43-62.87-2.5,0-3.88,5.31-5.02,6.99-24.3,35.7-52.27,42.69-90.01,57.19-10.41,4-11.34,11.77-17.01,20.32-12.93,19.53-29.35,39.09-54.76,40.47-13.49.73-11.14-2.64-18.31-10.71-11.55-13-36.22-27.46-48.72-7.56-9.94,15.83-2.76,39.64,6.57,54.28,4.33,6.79,16.63,23,24.68,24.07,8.63,1.15,11.49-4.94,15.86-4.5,4.92.5,7.57,6.57,3.91,10.7-7.28,8.21-18.65,9.61-28.59,5.67-3.18-1.26-5.33-3.78-8.39-4.18.51,13.68-3.51,28.13-9.62,40.28-7.14,14.21-17.43,23.81-29.64,33.63.85,6.02,2.77,11.81,3.44,17.89,3.54,32.39-8.97,76.26-21.95,106.02-8.64,19.8-20.14,38.35-28.7,58.15-3.77,8.71-8.76,27.58-13.77,34.23-6.04,8.02-12.3.59-10.65-8.37,1.65-8.98,10.05-27.21,14-36.28,19.46-44.69,44.59-81.96,47.4-133.16,2.66-48.64-25.01-61.36-49.1-96.47-51.54-75.1-40.37-179.51,14.49-249.73C196.73-1.96,304.2-18.04,386.73,19.72c5.56,2.54,10.72,6.71,16.62,8.52,18.18,5.57,31.16,5.35,48.42,16.72ZM449.48,60.96c-8.48-7.16-20.88-13.31-31.65-15.97-6.68-1.65-16.26-1.95-22.28-4.39-3.68-1.49-8.48-5.35-12.52-7.29C312.78-.39,227.82,8.73,169.43,61.01c-60.72,54.36-84.01,160-44.57,232.77,13.19,24.33,32.06,40.56,47.2,62.51,1.05,1.52,4.38,8.36,4.98,8.76,1.19.78,6.07-3.29,7.24-4.26,16.32-13.65,25.14-34.87,26.34-55.94,1.15-20.14-7.13-20.99-13.5-36.85-8.9-22.17-10.84-61.88,17.51-70.37,18.07-5.41,41.09,5.23,53.11,18.79,1.37,1.55,4.31,6.91,4.67,7.13.83.52,4.16.11,5.4-.07,20.23-3.02,37.02-23.67,45.52-40.94-1.19-1.07-27.31,4.28-31.62,4.55-4.37.27-9.05.3-10.55-4.69-1.47-4.91,1.46-7.97,6.16-8.82,8.82-1.6,18.67-1.84,27.78-3.45,38.33-6.76,92.82-25.54,113.51-60.95,2.71-4.65,5.63-15.52,9.37-18.05,3.24-2.19,7.4-1.44,9.88,1.55,5.97,7.21,14.73,26.68,18.29,35.8.76,1.95.7,7.02,3.4,5.28.7-.45,2.98-12.87,3.13-14.79,1.66-21.91-6.39-43.79-23.2-57.99ZM452.84,347.09h11.81c1.63,0,10.46-6,8.76-9.14-2.62-.13-4.91-.1-7.48.52-1.44.35-15.15,6.8-13.09,8.62ZM464.65,356.99c-5.02-1.13-13.94.84-19.43,0-.28,1.29.41,1.54,1.16,2.27,3.53,3.46,21.97,15.22,22.53,4.97.13-2.38-1.93-6.71-4.27-7.24Z"/>
    <path class="st0" d="M259.78,358.86c8.54,7,16.5,20.79,25.46,28.23,7.47,11-.67,20.13-11.05,9.53-2.19-2.24-11.19-14.3-12.56-14.87-.92-.39-1.08.24-1.42.87.4,33.23.15,66.5.63,99.73.05,3.72,1.45,4.72.06,9.15-2.1,6.66-11.98,6.12-12.99-2.3-1.1-9.11.24-21.66.05-31.28-.38-20.04-.47-40.77-1.55-60.93-.07-1.22.95-15.81-2.28-13.32-2.3,4.86-6.97,10.8-10.7,14.83-3.4,3.68-7.37,8.48-12.56,4.22-6.86-5.63,3.87-14.35,7.23-18.69,5.45-7.02,12.02-17.67,17.81-23.71,4.69-4.91,8.44-5.91,13.88-1.45Z"/>
    <path class="st0" d="M433.06,225.23c1.21,4.83,2.12,8.62,1.15,13.71-2.51,13.13-16.42,10.99-17.88-1.25-.21-1.73.99-6.2-.45-6.41-2.62-.37-14.81,6.65-19.11,6.83-2.13.09-5.35-2.01-5.66-4.21-.56-3.97,3.57-6.4,6.59-7.86,11.7-5.68,26.78-8.32,38.85-13.77,3.5-.92,6.88,2.88,6.27,6.26-.68,3.76-6.48,5.98-9.76,6.7Z"/>
    <path class="st0" d="M408.49,181.98c10.68-1.2,20.31.75,30.28,4.35,5.08,1.83,13.71,3.93,11.63,10.9-2.23,7.49-14.36-.11-18.72-1.53-14.77-4.82-24.96-4.14-39.05,2.42-2.6,1.21-4.83,3.83-7.76,4.49-5.37,1.2-8.64-4.54-4.77-8.65,5.21-5.52,20.88-11.13,28.39-11.98Z"/>
    <path class="st0" d="M175.07,184.34c49.51-56.02,138.63-19.51,192-89.49,2.53-3.32,9.97-16.42,11.89-17.82,4.57-3.35,11.23-.28,10.51,5.88s-15.07,24.79-19.69,29.89c-41.08,45.39-86.49,39.1-139.22,54.29-37.31,10.75-61.82,37.85-67.18,76.81-.71,5.12.68,19.29-3.89,22.02-3.64,2.18-9.26.4-10.3-4.11-.51-2.21.21-9.87.45-12.61,1.95-22.93,10.08-47.49,25.43-64.86Z"/>
    <path class="st0" d="M186.47,96.71c-16.72,17.6-20.68,31.19-30.94,51.72-2.06,4.12-3.66,6.62-9.16,5-6.35-1.87-3.06-10.16-1.65-14.28,12.25-35.86,44.62-69.47,79.07-84.73,4.61-2.04,16.69-7.2,21.06-7.95,5.18-.89,8.97,4.07,7.47,9.07-1.26,4.23-15.27,7.43-19.63,9.31-16.93,7.3-33.5,18.49-46.22,31.87Z"/>
  </g>
  <path class="st0" d="M387.03,412.84c-3.5-.3-6.07-3.35-5.77-6.81h0c.26-3.5,3.35-6.07,6.81-5.77h0c3.5.3,6.07,3.35,5.77,6.81h0c-.26,3.31-3.05,5.81-6.29,5.81h0c-.19,0-.33,0-.52-.04ZM363.96,408.78c-3.39-.93-5.36-4.43-4.43-7.78h0c.97-3.39,4.43-5.36,7.81-4.39h0c3.35.93,5.32,4.39,4.39,7.78h0c-.78,2.79-3.31,4.61-6.1,4.61h0c-.56,0-1.12-.07-1.67-.22ZM342,400.04c-3.09-1.64-4.24-5.47-2.6-8.56h0c1.67-3.09,5.51-4.24,8.56-2.6h0v.04h0c3.09,1.64,4.24,5.47,2.61,8.56h0c-1.15,2.12-3.31,3.31-5.58,3.31h0c-1,0-2.05-.22-2.98-.74ZM322.54,386.49c-2.6-2.31-2.87-6.33-.56-8.93h0c2.34-2.61,6.33-2.87,8.97-.56h0c2.6,2.31,2.83,6.33.52,8.93h0c-1.23,1.41-2.98,2.16-4.73,2.16h0c-1.49,0-3.01-.56-4.21-1.6ZM306.68,368.96c-2.08-2.83-1.45-6.77,1.38-8.82h0c2.83-2.08,6.77-1.45,8.82,1.38h0c2.08,2.83,1.45,6.77-1.38,8.82h0c-1.12.82-2.42,1.23-3.72,1.23h0c-1.94,0-3.87-.89-5.1-2.61ZM294.66,348.83c-1.53-3.13-.22-6.92,2.94-8.45h0c3.16-1.52,6.92-.19,8.45,2.94h0c1.52,3.16.22,6.92-2.94,8.45h0c-.89.45-1.82.63-2.75.63h0c-2.34,0-4.61-1.3-5.69-3.57ZM286.14,327.17c-1.04-3.35.82-6.89,4.17-7.93h0c3.31-1.04,6.89.82,7.93,4.17h0c1.04,3.31-.82,6.89-4.17,7.93h0c-.63.19-1.26.3-1.86.3h0c-2.72,0-5.21-1.75-6.07-4.47ZM280.67,304.69h0c-.63-3.46,1.68-6.74,5.1-7.37h0c3.46-.6,6.74,1.68,7.37,5.14h0c.6,3.42-1.67,6.7-5.14,7.33h0c-.37.07-.75.11-1.12.11h0c-3.01,0-5.66-2.16-6.22-5.21ZM278.07,281.36h0c-.04-3.5,2.75-6.36,6.25-6.4h0c3.5-.04,6.37,2.75,6.4,6.25h0c.07,3.5-2.75,6.36-6.21,6.4h-.11c-3.46,0-6.29-2.79-6.33-6.25Z"/>
  <path class="st0" d="M319,566.27h0c-1.71-3.05-.63-6.92,2.38-8.63h0c3.05-1.71,6.92-.63,8.63,2.42h0c1.71,3.01.63,6.89-2.42,8.6h0c-.97.56-2.05.82-3.09.82h0c-2.2,0-4.35-1.15-5.51-3.2ZM309.4,544.87h0c-1.15-3.31.63-6.92,3.94-8.04h0c3.27-1.12,6.89.63,8,3.94h0c1.15,3.31-.63,6.89-3.94,8.04h0c-.67.22-1.34.33-2.05.33h0c-2.61,0-5.06-1.67-5.95-4.28ZM303.89,522.02c-.48-3.46,1.9-6.66,5.36-7.14h0c3.46-.52,6.66,1.9,7.18,5.36h0c.48,3.46-1.9,6.66-5.36,7.14h0c-.3.07-.63.07-.93.07h0c-3.09,0-5.77-2.27-6.25-5.43ZM308.73,505.2c-3.5-.11-6.21-3.01-6.14-6.51h0c.11-3.5,3.01-6.25,6.51-6.14h0c3.5.11,6.25,3.01,6.14,6.51h0c-.11,3.42-2.9,6.14-6.33,6.14h-.19ZM310.18,482.91c-3.42-.63-5.69-3.94-5.06-7.37h0c.63-3.46,3.94-5.69,7.37-5.06h0c3.42.63,5.69,3.91,5.06,7.37h0c-.56,3.05-3.24,5.17-6.21,5.17h0c-.37,0-.78-.04-1.15-.11ZM314.94,461.1c-3.31-1.15-5.1-4.73-3.98-8.04h0c1.12-3.31,4.73-5.1,8.04-3.98h0c3.31,1.12,5.1,4.73,3.94,8.04h0c-.86,2.64-3.35,4.32-5.99,4.32h0c-.67,0-1.34-.11-2.01-.34ZM322.57,440.04c-3.05-1.75-4.09-5.58-2.38-8.63h0c1.75-3.05,5.58-4.09,8.63-2.38h0c3.05,1.75,4.09,5.62,2.38,8.63h0c-1.19,2.05-3.31,3.2-5.51,3.2h0c-1.08,0-2.16-.26-3.13-.82Z"/>
</svg>