<?xml version="1.0" encoding="UTF-8"?>
<svg id="Layer_1" xmlns="http://www.w3.org/2000/svg" version="1.1" viewBox="0 0 600 600">
  <!-- Generator: Adobe Illustrator 29.5.1, SVG Export Plug-In . SVG Version: 2.1.0 Build 141)  -->
  <defs>
    <style>
      .st0 {
        fill: #191919;
      }
    </style>
  </defs>
  <path class="st0" d="M374.8,153.89c-16.19-9.16-32.63-17.48-48.52-25.5-62.68-31.63-116.82-58.91-114.41-120.7.15-4.1-3.03-7.54-7.1-7.69-3.99-.11-7.5,3.03-7.69,7.1-1.92,50.07,27.49,80.12,67.52,104.81-34.04,11.42-118.18,47.6-134.19,129.79-11.9,61.12,9.65,140.06,52.37,191.91,30.16,36.59,66.67,55.95,105.62,55.95,41.83,0,75.94-21.4,102.11-52.11l-9.57-10.83c-23.76,28.38-54.69,48.15-92.54,48.15-43.42,0-75.2-27.49-94.2-50.55-40.13-48.71-60.39-122.58-49.26-179.72,17.59-90.43,132.26-121.14,137.14-122.4,12.05,6.65,24.72,13.01,37.55,19.48,15.74,7.95,32,16.15,47.89,25.17,75.65,42.98,71.36,103.29,71.14,105.8,0,.18-.04.33-.04.52-.66,26.61-8.06,60.98-21.99,93.76.74-.07,1.44-.11,2.18-.11,2.44,0,4.84.41,7.21,1.26,1.77.63,3.33,1.52,4.69,2.55,14.34-34,21.99-69.25,22.69-96.86.44-5.65,3.88-72.95-78.6-119.77Z"/>
  <path class="st0" d="M446.13,286.79c-1.52,0-3.06-.47-4.38-1.45-3.28-2.42-3.98-7.05-1.56-10.34,72.99-98.87-3.78-210.67-4.57-211.79-2.34-3.34-1.54-7.95,1.8-10.29,3.33-2.34,7.94-1.54,10.29,1.79.84,1.2,83.75,121.53,4.37,229.08-1.45,1.96-3.69,3-5.95,3Z"/>
  <path class="st0" d="M135.07,300.16c-1.43,0-2.88-.42-4.16-1.29-.74-.51-73.9-51.94-46.88-152.78C110.86,45.96,200.87,24.77,204.68,23.92c4-.9,7.94,1.62,8.83,5.6.89,3.98-1.62,7.93-5.6,8.82-3.58.82-85.16,20.37-109.6,111.57-24.25,90.48,38.28,134.92,40.96,136.76,3.35,2.32,4.2,6.91,1.9,10.27-1.44,2.08-3.75,3.21-6.1,3.21Z"/>
  <path class="st0" d="M69.61,600c-.73,0-1.47-.11-2.19-.33-3.9-1.21-6.08-5.35-4.87-9.25,13.99-45.08,52.2-59.31,85.91-71.86,12.07-4.49,23.47-8.73,33.26-14.12,33.61-18.48,31.63-44.19,31.6-44.45-.38-4.07,2.61-7.67,6.67-8.05,4.09-.39,7.67,2.61,8.04,6.67.14,1.45,2.82,35.68-39.2,58.78-10.75,5.91-22.64,10.33-35.23,15.02-32.01,11.91-65.11,24.24-76.95,62.38-.98,3.17-3.9,5.2-7.06,5.2Z"/>
  <path class="st0" d="M508.49,600c-3.15,0-6.07-2.03-7.06-5.2-11.83-38.14-44.93-50.47-76.95-62.38-12.59-4.69-24.48-9.11-35.23-15.02-42.02-23.09-39.33-57.33-39.19-58.77.38-4.06,3.97-7.07,8.04-6.67,4.05.38,7.03,3.95,6.68,7.99-.09,1.19-1.48,26.33,31.59,44.5,9.8,5.39,21.2,9.63,33.27,14.12,33.71,12.55,71.92,26.77,85.91,71.86,1.21,3.9-.97,8.04-4.87,9.25-.73.23-1.47.33-2.19.33Z"/>
  <g>
    <path class="st0" d="M330.87,391.09c-8.4-.99-21.12-9.12-29.08-8.43-3.41.3-8.61,3.94-11.32,3.89-3.36-.07-7.38-4.44-14.17-3.74-3.39.35-20.17,5.88-23.87,7.4-4.27,1.76-6.41,6.28-4.02,10.47,3.03,5.34,8.78,2.97,13.66,1.56,4.22-1.21,10.91-5.04,14.84-5.25,4.58-.24,9.53,3.14,13.61,3.28,3.74.12,7.96-2.75,11.25-3.21,7.93-1.11,21.99,11.13,29.95,5.15,3.84-2.88,3.02-8.64-.84-11.14Z"/>
    <path class="st0" d="M393.38,290.94c3.45-5.22-.49-12.26-6.59-11.48-3.35.43-7.74,5.54-11,7.49-11.15,6.68-24.23,6.88-35.52.23-4.71-2.78-12.25-11.77-18.18-5.08-5,5.65.91,10.78,5.37,13.88,15.79,11,36.46,13.65,53.64,4.29,2.87-1.56,10.61-6.83,12.27-9.34Z"/>
    <path class="st0" d="M251.28,280.16c-3.2.61-9.6,7.35-14.06,9.16-9.97,4.05-20.26,3.38-29.8-1.42-5.31-2.67-13.43-12.68-19.59-5.93-3.91,4.28-.98,8.6,2.57,11.73,18.74,16.53,48.86,16.15,67.23-.78,6.17-5.68,2.6-14.48-6.36-12.76Z"/>
    <path class="st0" d="M295.19,414.56c-2.57.26-6.16.34-8.7.09-4.7-.45-14.15-5.56-16.8.82-5.61,13.5,21.03,13.64,28.75,12.73,2.22-.26,11.22-2.83,12.52-4.3,2.08-2.34,1.91-7.65-.27-9.83-3.81-3.81-10.89.01-15.49.48Z"/>
    <path class="st0" d="M295.28,363.39c6.8-.68,21.46-7.02,14.71-15.5-5.22-6.54-12.77,2.39-17.86,2.58-6.3.24-12.61-6.21-18.29-4.53-.97.29-3.31,2.63-3.6,3.6-3.51,11.78,17.1,14.64,25.05,13.84Z"/>
    <path class="st0" d="M253.35,258.23c-1.03,0-2.08-.25-3.05-.79-24.58-13.68-43.72-2.46-44.52-1.97-2.96,1.78-6.82.85-8.62-2.09-1.8-2.95-.9-6.79,2.03-8.61,1.05-.65,25.99-15.69,57.22,1.69,3.03,1.69,4.12,5.51,2.43,8.54-1.15,2.06-3.29,3.23-5.49,3.23Z"/>
    <path class="st0" d="M325.2,258.23c-2.21,0-4.35-1.16-5.49-3.23-1.69-3.03-.6-6.86,2.43-8.54,31.22-17.38,56.17-2.34,57.22-1.69,2.95,1.83,3.86,5.7,2.03,8.65-1.82,2.94-5.68,3.85-8.62,2.05-.84-.5-19.97-11.69-44.52,1.97-.97.54-2.02.79-3.05.79Z"/>
  </g>
  <g>
    <circle class="st0" cx="219.2" cy="211.58" r="6.31"/>
    <circle class="st0" cx="239.7" cy="216.13" r="6.31"/>
    <circle class="st0" cx="259.37" cy="222.14" r="6.31"/>
    <circle class="st0" cx="280.76" cy="224.62" r="6.31"/>
    <circle class="st0" cx="301.68" cy="224.62" r="6.31"/>
    <circle class="st0" cx="322.39" cy="221" r="6.31"/>
    <circle class="st0" cx="342.26" cy="217.27" r="6.31"/>
    <circle class="st0" cx="362.56" cy="211.58" r="6.31"/>
    <circle class="st0" cx="219.2" cy="189.14" r="6.31"/>
    <circle class="st0" cx="198.18" cy="201.76" r="6.31"/>
    <circle class="st0" cx="239.7" cy="184.59" r="6.31"/>
    <circle class="st0" cx="259.37" cy="178.58" r="6.31"/>
    <circle class="st0" cx="280.76" cy="176.1" r="6.31"/>
    <circle class="st0" cx="301.68" cy="176.1" r="6.31"/>
    <circle class="st0" cx="322.39" cy="179.72" r="6.31"/>
    <circle class="st0" cx="342.26" cy="183.45" r="6.31"/>
    <circle class="st0" cx="362.56" cy="189.14" r="6.31"/>
    <circle class="st0" cx="382.47" cy="203.52" r="6.31"/>
  </g>
  <path class="st0" d="M349.87,340.55l33.55,37.83c.47.88-.5,1.35-.85,2.18-3.65,8.73-.21,14.5,5.9,20.65-4.23,3.29-6.21,8.71-3.18,13.55l68.2,77.27c.34.88-1.13,2.33-1.6,3.35-4.58,9.96,4.57,20.29,14.97,17.3,4.71-1.35,9.41-7.72,13.44-10.57l.92.15,14.38,16.27c.56,1.31-2.37,3.04-3.27,4.21-8.2,10.64,3.62,25.05,15.81,18.62,4.79-2.53,20.34-16.87,24.72-21.32.97-.99,2.35-2.38,3.05-3.54,6.59-10.9-5.39-23.46-16.67-17.39-1.18.63-3.92,3.49-4.89,3.18l-14.71-16.64.35-.96c2.86-2.87,6.8-5.43,9.5-8.38,8.43-9.22.38-23.33-11.84-20.74-1.3.27-3.8,1.87-4.56,1.47l-59.72-67.86c-3.6-2.65-6.85-9.26-11.02-10.74-4.31-1.53-8.21-.14-11.41,2.93-5.33-7.36-12.93-11.7-21.92-7.61l-34.44-38.81c-3.97-2.33-7.54,1.94-4.7,5.62ZM397.83,379.6c3.11.67,5.66,4.22,7.41,6.71l-11.41,9.85c-2.03-2.4-5.19-4.81-5.5-8.16-.48-5.28,4.29-9.52,9.5-8.4ZM413.24,389.32c1.95-1.67,4.54-5.98,7.49-3.46l4.47,5.33c-1.83,3.11-10.65,6.89-7.26,11.28,3.75,4.85,9.04-3.95,12.32-5.38l8.5,9.44-.24.87-13.13,11.65c-1.85,3.85,2.03,6.97,5.66,4.57,3.77-2.49,8.02-7.66,11.75-10.62.26-.21.76-.54,1.07-.5,2.55,2.3,4.74,5.08,6.97,7.73-1.8,2.93-11.18,7.48-6.92,11.63,3.84,3.75,8.89-4.09,11.9-5.95l8.53,9.37.18.82-13.3,11.82c-1.81,3.37.96,6.59,4.6,5.2,1.91-1.17,12.53-11.62,13.52-11.55,1.35.09,5.34,6.13,6.88,7.09l.31.78c-1.99,2.64-11.01,7.24-7.14,11.27,3.89,4.06,8.88-3.76,11.94-5.61.32-.03,1.41,1.02,1.73,1.33.56.55,4.16,4.59,4.32,4.97.24.55.31,1.03-.16,1.47l-27.76,24.52-1.51-.96-66.35-75.3c-.93-1.42-.33-2.31.63-3.48,6.93-6.21,13.96-12.28,21.03-18.33ZM501.79,462.62c3.82.85,5.32,6.06,2.31,8.69-13.12,11.38-25.88,23.29-39.22,34.35-5.03,1.54-9.09-4.06-5.71-8.3l38.51-34.04c1.31-.8,2.6-1.03,4.1-.7ZM494.22,490.42l15,16.93c.01.53-6.68,6.17-7.77,6.88l-14.96-16.98c-.13-.44.11-.65.35-.96.44-.58,5.76-5.28,6.39-5.65.36-.21.53-.38,1-.23ZM516.49,510.89c2.37-2.03,5.95-6.48,9.32-6.12,3.98.43,6.24,5.5,3.43,8.59-7.89,6.14-15.47,15.18-23.5,20.86-5.88,4.16-11.3-2.07-7.61-7.13,6.05-5.48,12.17-10.9,18.36-16.2Z"/>
  <path class="st0" d="M290.35,459.58h0c-3.47-.18-6.14-3.14-5.95-6.62h0c.15-3.44,3.1-6.14,6.58-5.95h0c3.47.18,6.14,3.14,5.95,6.58h0c-.15,3.36-2.92,5.99-6.25,5.99h-.33ZM260.57,456.03c-3.36-.92-5.36-4.36-4.43-7.72h0c.92-3.36,4.36-5.32,7.72-4.4h0v-.04h0c3.33.92,5.32,4.36,4.4,7.72h0c-.74,2.81-3.29,4.66-6.06,4.66h0c-.55,0-1.11-.07-1.63-.22ZM238.66,446.98h0c-2.99-1.7-4.07-5.54-2.33-8.54h0c1.7-3.03,5.54-4.1,8.54-2.36h0c3.03,1.7,4.1,5.54,2.37,8.57h0c-1.15,2.03-3.29,3.18-5.47,3.18h0c-1.04,0-2.11-.3-3.1-.85ZM219.7,433.12c-2.55-2.33-2.73-6.32-.41-8.87h0c2.33-2.59,6.28-2.77,8.87-.41h0c2.55,2.33,2.77,6.28.41,8.87h0c-1.22,1.37-2.92,2.03-4.62,2.03h0c-1.52,0-3.03-.52-4.25-1.63ZM203.96,416.16c-2.14-2.74-1.7-6.69,1.03-8.83h0c2.7-2.14,6.65-1.7,8.83,1h0c2.14,2.74,1.7,6.69-1.03,8.83h0c-1.15.92-2.51,1.37-3.88,1.37h0c-1.85,0-3.7-.81-4.95-2.37ZM190.84,397.42c-1.81-2.92-.92-6.8,2.03-8.65h0c2.92-1.85,6.8-.92,8.65,2h0c1.81,2.96.92,6.84-2,8.68h0c-1.03.63-2.22.92-3.33.92h0c-2.11,0-4.14-1.03-5.36-2.96ZM179.68,377.73c-1.59-3.11-.37-6.88,2.7-8.5h0c3.1-1.59,6.87-.37,8.46,2.74h0c1.59,3.07.41,6.87-2.7,8.46h0c-.92.48-1.88.7-2.85.7h0c-2.29,0-4.51-1.26-5.62-3.4ZM170.07,357.1c-1.29-3.22.26-6.87,3.47-8.17h0c3.22-1.29,6.87.26,8.17,3.47h0c1.29,3.22-.26,6.87-3.47,8.17h0c-.78.33-1.55.44-2.37.44h0c-2.48,0-4.84-1.48-5.8-3.92ZM162.83,335.34c-.89-3.36,1.11-6.8,4.47-7.69h0c3.36-.89,6.8,1.11,7.69,4.47h0c.89,3.36-1.15,6.8-4.47,7.69h0c-.55.15-1.11.19-1.63.19h0c-2.77,0-5.32-1.85-6.06-4.66ZM158.35,312.83c-.48-3.44,1.96-6.62,5.4-7.06h0c3.44-.48,6.58,1.96,7.06,5.4h0c.48,3.44-1.96,6.58-5.4,7.06h0c-.3.04-.55.04-.85.04h0c-3.1,0-5.8-2.29-6.21-5.43ZM156.65,289.99c-.04-3.47,2.74-6.32,6.21-6.39h0c3.47-.04,6.32,2.74,6.36,6.21h0c.07,3.47-2.7,6.32-6.17,6.36h-.07c-3.44,0-6.25-2.73-6.32-6.17ZM163.31,273.99c-3.47-.37-5.95-3.44-5.62-6.87h0c.37-3.47,3.47-5.99,6.91-5.62h0c3.44.37,5.95,3.44,5.62,6.91h0c-.33,3.22-3.07,5.62-6.25,5.62h0c-.22,0-.44,0-.66-.04ZM166.15,252c-3.4-.78-5.54-4.1-4.77-7.5h0c.74-3.4,4.1-5.51,7.5-4.77h0c3.4.78,5.51,4.14,4.77,7.5h0c-.66,2.92-3.25,4.92-6.13,4.92h0c-.44,0-.92-.04-1.37-.15ZM171.4,230.42c-3.18-1.37-4.69-5.06-3.33-8.24h0c1.33-3.21,5.03-4.69,8.24-3.33h0c3.18,1.33,4.69,5.03,3.33,8.24h0c-1.03,2.37-3.33,3.81-5.8,3.81h0c-.81,0-1.63-.15-2.44-.48Z"/>
  <path class="st0" d="M217.74,395.21c-2.85-2.03-3.47-5.99-1.44-8.79h0c2.03-2.81,5.95-3.44,8.76-1.41h0c2.85,2.03,3.47,5.95,1.44,8.76h0c-1.22,1.7-3.14,2.62-5.1,2.62h0c-1.26,0-2.55-.41-3.66-1.18ZM231.67,377.95c-2.22-2.66-1.85-6.62.81-8.83h0c2.66-2.22,6.65-1.85,8.87.81h0c2.22,2.66,1.85,6.62-.81,8.83h0c-1.18,1-2.62,1.48-4.03,1.48h0c-1.81,0-3.59-.78-4.84-2.29ZM246.42,362.06c-.66-3.4,1.55-6.73,4.99-7.39h0c3.4-.66,6.69,1.59,7.36,4.99h0c.66,3.4-1.55,6.69-4.95,7.36h0c-.41.07-.81.11-1.22.11h0c-2.96,0-5.58-2.07-6.17-5.06ZM242.17,340.29c-.66-3.4,1.55-6.69,4.99-7.35h0c3.4-.67,6.69,1.55,7.35,4.95h0c.67,3.4-1.55,6.69-4.95,7.36h0c-.41.07-.81.15-1.22.15h0c-2.96,0-5.58-2.11-6.17-5.1ZM224.02,336.81c-.15-3.47,2.51-6.39,5.99-6.58h0c3.47-.18,6.39,2.51,6.58,5.99h0c.15,3.44-2.51,6.39-5.99,6.58h-.3c-3.33,0-6.1-2.62-6.28-5.99ZM206.95,340.99h0c-3.4-.7-5.54-4.07-4.84-7.47h0c.74-3.36,4.07-5.54,7.47-4.81h0c3.4.7,5.58,4.07,4.84,7.47h0c-.63,2.92-3.25,4.95-6.17,4.95h0c-.41,0-.85-.04-1.29-.15ZM183.96,331.46h0c-2.73-2.18-3.18-6.1-1.03-8.83h0c2.14-2.73,6.1-3.18,8.83-1.03h0c2.74,2.14,3.18,6.1,1.04,8.83h0c-1.26,1.55-3.07,2.37-4.95,2.37h0c-1.33,0-2.74-.44-3.88-1.33Z"/>
  <path class="st0" d="M410.21,222.18c-1.03-2.4-3.33-3.84-5.77-3.84-.85,0-1.66.18-2.48.52-3.18,1.33-4.69,4.99-3.33,8.2,1,2.4,3.33,3.84,5.76,3.84.85,0,1.66-.15,2.48-.48,2.36-1.03,3.84-3.36,3.84-5.8,0-.81-.18-1.63-.52-2.44ZM416.89,244.5c-.67-2.96-3.29-4.91-6.13-4.91-.44,0-.92.04-1.37.15-3.4.78-5.54,4.14-4.77,7.5.67,2.92,3.25,4.92,6.13,4.92.44,0,.92-.04,1.37-.15,2.96-.66,4.92-3.25,4.92-6.13,0-.44-.04-.92-.15-1.37ZM420.55,267.12c-.3-3.25-3.03-5.65-6.21-5.65-.22,0-.44,0-.67.04-3.47.37-5.99,3.44-5.62,6.91.33,3.22,3.07,5.62,6.25,5.62.22,0,.44,0,.67-.04,3.22-.3,5.62-3.03,5.62-6.21,0-.22,0-.44-.04-.66ZM415.38,283.6h-.07c-3.4,0-6.25,2.77-6.28,6.21-.04,3.47,2.74,6.32,6.21,6.36h.07c3.44,0,6.25-2.73,6.28-6.17v-.07c0-3.44-2.77-6.25-6.21-6.32ZM414.53,305.77c-3.44-.48-6.62,1.92-7.06,5.36v.04c-.48,3.44,1.92,6.58,5.36,7.06.3.04.59.04.85.04,3.1,0,5.8-2.29,6.25-5.43.04-.26.04-.55.04-.81,0-3.1-2.25-5.84-5.43-6.25ZM410.98,327.65c-.55-.15-1.07-.22-1.63-.22-2.77,0-5.32,1.88-6.06,4.69-.89,3.36,1.11,6.8,4.47,7.69.55.15,1.07.18,1.59.18,2.81,0,5.36-1.85,6.1-4.66.15-.55.22-1.07.22-1.63,0-2.77-1.88-5.32-4.69-6.06ZM404.74,348.94c-.78-.3-1.55-.44-2.33-.44-2.51,0-4.84,1.48-5.84,3.92-1.33,3.22.22,6.87,3.47,8.17.78.3,1.55.44,2.33.44,2.48,0,4.84-1.48,5.84-3.92.3-.78.44-1.55.44-2.33,0-2.51-1.48-4.84-3.92-5.84ZM372.95,407.14c-1.11-.81-2.33-1.18-3.59-1.18-1.85,0-3.66.81-4.91,2.37-2.14,2.73-1.7,6.69,1,8.83,1.18.92,2.55,1.37,3.92,1.37,1.66,0,3.33-.67,4.55-1.92-1.07-3.07-1.4-6.28-.96-9.46ZM358.98,424.25c-1.26-1.37-2.96-2.07-4.66-2.07-1.52,0-3.03.55-4.21,1.66-2.59,2.33-2.77,6.28-.44,8.87,1.26,1.37,2.96,2.03,4.66,2.03,1.52,0,3.03-.52,4.21-1.63,1.37-1.26,2.07-2.96,2.07-4.66,0-1.51-.55-3.03-1.63-4.21ZM341.95,438.44c-1.15-2.03-3.29-3.18-5.47-3.18-1.03,0-2.11.26-3.1.81-2.99,1.7-4.07,5.54-2.33,8.57,1.15,2.03,3.25,3.18,5.47,3.18,1.03,0,2.11-.26,3.07-.85,2.03-1.15,3.18-3.29,3.18-5.43,0-1.07-.26-2.14-.81-3.1ZM322.14,448.31c-.78-2.81-3.29-4.62-6.02-4.62-.55,0-1.15.07-1.7.22-3.33.89-5.32,4.32-4.4,7.69.74,2.81,3.29,4.66,6.02,4.66.55,0,1.11-.07,1.66-.22,2.81-.78,4.66-3.33,4.66-6.1,0-.52-.07-1.07-.22-1.63Z"/>
  <path class="st0" d="M395.31,322.63c-1.22-1.59-3.07-2.4-4.91-2.4-1.37,0-2.73.44-3.88,1.37-2.73,2.14-3.18,6.1-1.03,8.83,1.22,1.55,3.07,2.37,4.91,2.37,1.37,0,2.73-.44,3.92-1.33,1.55-1.26,2.37-3.07,2.37-4.91,0-1.37-.44-2.77-1.37-3.92ZM376.13,333.53c-.59-2.92-3.22-4.95-6.1-4.95-.44,0-.89.04-1.33.15-1.29.26-2.4.92-3.22,1.81l8.28,9.35c1.55-1.15,2.51-2.99,2.51-4.99,0-.48-.04-.92-.15-1.37ZM331.12,332.94c-.41-.07-.81-.11-1.22-.11-2.92,0-5.54,2.07-6.13,5.06-.67,3.4,1.55,6.69,4.95,7.35.41.07.81.15,1.22.15,2.92,0,5.58-2.11,6.13-5.1.07-.41.11-.81.11-1.22,0-2.92-2.07-5.54-5.06-6.13ZM326.87,354.67c-.41-.07-.81-.11-1.18-.11-2.96,0-5.58,2.11-6.17,5.1-.66,3.4,1.55,6.69,4.95,7.35.41.07.81.11,1.22.11,2.92,0,5.58-2.07,6.13-5.06.07-.41.11-.81.11-1.22,0-2.92-2.07-5.58-5.06-6.17ZM345.79,369.11h-.04c-1.18-.96-2.59-1.44-3.99-1.44-1.81,0-3.58.78-4.84,2.25-2.22,2.66-1.85,6.61.81,8.83,1.18,1,2.62,1.48,4.03,1.48,1.81,0,3.58-.78,4.84-2.29.96-1.18,1.44-2.59,1.44-3.99,0-1.81-.78-3.58-2.25-4.84ZM361.98,386.41c-1.22-1.7-3.14-2.59-5.1-2.59-1.26,0-2.55.37-3.7,1.18-2.81,2.03-3.44,5.95-1.4,8.76,1.22,1.7,3.14,2.62,5.1,2.62,1.26,0,2.55-.41,3.66-1.18,1.7-1.22,2.62-3.18,2.62-5.14,0-1.29-.37-2.55-1.18-3.66Z"/>
</svg>