<?xml version="1.0" encoding="UTF-8"?>
<svg id="Layer_1" xmlns="http://www.w3.org/2000/svg" version="1.1" viewBox="0 0 600 600">
  <!-- Generator: Adobe Illustrator 29.5.1, SVG Export Plug-In . SVG Version: 2.1.0 Build 141)  -->
  <path d="M299.3,482.18c-97.91,0-168.77-117.69-171.29-223.5-.81-6-7.33-59.09,8.26-101.72.65-1.8,1.95-3.3,3.63-4.21.7-.38,68.61-37.85,85.35-82.97-4.6-10.16-6.67-22.29-5.44-36.82.18-2.06,1.15-3.97,2.73-5.32,2.96-2.54,73.82-61.5,185.38.95,54.46,30.48,93.61,92.07,107.44,168.98,14.21,79.05.79,164.09-37.79,239.47-.88,1.72-2.37,3.06-4.18,3.76-1.95.75-48.4,18.48-100.08,21.29-1.46.08-2.84-.24-4.05-.87-20.46,13.1-43.81,20.95-69.96,20.95ZM150.12,165.07c-13.57,40.24-6.51,91.34-6.44,91.86.05.31.07.62.08.94,2.16,98.64,66.57,208.54,155.53,208.54,56.91,0,95.02-42.14,116.97-77.5,25.24-40.65,42.22-94.67,43.27-137.62.05-1.02,4.02-77.09-21.08-109.42-7.51-9.67-39.6-12.75-70.64-15.73-46.23-4.43-104.57-10.04-132.3-40.76-21.16,40.93-72.84,72.46-85.4,79.69ZM235.3,37.7c-2.34,55.18,56.76,65.33,134.03,72.75,39.06,3.75,69.91,6.71,81.59,21.75,28.72,37,24.56,116.37,24.37,119.73-1.37,56.44-30.16,143.46-84.56,192.77,34.92-4.3,65.09-14.36,74.18-17.6,72.85-145.29,42.96-324.49-64.7-384.76-90.83-50.85-152.07-13.8-164.91-4.64Z"/>
  <path d="M65.94,600c-.77,0-1.56-.12-2.34-.36-4.16-1.29-6.48-5.7-5.19-9.87,14.92-48.09,55.67-63.26,91.63-76.64,12.87-4.79,25.03-9.32,35.48-15.06,35.37-19.44,33.78-46.34,33.7-47.48-.32-4.32,2.89-8.12,7.2-8.48,4.32-.36,8.11,2.78,8.51,7.09.15,1.54,3.01,38.05-41.8,62.69-11.47,6.3-24.15,11.02-37.58,16.02-34.14,12.71-69.45,25.85-82.07,66.54-1.05,3.38-4.16,5.55-7.53,5.55Z"/>
  <path d="M534.06,600c-3.36,0-6.48-2.17-7.53-5.55-12.62-40.69-47.93-53.83-82.07-66.54-13.43-5-26.11-9.72-37.58-16.02-44.81-24.64-41.95-61.15-41.8-62.69.4-4.33,4.23-7.55,8.58-7.12,4.32.4,7.49,4.21,7.13,8.52-.1,1.27-1.57,28.08,33.7,47.47,10.45,5.75,22.61,10.27,35.48,15.06,35.96,13.38,76.71,28.55,91.63,76.64,1.29,4.16-1.04,8.58-5.19,9.87-.78.24-1.57.36-2.34.36Z"/>
  <g>
    <path d="M344.6,377.17c-8.96-1.06-22.53-9.73-31.01-8.99-3.63.32-9.18,4.21-12.08,4.15-3.59-.08-7.87-4.74-15.12-3.99-3.62.37-21.51,6.27-25.46,7.9-4.55,1.87-6.83,6.7-4.29,11.17,3.23,5.69,9.36,3.17,14.57,1.67,4.5-1.29,11.64-5.37,15.82-5.59,4.88-.26,10.16,3.35,14.52,3.5,3.99.13,8.49-2.94,12-3.43,8.45-1.18,23.46,11.87,31.94,5.49,4.1-3.08,3.22-9.22-.89-11.88Z"/>
    <path d="M411.28,270.35c3.68-5.56-.52-13.07-7.03-12.24-3.57.46-8.25,5.91-11.73,7.99-11.9,7.12-25.84,7.33-37.88.24-5.03-2.96-13.06-12.56-19.39-5.42-5.33,6.02.97,11.49,5.73,14.81,16.84,11.73,38.89,14.56,57.21,4.58,3.06-1.67,11.32-7.29,13.09-9.96Z"/>
    <path d="M259.71,258.86c-3.41.65-10.24,7.84-14.99,9.77-10.64,4.32-21.61,3.6-31.78-1.52-5.66-2.85-14.32-13.53-20.9-6.32-4.17,4.57-1.04,9.17,2.75,12.51,19.99,17.63,52.12,17.23,71.71-.83,6.58-6.06,2.77-15.44-6.79-13.61Z"/>
    <path d="M306.55,402.2c-2.74.28-6.57.36-9.28.1-5.02-.48-15.1-5.93-17.92.88-5.98,14.4,22.43,14.55,30.66,13.58,2.37-.28,11.97-3.02,13.35-4.58,2.22-2.49,2.04-8.16-.29-10.48-4.07-4.07-11.62.02-16.52.51Z"/>
    <path d="M306.64,347.64c7.26-.73,22.89-7.49,15.69-16.53-5.56-6.98-13.62,2.55-19.05,2.75-6.72.26-13.45-6.63-19.51-4.83-1.03.31-3.53,2.81-3.84,3.84-3.74,12.56,18.24,15.61,26.72,14.77Z"/>
    <path d="M261.92,235.46c-1.1,0-2.22-.27-3.25-.85-26.21-14.59-46.63-2.62-47.49-2.1-3.15,1.9-7.27.91-9.19-2.23-1.92-3.14-.96-7.24,2.17-9.18,1.12-.69,27.72-16.73,61.03,1.81,3.23,1.8,4.4,5.88,2.6,9.11-1.23,2.2-3.51,3.44-5.86,3.44Z"/>
    <path d="M338.56,235.46c-2.35,0-4.63-1.24-5.86-3.44-1.8-3.23-.64-7.31,2.6-9.11,33.3-18.54,59.91-2.49,61.03-1.81,3.14,1.95,4.11,6.08,2.17,9.22-1.94,3.13-6.05,4.11-9.19,2.18-.89-.54-21.3-12.46-47.48,2.11-1.03.58-2.15.85-3.25.85Z"/>
  </g>
  <path d="M138.54,220.88c-1.5,0-3-.49-4.27-1.48-2.98-2.36-3.49-6.68-1.14-9.67.11-.13,2.64-3.34,7.55-8.25,2.69-2.69,7.06-2.69,9.74,0s2.69,7.05,0,9.74c-4.27,4.27-6.46,7.02-6.48,7.04-1.36,1.72-3.38,2.61-5.41,2.61ZM460.13,211.4c-1.59,0-3.19-.55-4.49-1.67l-7.82-6.78c-2.88-2.49-3.18-6.84-.69-9.72,2.49-2.88,6.84-3.19,9.72-.69l7.78,6.75c2.88,2.48,3.21,6.83.72,9.72-1.36,1.58-3.29,2.39-5.22,2.39ZM163.79,197.45c-2.08,0-4.14-.94-5.49-2.73-2.3-3.03-1.71-7.36,1.32-9.65,2.79-2.12,5.72-4.22,8.68-6.24,3.14-2.14,7.44-1.34,9.57,1.81,2.14,3.14,1.33,7.43-1.81,9.57-2.9,1.97-5.6,3.93-8.11,5.83-1.25.94-2.71,1.4-4.16,1.4ZM433.67,189.42c-1.42,0-2.84-.43-4.07-1.33-2.79-2.04-5.45-3.87-8.14-5.59-3.21-2.04-4.15-6.31-2.11-9.51,2.04-3.21,6.3-4.16,9.51-2.11,2.94,1.88,5.85,3.87,8.88,6.09,3.07,2.25,3.73,6.56,1.49,9.63-1.35,1.84-3.45,2.82-5.56,2.82ZM192.89,179.05c-2.49,0-4.89-1.35-6.12-3.71-1.76-3.38-.45-7.54,2.93-9.3,3.16-1.64,6.39-3.23,9.6-4.69,3.46-1.58,7.55-.07,9.13,3.39s.07,7.55-3.39,9.13c-3.11,1.42-6.1,2.89-8.97,4.39-1.02.53-2.11.78-3.18.78ZM403.86,172.39c-.89,0-1.8-.17-2.68-.54-2.96-1.25-6.06-2.44-9.22-3.55-3.6-1.25-5.49-5.18-4.24-8.77,1.25-3.6,5.18-5.49,8.77-4.24,3.43,1.2,6.82,2.49,10.05,3.86,3.5,1.48,5.15,5.52,3.66,9.03-1.11,2.63-3.66,4.21-6.35,4.21ZM224.62,165.72c-2.9,0-5.6-1.84-6.55-4.75-1.19-3.62.79-7.51,4.4-8.69,3.31-1.09,6.72-2.11,10.21-3.07,3.66-1.02,7.46,1.15,8.47,4.82,1.01,3.67-1.15,7.46-4.82,8.47-3.28.9-6.47,1.86-9.58,2.88-.71.23-1.44.34-2.14.34ZM371.04,162.26c-.49,0-.97-.05-1.46-.15-3.16-.69-6.44-1.32-9.87-1.92-3.75-.65-6.26-4.23-5.6-7.98.65-3.75,4.19-6.26,7.98-5.6,3.61.63,7.07,1.31,10.4,2.02,3.72.8,6.08,4.47,5.28,8.19-.7,3.23-3.56,5.44-6.73,5.44ZM258.06,157.67c-3.33,0-6.26-2.42-6.8-5.81-.6-3.76,1.97-7.29,5.72-7.89,3.45-.55,6.96-1.03,10.56-1.43,3.79-.4,7.19,2.31,7.61,6.09.42,3.78-2.3,7.19-6.09,7.61-3.38.38-6.68.83-9.92,1.34-.37.06-.73.08-1.09.08ZM337.05,157.06c-.23,0-.46-.01-.69-.03-3.27-.32-6.64-.62-10.12-.88-3.8-.28-6.64-3.59-6.36-7.39.28-3.79,3.53-6.57,7.39-6.36,3.6.27,7.07.57,10.45.91,3.79.38,6.55,3.75,6.17,7.54-.35,3.56-3.35,6.21-6.85,6.21ZM302.69,154.93h-.16l-1.04-.03c-2.27-.06-4.5-.09-6.69-.09h-2.39s-.05.01-.07.01c-3.78,0-6.86-3.04-6.89-6.82-.03-3.81,3.02-6.92,6.82-6.96h2.52c2.32-.01,4.66.02,7.03.08l1,.02c3.81.09,6.82,3.24,6.74,7.04-.08,3.75-3.15,6.74-6.89,6.74Z"/>
  <path d="M444.7,358.27c-2.1,0-4.19-.83-5.74-2.48-2.98-3.17-2.83-8.16.33-11.14,9.66-9.1,35.49-36.63,38.95-54.41,3.04-15.62-5.99-19-7.83-19.53-4.14-1.17-6.65-5.45-5.55-9.61,1.1-4.15,5.28-6.67,9.41-5.67,8.86,2.16,24.32,12.84,19.45,37.83-5.05,25.95-39.69,59.16-43.62,62.87-1.52,1.43-3.46,2.14-5.4,2.14Z"/>
  <path d="M152.91,358.27c-2.04,0-4.08-.79-5.62-2.36-1.45-1.47-35.53-36.42-40.64-62.65-4.82-24.76,8.61-35.52,16.38-37.75,4.17-1.2,8.55,1.22,9.75,5.41,1.18,4.12-1.15,8.42-5.22,9.69-1.02.38-8.53,3.71-5.44,19.63,3.49,17.91,27.47,45.5,36.42,54.62,3.05,3.11,3,8.1-.11,11.15-1.53,1.51-3.53,2.26-5.52,2.26Z"/>
  <path d="M227.67,463.49c-.22,0-.45,0-.67-.03-33.03-2.79-99.97-18.9-102.81-19.58-2.26-.55-4.16-2.06-5.2-4.15-3.03-6.07-73.65-150.31-28.04-285.82C132.33,30.98,223.49,25.9,227.35,25.74c4.47-.15,8.02,3.21,8.2,7.56.18,4.34-3.19,8.01-7.53,8.2h0c-3.43.16-84.35,5.23-122.11,117.45-39.83,118.33,15.52,248.33,25.67,270.48,14.61,3.44,69.21,16,96.77,18.33,4.34.37,7.56,4.18,7.19,8.52-.35,4.11-3.8,7.22-7.85,7.22Z"/>
</svg>