<?xml version="1.0" encoding="UTF-8"?>
<svg id="Layer_1" xmlns="http://www.w3.org/2000/svg" version="1.1" viewBox="0 0 600 600">
  <!-- Generator: Adobe Illustrator 29.5.1, SVG Export Plug-In . SVG Version: 2.1.0 Build 141)  -->
  <defs>
    <style>
      .st0 {
        fill: #191919;
      }
    </style>
  </defs>
  <path class="st0" d="M281.74,511.73c-3.25,0-6.55-.1-9.95-.31-114.47-6.96-160.11-113.42-160.56-114.49-1.58-3.79.21-8.14,4-9.72,3.81-1.58,8.15.22,9.72,4,.41.98,42.69,98.98,147.74,105.37,94.91,5.77,121.68-79.65,126.09-96.88-14.49-24.36-5.82-50.76-2.62-58.69-7.68-42.02-20.19-58.03-96.21-141.74C220.28,111.57,221.97,11.46,222.08,7.24c.11-4.04,3.41-7.24,7.43-7.24.07,0,.13,0,.2,0,4.1.11,7.34,3.52,7.24,7.62h0c-.02.98-1.49,98.53,74.01,181.66,78.69,86.64,91.93,104,100.23,151.34.27,1.53.05,3.11-.62,4.51-.12.25-12.54,27.08,2.33,49.08,1.12,1.66,1.53,3.71,1.12,5.68-.24,1.15-24.52,111.84-132.28,111.85Z"/>
  <path class="st0" d="M258.26,600h-105.07c-4.11,0-7.44-3.33-7.44-7.44s3.33-7.44,7.44-7.44h96.81c-4.84-56.6,15.37-84.37,16.28-85.58,2.46-3.28,7.12-3.96,10.41-1.5,3.28,2.45,3.95,7.09,1.52,10.37-.32.43-19.46,27.64-12.58,83.23.27,2.12-.4,4.24-1.8,5.84-1.41,1.6-3.44,2.51-5.57,2.51Z"/>
  <path class="st0" d="M295.72,511.15c-3.77,0-7-2.85-7.39-6.67-.42-4.09,2.55-7.74,6.63-8.16,1.2-.12,2.4-.26,3.58-.4,4.04-.48,7.78,2.43,8.26,6.51.48,4.08-2.43,7.78-6.51,8.26-1.26.15-2.53.29-3.81.42-.26.03-.52.04-.77.04ZM328.62,505.37c-3.33,0-6.35-2.25-7.2-5.62-1-3.98,1.41-8.02,5.39-9.03,1.17-.29,2.32-.6,3.47-.91,3.99-1.07,8.05,1.28,9.12,5.24,1.07,3.96-1.27,8.05-5.24,9.12-1.23.33-2.47.66-3.71.97-.61.15-1.22.23-1.83.23ZM360.31,494.78c-2.9,0-5.66-1.71-6.85-4.55-1.6-3.78.18-8.14,3.96-9.74,1.11-.47,2.21-.94,3.3-1.43,3.77-1.66,8.15.05,9.81,3.8,1.66,3.76-.04,8.15-3.8,9.81-1.17.51-2.34,1.02-3.53,1.52-.94.4-1.92.59-2.89.59ZM390.03,479.5c-2.5,0-4.94-1.26-6.34-3.55-2.15-3.5-1.05-8.08,2.45-10.23,1.02-.63,2.04-1.27,3.05-1.91,3.47-2.2,8.06-1.18,10.26,2.28,2.2,3.47,1.18,8.06-2.28,10.27-1.07.68-2.16,1.36-3.25,2.03-1.21.74-2.56,1.1-3.88,1.1ZM417.17,459.98c-2.13,0-4.25-.91-5.72-2.68-2.63-3.16-2.2-7.85.96-10.47.93-.77,1.84-1.55,2.75-2.33,3.11-2.68,7.81-2.32,10.49.8s2.32,7.81-.8,10.49c-.97.83-1.94,1.65-2.93,2.48-1.39,1.16-3.08,1.72-4.75,1.72ZM441.35,436.87c-1.79,0-3.59-.65-5.02-1.95-3.03-2.77-3.24-7.48-.46-10.51.82-.9,1.63-1.79,2.43-2.69,2.73-3.06,7.44-3.33,10.5-.59,3.06,2.74,3.33,7.44.59,10.5-.84.94-1.69,1.88-2.56,2.83-1.47,1.6-3.47,2.41-5.49,2.41ZM462.4,410.84c-1.49,0-3-.45-4.31-1.38-3.34-2.38-4.12-7.03-1.74-10.37.71-1,1.41-1.98,2.08-2.96,2.34-3.38,6.97-4.22,10.35-1.88,3.38,2.34,4.22,6.97,1.88,10.35-.72,1.03-1.45,2.08-2.2,3.13-1.45,2.04-3.74,3.12-6.06,3.12ZM480.15,382.44c-1.19,0-2.41-.29-3.53-.9-3.61-1.95-4.95-6.47-3-10.08.6-1.1,1.16-2.16,1.7-3.19,1.9-3.64,6.39-5.05,10.04-3.15,3.64,1.9,5.05,6.39,3.15,10.03-.57,1.09-1.17,2.22-1.8,3.39-1.35,2.49-3.9,3.9-6.55,3.9ZM480.33,356.62c-1.33,0-2.67-.35-3.88-1.1-1.07-.66-2.16-1.34-3.26-2.04-3.46-2.21-4.48-6.8-2.28-10.27,2.21-3.46,6.8-4.49,10.27-2.28,1.03.66,2.05,1.29,3.05,1.91,3.5,2.15,4.59,6.73,2.44,10.23-1.41,2.28-3.84,3.54-6.34,3.54ZM452.79,337.53c-1.56,0-3.13-.49-4.47-1.5l-3-2.28c-3.26-2.5-3.88-7.16-1.38-10.42,2.5-3.26,7.17-3.87,10.42-1.38l2.92,2.22c3.27,2.47,3.93,7.14,1.46,10.41-1.46,1.94-3.69,2.96-5.94,2.96ZM426.58,316.65c-1.67,0-3.35-.56-4.74-1.71l-2.89-2.41c-3.15-2.64-3.56-7.33-.92-10.48,2.64-3.15,7.33-3.55,10.47-.92l2.82,2.36c3.16,2.62,3.6,7.31.98,10.47-1.47,1.77-3.59,2.69-5.73,2.69ZM401.14,294.83c-1.74,0-3.5-.61-4.91-1.85l-2.81-2.48c-3.07-2.73-3.35-7.43-.63-10.5,2.72-3.07,7.42-3.36,10.5-.63l2.77,2.45c3.08,2.71,3.38,7.41.67,10.49-1.47,1.67-3.52,2.52-5.58,2.52ZM376.26,272.37c-1.8,0-3.61-.65-5.04-1.97l-2.74-2.53c-3.02-2.79-3.2-7.49-.41-10.51,2.79-3.02,7.49-3.2,10.51-.41l2.73,2.52c3.02,2.78,3.21,7.49.43,10.51-1.47,1.59-3.46,2.4-5.47,2.4ZM351.81,249.44c-1.84,0-3.69-.68-5.13-2.05l-2.71-2.59c-2.97-2.84-3.07-7.55-.23-10.51,2.84-2.97,7.56-3.06,10.51-.23l2.68,2.56c2.97,2.83,3.09,7.54.26,10.51-1.46,1.54-3.42,2.31-5.39,2.31ZM327.73,226.06c-1.89,0-3.78-.72-5.24-2.15l-2.7-2.69c-2.9-2.91-2.88-7.62.03-10.52,2.92-2.9,7.62-2.88,10.51.03l2.63,2.62c2.92,2.89,2.94,7.6.05,10.52-1.46,1.47-3.37,2.2-5.28,2.2Z"/>
  <g>
    <path class="st0" d="M287.67,382.32c-3.02,0-5.54-2.38-5.67-5.43-.14-3.13,2.29-5.79,5.43-5.92l54.34-2.37c3.16-.12,5.79,2.29,5.92,5.43.14,3.13-2.29,5.79-5.43,5.92l-54.34,2.37c-.08,0-.17,0-.25,0Z"/>
    <path class="st0" d="M323.67,406.3c-1.52,0-3.04-.61-4.16-1.81-2.13-2.3-2-5.89.29-8.03l24.09-22.4-25.95-20.22c-2.47-1.93-2.92-5.5-.99-7.97,1.92-2.47,5.5-2.92,7.97-.99l31.21,24.32c1.31,1.02,2.11,2.57,2.18,4.23s-.59,3.27-1.81,4.41l-28.98,26.94c-1.09,1.02-2.48,1.52-3.87,1.52Z"/>
  </g>
</svg>