<?xml version="1.0" encoding="UTF-8"?>
<svg id="Layer_1" xmlns="http://www.w3.org/2000/svg" version="1.1" viewBox="0 0 600 600">
  <!-- Generator: Adobe Illustrator 29.5.1, SVG Export Plug-In . SVG Version: 2.1.0 Build 141)  -->
  <defs>
    <style>
      .st0 {
        fill: #191919;
      }
    </style>
  </defs>
  <path class="st0" d="M198.86,524.63c-3.1,0-5.92-2.11-6.67-5.26l-.71-3c-.87-3.69,1.38-7.57,5.07-8.44,3.69-.87,7.35,1.24,8.21,4.93l.09.37.69,2.93c.89,3.69-1.38,7.4-5.07,8.28-.54.13-1.08.19-1.61.19ZM192.24,495.16c-3.18,0-6.02-2.21-6.71-5.45-1.13-5.34-2.2-10.63-3.23-15.85-.73-3.72,1.69-7.33,5.41-8.06,3.75-.74,7.33,1.69,8.06,5.42,1.01,5.15,2.07,10.37,3.19,15.65.78,3.71-1.58,7.35-5.3,8.14-.48.1-.96.15-1.43.15ZM184.18,453.07c-3.28,0-6.18-2.36-6.76-5.7-.93-5.39-1.8-10.71-2.62-15.96-.59-3.75,1.98-7.26,5.72-7.85,3.74-.59,7.26,1.98,7.84,5.72.81,5.18,1.67,10.43,2.59,15.75.65,3.74-1.86,7.29-5.6,7.94-.39.07-.78.1-1.17.1ZM177.77,410.71c-3.4,0-6.35-2.52-6.8-5.97-.71-5.45-1.37-10.8-1.97-16.07-.43-3.77,2.28-7.17,6.05-7.6,3.75-.43,7.17,2.28,7.6,6.05.59,5.19,1.23,10.47,1.94,15.84.49,3.76-2.15,7.21-5.92,7.7-.31.04-.6.06-.9.06ZM173.15,368.11c-3.53,0-6.53-2.7-6.84-6.28-.47-5.49-.88-10.87-1.24-16.14-.26-3.78,2.6-7.06,6.38-7.32,3.71-.28,7.05,2.6,7.32,6.38.35,5.19.77,10.49,1.23,15.91.32,3.78-2.48,7.1-6.26,7.43-.2.02-.4.03-.6.03ZM170.48,325.34c-3.67,0-6.72-2.91-6.86-6.61-.21-5.55-.36-10.95-.45-16.2-.07-3.79,2.95-6.92,6.74-6.99.04,0,.08,0,.13,0,3.73,0,6.79,2.99,6.86,6.74.09,5.16.24,10.47.45,15.93.14,3.79-2.81,6.98-6.6,7.12-.09,0-.18,0-.26,0ZM170.02,282.49s-.08,0-.12,0c-3.79-.06-6.81-3.19-6.75-6.98.09-5.62.25-11.03.45-16.21.15-3.79,3.41-6.73,7.13-6.59,3.79.15,6.74,3.34,6.59,7.13-.2,5.09-.35,10.39-.44,15.91-.06,3.75-3.13,6.75-6.86,6.75ZM172.06,239.7c-.19,0-.37,0-.57-.02-3.78-.31-6.59-3.62-6.29-7.4.47-5.81,1-11.21,1.55-16.19.41-3.77,3.84-6.5,7.58-6.07,3.77.42,6.49,3.81,6.07,7.58-.54,4.86-1.05,10.13-1.51,15.8-.29,3.59-3.3,6.31-6.84,6.31ZM177.29,197.17c-.39,0-.78-.03-1.18-.1-3.74-.65-6.24-4.2-5.59-7.94,1.83-10.58,3.29-16.11,3.35-16.34.98-3.67,4.73-5.84,8.4-4.87,3.66.97,5.84,4.73,4.87,8.4-.01.05-1.38,5.26-3.1,15.16-.58,3.34-3.48,5.69-6.76,5.69Z"/>
  <path class="st0" d="M151.3,159.76c-1.35,0-2.72-.31-4.01-.95-4.44-2.22-6.24-7.62-4.02-12.05,9.16-18.33,16.96-30.56,70.67-68.99,48.84-34.94,54.64-69.71,54.7-70.05.74-4.88,5.24-8.28,10.17-7.57,4.88.7,8.29,5.18,7.62,10.07-.23,1.71-6.35,42.33-62.03,82.17-52.7,37.71-57.89,48.07-65.06,62.41-1.57,3.15-4.75,4.97-8.04,4.97Z"/>
  <path class="st0" d="M51.02,278.63c-4.83,0-8.82-3.83-8.98-8.69C36.35,96.77,141.13,8.33,145.59,4.65c3.83-3.15,9.49-2.61,12.65,1.22,3.16,3.83,2.61,9.48-1.21,12.64-1.21,1.01-102.42,87.01-97.03,250.84.16,4.96-3.72,9.11-8.68,9.28-.1,0-.2,0-.3,0Z"/>
  <path class="st0" d="M300,600c-1.99,0-3.98-.66-5.63-1.98-44.3-35.64-72.7-47.64-97.76-58.22-22.06-9.31-42.89-18.11-68.65-41.03-43.64-38.83-48.45-69.38-19.81-125.74,21.3-41.92,25.58-62.06,12.85-114.7-11.71-48.45,6.97-60.39,35.25-78.46,7.59-4.85,16.2-10.36,25.59-17.36,43.47-32.45,111.25-97.92,111.93-98.58,3.49-3.37,9.01-3.37,12.49,0,.68.66,68.45,66.13,111.92,98.58,9.38,7,17.99,12.51,25.59,17.36,28.28,18.07,46.96,30.01,35.25,78.46-12.73,52.64-8.45,72.77,12.85,114.7,28.64,56.35,23.83,86.91-19.81,125.74-25.18,22.4-47.81,31.53-71.76,41.19-27.86,11.24-56.67,22.86-94.18,57.64-1.72,1.59-3.91,2.4-6.11,2.4ZM300,82.84c-17.98,17.14-70.39,66.42-107.42,94.07-9.91,7.4-18.81,13.09-26.66,18.1-27.05,17.28-36.16,23.11-27.46,59.1,13.86,57.35,8.59,82.02-14.3,127.06-25.07,49.32-21.83,70.74,15.74,104.17,23.54,20.94,42.15,28.8,63.7,37.9,24.99,10.55,53.18,22.45,96.02,55.99,37.27-33.07,67.3-45.19,93.95-55.94,23.44-9.46,43.69-17.62,66.54-37.95,37.57-33.43,40.81-54.85,15.74-104.17-22.89-45.04-28.16-69.71-14.3-127.06,8.7-35.99-.41-41.81-27.45-59.1-7.85-5.02-16.76-10.71-26.67-18.1-37.04-27.65-89.44-76.93-107.42-94.07Z"/>
  <path class="st0" d="M300,600c-4.13,0-7.73-2.82-8.72-6.82-7.77-31.34-75.74-307.29-70.92-345.19,5.09-40.09,67.36-85.31,74.44-90.34,3.12-2.21,7.28-2.21,10.4,0,7.08,5.03,69.35,50.25,74.44,90.34,4.81,37.9-63.15,313.85-70.92,345.19-.99,4.01-4.59,6.82-8.72,6.82ZM300,176.13c-20.01,15.18-58.65,49.15-61.82,74.12-3.01,23.73,32.64,182.79,61.81,303.03,29.17-120.24,64.83-279.3,61.81-303.03-3.18-25.01-41.81-58.96-61.81-74.12Z"/>
  <path class="st0" d="M401.14,524.63c-.53,0-1.07-.06-1.61-.19-3.69-.89-5.96-4.6-5.07-8.28l.69-2.93,6.77,1.2,6.6,1.94-.71,3c-.76,3.15-3.57,5.26-6.67,5.26ZM407.76,495.16c-.47,0-.95-.05-1.43-.15-3.71-.79-6.08-4.43-5.3-8.14,1.12-5.28,2.18-10.49,3.19-15.65.73-3.72,4.3-6.15,8.06-5.42,3.72.73,6.15,4.34,5.41,8.06-1.03,5.22-2.1,10.5-3.23,15.85-.69,3.23-3.54,5.45-6.71,5.45ZM415.82,453.07c-.39,0-.78-.03-1.17-.1-3.74-.65-6.25-4.2-5.6-7.94.92-5.32,1.78-10.57,2.59-15.75.58-3.74,4.08-6.33,7.84-5.72,3.75.59,6.31,4.1,5.72,7.85-.82,5.25-1.69,10.57-2.62,15.96-.58,3.34-3.48,5.7-6.76,5.7ZM422.23,410.71c-.3,0-.6-.02-.9-.06-3.76-.49-6.41-3.94-5.92-7.7.71-5.37,1.35-10.64,1.94-15.84.43-3.77,3.86-6.48,7.6-6.05,3.77.43,6.47,3.83,6.05,7.6-.6,5.27-1.26,10.62-1.97,16.07-.45,3.46-3.41,5.97-6.8,5.97ZM426.85,368.11c-.2,0-.4,0-.6-.03-3.78-.32-6.58-3.65-6.26-7.43.46-5.41.88-10.71,1.23-15.91.26-3.79,3.55-6.66,7.32-6.38,3.78.26,6.64,3.54,6.38,7.32-.36,5.27-.77,10.65-1.24,16.14-.31,3.58-3.31,6.28-6.84,6.28ZM429.51,325.34c-.09,0-.17,0-.26,0-3.79-.14-6.75-3.33-6.6-7.12.21-5.46.35-10.77.45-15.93.07-3.75,3.13-6.74,6.86-6.74.05,0,.09,0,.13,0,3.79.07,6.81,3.2,6.74,6.99-.09,5.25-.25,10.65-.45,16.2-.14,3.7-3.18,6.61-6.86,6.61ZM429.98,282.49c-3.74,0-6.8-3-6.86-6.75-.09-5.52-.24-10.83-.44-15.91-.15-3.79,2.81-6.98,6.59-7.13,3.7-.12,6.98,2.8,7.13,6.59.2,5.18.35,10.59.45,16.21.06,3.79-2.96,6.92-6.75,6.98-.04,0-.08,0-.12,0ZM427.94,239.7c-3.54,0-6.55-2.72-6.84-6.31-.46-5.67-.97-10.94-1.51-15.8-.42-3.77,2.3-7.16,6.07-7.58,3.83-.41,7.16,2.31,7.58,6.07.55,4.98,1.08,10.38,1.55,16.19.31,3.78-2.51,7.09-6.29,7.4-.19.02-.38.02-.57.02ZM422.7,197.17c-3.28,0-6.18-2.35-6.76-5.69-1.72-9.9-3.09-15.11-3.1-15.16-.97-3.66,1.21-7.42,4.87-8.4,3.66-.97,7.42,1.21,8.4,4.87.06.23,1.52,5.76,3.35,16.34.65,3.74-1.85,7.29-5.59,7.94-.4.07-.79.1-1.18.1Z"/>
  <path class="st0" d="M448.7,159.76c-3.3,0-6.47-1.82-8.04-4.97-7.17-14.35-12.36-24.71-65.06-62.41-55.68-39.84-61.8-80.46-62.03-82.17-.67-4.92,2.77-9.45,7.69-10.12,4.9-.69,9.41,2.74,10.11,7.62.1.62,6.04,35.24,54.69,70.05,53.71,38.43,61.51,50.67,70.67,68.99,2.22,4.44.42,9.84-4.02,12.05-1.29.65-2.66.95-4.01.95Z"/>
  <path class="st0" d="M548.98,278.63c-.1,0-.2,0-.3,0-4.96-.16-8.85-4.32-8.68-9.28,5.39-163.98-96.01-249.99-97.03-250.84-3.82-3.16-4.35-8.82-1.2-12.65,3.16-3.82,8.81-4.36,12.63-1.21,4.46,3.68,109.25,92.12,103.55,265.29-.16,4.86-4.15,8.69-8.98,8.69Z"/>
</svg>