<?xml version="1.0" encoding="UTF-8"?>
<svg id="Layer_1" xmlns="http://www.w3.org/2000/svg" version="1.1" viewBox="0 0 600 600">
  <!-- Generator: Adobe Illustrator 29.5.1, SVG Export Plug-In . SVG Version: 2.1.0 Build 141)  -->
  <defs>
    <style>
      .st0 {
        fill: #191919;
      }
    </style>
  </defs>
  <g>
    <path class="st0" d="M464.31,574.55c-.71,0-1.43-.11-2.15-.35-3.6-1.19-5.56-5.07-4.38-8.67,1.7-5.16,3.32-10.23,4.87-15.2,1.13-3.62,5.01-5.63,8.6-4.51,3.62,1.13,5.64,4.98,4.52,8.6-1.57,5.04-3.21,10.17-4.94,15.41-.95,2.89-3.64,4.72-6.52,4.72ZM476.77,533.56c-.61,0-1.22-.08-1.83-.25-3.66-1.01-5.8-4.8-4.79-8.45,1.45-5.24,2.81-10.37,4.08-15.38.93-3.68,4.68-5.9,8.35-4.97,3.67.93,5.9,4.67,4.97,8.34-1.3,5.11-2.68,10.33-4.16,15.68-.84,3.04-3.6,5.04-6.61,5.04ZM486.94,491.94c-.46,0-.94-.05-1.41-.15-3.71-.78-6.09-4.41-5.32-8.12,1.11-5.32,2.11-10.51,3.01-15.57.66-3.73,4.18-6.23,7.96-5.56,3.73.66,6.22,4.23,5.56,7.96-.92,5.2-1.95,10.52-3.09,15.98-.68,3.24-3.53,5.47-6.72,5.47ZM493.92,449.68c-.27,0-.54-.02-.81-.05-3.77-.44-6.46-3.86-6.02-7.62.63-5.31,1.14-10.6,1.53-15.71.29-3.79,3.52-6.61,7.37-6.32,3.78.29,6.61,3.59,6.32,7.37-.4,5.3-.94,10.77-1.58,16.27-.41,3.49-3.38,6.06-6.81,6.06ZM496.49,406.94c-3.79,0-6.86-3.07-6.87-6.86,0-5.26-.15-10.53-.43-15.69-.2-3.79,2.7-7.02,6.49-7.22,3.81-.23,7.02,2.7,7.23,6.49.29,5.39.44,10.91.45,16.41,0,3.79-3.06,6.87-6.86,6.88h0ZM493.39,364.28c-3.35,0-6.29-2.46-6.79-5.87-.75-5.1-1.66-10.3-2.7-15.44-.75-3.72,1.65-7.34,5.36-8.1,3.7-.75,7.34,1.65,8.1,5.36,1.09,5.39,2.04,10.83,2.83,16.18.55,3.75-2.04,7.24-5.8,7.79-.34.05-.67.07-1,.07ZM484.24,322.49c-2.99,0-5.73-1.96-6.6-4.98-1.4-4.88-2.91-9.82-4.63-15.13-1.17-3.61.8-7.48,4.41-8.65,3.6-1.17,7.48.81,8.65,4.41,1.77,5.46,3.33,10.55,4.77,15.58,1.05,3.64-1.06,7.45-4.71,8.49-.63.18-1.27.27-1.89.27ZM470.82,281.84c-2.81,0-5.46-1.75-6.46-4.55l-5.46-15.09c-1.29-3.57.56-7.5,4.12-8.79,3.54-1.29,7.5.55,8.79,4.12l5.47,15.12c1.28,3.57-.57,7.5-4.14,8.78-.77.28-1.55.41-2.32.41ZM456.47,241.49c-2.86,0-5.54-1.81-6.5-4.67-1.71-5.04-3.38-10.18-5.01-15.44-1.12-3.62.9-7.47,4.53-8.59,3.61-1.12,7.47.9,8.59,4.52,1.6,5.15,3.23,10.18,4.9,15.11,1.21,3.59-.71,7.49-4.3,8.71-.73.25-1.47.36-2.2.36ZM444.24,200.46c-3.07,0-5.87-2.07-6.65-5.19-1.33-5.27-2.58-10.61-3.71-15.87-.8-3.71,1.57-7.36,5.27-8.16,3.66-.81,7.36,1.56,8.16,5.27,1.09,5.11,2.31,10.28,3.6,15.39.93,3.68-1.3,7.41-4.98,8.34-.57.14-1.13.21-1.69.21ZM435.75,158.5c-3.34,0-6.26-2.43-6.78-5.83-.2-1.34-.4-2.68-.6-4.03-.6-4.13-1.11-8.2-1.54-12.18-.41-3.77,2.31-7.16,6.07-7.58,3.77-.43,7.16,2.31,7.58,6.08.42,3.83.92,7.75,1.49,11.74.18,1.32.38,2.62.57,3.9.57,3.75-2,7.25-5.75,7.82-.35.05-.7.08-1.04.08ZM431.72,115.87c-3.69,0-6.73-2.92-6.86-6.63-.14-3.94-.2-7.78-.2-11.52,0-1.65.01-3.27.03-4.88.05-3.76,3.12-6.77,6.87-6.77.03,0,.06,0,.1,0,3.79.05,6.82,3.17,6.77,6.96-.02,1.54-.03,3.1-.03,4.69,0,3.58.06,7.27.19,11.05.13,3.79-2.84,6.97-6.63,7.1-.08,0-.16,0-.24,0ZM433.13,73.07c-.24,0-.48-.01-.72-.04-3.77-.39-6.51-3.77-6.12-7.54.58-5.54,1.31-11.04,2.18-16.33.61-3.74,4.15-6.28,7.89-5.66,3.74.62,6.27,4.15,5.66,7.89-.83,5.03-1.53,10.25-2.08,15.52-.37,3.53-3.35,6.16-6.82,6.16ZM441.11,31.02c-.64,0-1.28-.09-1.92-.28-3.64-1.06-5.73-4.87-4.67-8.51,3.01-10.34,5.6-15.91,5.71-16.15,1.6-3.43,5.68-4.92,9.13-3.31,3.43,1.61,4.92,5.69,3.32,9.12-.08.18-2.32,5.09-4.96,14.18-.88,3-3.62,4.95-6.59,4.95Z"/>
    <path class="st0" d="M132.29,574.55c-2.89,0-5.57-1.83-6.52-4.72-1.72-5.24-3.37-10.37-4.94-15.41-1.13-3.62.89-7.47,4.52-8.6,3.61-1.12,7.47.89,8.6,4.51,1.55,4.97,3.17,10.03,4.87,15.2,1.18,3.6-.77,7.48-4.38,8.67-.71.23-1.44.35-2.15.35ZM119.81,533.56c-3.01,0-5.77-1.99-6.61-5.04-1.48-5.34-2.86-10.56-4.16-15.68-.93-3.68,1.3-7.41,4.97-8.34,3.68-.93,7.41,1.29,8.35,4.97,1.27,5.02,2.63,10.14,4.08,15.38,1.01,3.66-1.13,7.44-4.79,8.45-.61.17-1.23.25-1.83.25ZM109.66,491.94c-3.18,0-6.04-2.23-6.72-5.47-1.14-5.46-2.17-10.78-3.09-15.98-.66-3.73,1.83-7.3,5.56-7.96,3.77-.66,7.3,1.83,7.96,5.56.9,5.06,1.9,10.25,3.01,15.57.77,3.71-1.61,7.35-5.32,8.12-.48.1-.95.15-1.41.15ZM102.67,449.68c-3.44,0-6.4-2.57-6.81-6.06-.65-5.5-1.18-10.97-1.58-16.27-.29-3.78,2.54-7.08,6.32-7.37,3.74-.28,7.08,2.54,7.37,6.32.39,5.11.91,10.4,1.53,15.71.44,3.77-2.25,7.18-6.02,7.62-.27.03-.54.05-.81.05ZM100.1,406.94h0c-3.8,0-6.87-3.08-6.86-6.88,0-5.49.16-11.01.45-16.41.2-3.79,3.39-6.71,7.23-6.49,3.78.2,6.69,3.44,6.49,7.22-.28,5.16-.42,10.43-.43,15.69,0,3.79-3.08,6.86-6.87,6.86ZM103.2,364.28c-.33,0-.67-.02-1-.07-3.75-.55-6.35-4.04-5.8-7.79.78-5.35,1.74-10.8,2.83-16.18.75-3.72,4.38-6.11,8.1-5.36,3.72.75,6.12,4.38,5.36,8.1-1.05,5.14-1.95,10.34-2.7,15.44-.5,3.42-3.43,5.87-6.79,5.87ZM112.35,322.49c-.63,0-1.26-.08-1.89-.27-3.65-1.05-5.76-4.85-4.71-8.49,1.44-5.03,3-10.13,4.77-15.58,1.17-3.61,5.04-5.59,8.65-4.41,3.61,1.17,5.58,5.04,4.41,8.65-1.72,5.3-3.23,10.25-4.63,15.13-.86,3.01-3.61,4.98-6.6,4.98ZM125.77,281.84c-.77,0-1.55-.13-2.32-.41-3.57-1.28-5.43-5.21-4.14-8.78l5.47-15.12c1.29-3.57,5.23-5.41,8.79-4.12,3.57,1.29,5.41,5.23,4.12,8.79l-5.46,15.09c-1,2.8-3.65,4.55-6.46,4.55ZM140.12,241.49c-.73,0-1.47-.12-2.2-.36-3.59-1.21-5.52-5.11-4.31-8.7,1.67-4.93,3.31-9.96,4.9-15.11,1.13-3.62,4.98-5.64,8.59-4.52,3.63,1.12,5.65,4.97,4.53,8.59-1.63,5.26-3.31,10.39-5.01,15.43-.97,2.87-3.64,4.67-6.51,4.67ZM152.36,200.46c-.55,0-1.12-.07-1.69-.21-3.68-.93-5.9-4.66-4.98-8.34,1.29-5.11,2.51-10.29,3.6-15.39.8-3.71,4.46-6.08,8.16-5.27,3.71.8,6.07,4.45,5.27,8.16-1.13,5.26-2.38,10.61-3.71,15.87-.79,3.11-3.58,5.19-6.65,5.19ZM160.84,158.5c-.34,0-.69-.03-1.04-.08-3.75-.57-6.33-4.07-5.75-7.82.2-1.29.39-2.59.57-3.89.57-4,1.07-7.92,1.49-11.75.41-3.77,3.77-6.51,7.58-6.08,3.77.41,6.49,3.81,6.07,7.58-.44,3.98-.95,8.05-1.54,12.19-.19,1.34-.39,2.69-.6,4.02-.52,3.4-3.44,5.83-6.78,5.83ZM164.88,115.87c-.08,0-.16,0-.24,0-3.79-.13-6.76-3.31-6.63-7.1.13-3.78.19-7.47.19-11.05,0-1.58-.01-3.14-.03-4.69-.06-3.79,2.98-6.91,6.77-6.96.03,0,.07,0,.1,0,3.75,0,6.81,3.01,6.87,6.77.02,1.61.03,3.23.03,4.88,0,3.73-.06,7.58-.2,11.52-.12,3.71-3.17,6.63-6.86,6.63ZM163.46,73.07c-3.47,0-6.45-2.63-6.82-6.16-.55-5.27-1.25-10.5-2.08-15.52-.61-3.74,1.92-7.28,5.66-7.89,3.77-.61,7.28,1.92,7.89,5.66.87,5.29,1.61,10.79,2.18,16.33.4,3.77-2.34,7.15-6.12,7.54-.24.02-.48.04-.72.04ZM155.49,31.02c-2.97,0-5.72-1.95-6.59-4.95-2.68-9.21-4.95-14.14-4.97-14.19-1.59-3.44-.1-7.52,3.34-9.12,3.43-1.59,7.51-.12,9.11,3.31.11.23,2.69,5.8,5.71,16.15,1.06,3.64-1.03,7.45-4.67,8.51-.64.19-1.29.28-1.92.28Z"/>
  </g>
  <path class="st0" d="M302.06,427.49c-2.57,0-4.96-1.28-6.4-3.4-20.36-30.16-57.26-46.47-57.63-46.63-3.91-1.7-5.7-6.25-4.01-10.16,1.71-3.91,6.26-5.7,10.16-4.01,1.53.66,34.67,15.25,57.89,43.58,23.22-28.33,56.35-42.92,57.88-43.58,3.91-1.69,8.45.1,10.16,4.01,1.7,3.91-.1,8.46-4.01,10.16-.37.16-37.27,16.48-57.63,46.63-1.43,2.13-3.83,3.4-6.4,3.4Z"/>
  <path class="st0" d="M302.06,594.76c-4.27,0-7.73-3.46-7.73-7.73v-167.27c0-4.27,3.46-7.73,7.73-7.73s7.73,3.46,7.73,7.73v167.27c0,4.27-3.46,7.73-7.73,7.73Z"/>
  <path class="st0" d="M321.16,274.58c-4.27,0-7.73-3.46-7.73-7.73,0-5.98-5.1-10.85-11.37-10.85s-11.38,4.87-11.38,10.85c0,4.27-3.46,7.73-7.73,7.73s-7.73-3.46-7.73-7.73c0-14.5,12.03-26.3,26.83-26.3s26.83,11.8,26.83,26.3c0,4.27-3.46,7.73-7.73,7.73Z"/>
  <path class="st0" d="M300.32,188.96h0c-5.45,0-10.98-.16-16.44-.47-3.79-.22-6.68-3.46-6.47-7.25.22-3.79,3.52-6.66,7.24-6.47,5.21.3,10.48.45,15.68.45,3.79,0,6.87,3.08,6.86,6.87,0,3.79-3.07,6.87-6.87,6.87ZM327.05,187.69c-3.5,0-6.49-2.66-6.83-6.21-.36-3.77,2.4-7.13,6.18-7.49,5.19-.5,10.42-1.16,15.54-1.96,3.75-.6,7.25,1.98,7.85,5.73.58,3.75-1.98,7.26-5.73,7.84-5.39.84-10.89,1.53-16.34,2.06-.23.02-.45.03-.67.03ZM257.63,185.75c-.34,0-.68-.02-1.02-.08-5.38-.8-10.83-1.77-16.19-2.86-3.72-.76-6.11-4.39-5.35-8.11.76-3.71,4.39-6.1,8.1-5.35,5.12,1.05,10.32,1.97,15.46,2.73,3.75.56,6.34,4.05,5.78,7.81-.51,3.41-3.44,5.86-6.78,5.86ZM369.22,180.26c-3.06,0-5.84-2.05-6.64-5.15-.95-3.67,1.26-7.42,4.93-8.37,5.03-1.3,10.1-2.77,15.05-4.36,3.62-1.17,7.48.83,8.64,4.43,1.16,3.61-.83,7.48-4.44,8.64-5.21,1.67-10.53,3.22-15.81,4.58-.58.15-1.15.22-1.72.22ZM215.82,176.45c-.65,0-1.31-.09-1.96-.28-5.24-1.56-10.5-3.27-15.63-5.1-3.57-1.27-5.44-5.2-4.17-8.77,1.27-3.57,5.19-5.43,8.77-4.17,4.9,1.74,9.93,3.38,14.94,4.87,3.63,1.08,5.7,4.9,4.63,8.54-.89,2.98-3.62,4.91-6.58,4.91ZM409.72,166.38c-2.66,0-5.19-1.55-6.31-4.15-1.5-3.48.11-7.52,3.6-9.02,4.75-2.04,9.54-4.26,14.23-6.6,3.4-1.68,7.52-.31,9.21,3.09,1.69,3.4.31,7.52-3.09,9.21-4.92,2.44-9.94,4.77-14.92,6.92-.88.38-1.8.56-2.71.56ZM175.72,161.32c-.97,0-1.97-.21-2.9-.65-9.46-4.43-14.73-7.6-14.95-7.73-3.24-1.96-4.28-6.18-2.32-9.42,1.96-3.25,6.18-4.28,9.42-2.33.05.03,4.94,2.96,13.66,7.04,3.44,1.61,4.92,5.69,3.31,9.13-1.17,2.5-3.64,3.96-6.22,3.96Z"/>
  <g>
    <path class="st0" d="M84.63,600c-3.35,0-6.57-1.88-8.11-5.11-86.7-181.08-47.15-253.68-5.29-330.54,18.94-34.77,38.52-70.72,47.84-118.99,16.01-82.87-11.76-131.31-12.05-131.79-2.51-4.26-1.11-9.77,3.15-12.3,4.26-2.52,9.75-1.14,12.29,3.1,1.3,2.17,31.65,54.31,14.25,144.39-9.85,51.01-30.11,88.2-49.7,124.17-41.33,75.87-77.02,141.4,5.71,314.19,2.14,4.48.25,9.84-4.23,11.98-1.25.6-2.57.88-3.87.88Z"/>
    <path class="st0" d="M515.37,600c-1.3,0-2.62-.28-3.87-.88-4.48-2.14-6.37-7.51-4.23-11.98,82.73-172.79,47.04-238.32,5.71-314.19-19.59-35.97-39.85-73.16-49.7-124.17-17.4-90.09,12.95-142.22,14.25-144.39,2.55-4.26,8.06-5.65,12.32-3.1,4.25,2.54,5.64,8.05,3.11,12.3-.4.69-28.02,49.1-12.05,131.79,9.33,48.27,28.91,84.22,47.84,118.99,41.87,76.86,81.41,149.46-5.29,330.54-1.54,3.22-4.76,5.11-8.11,5.11Z"/>
  </g>
  <path class="st0" d="M291.81,318.06c-33.27,0-62.46-4.02-86.66-9.43-74.82-16.72-118.58-49.22-120.41-50.6-3.86-2.9-4.63-8.39-1.73-12.25,2.9-3.85,8.38-4.63,12.24-1.73h0c.42.32,43.16,31.91,114.56,47.7,65.76,14.54,170.15,18.26,293.92-46.6,4.29-2.24,9.56-.59,11.8,3.69s.59,9.56-3.69,11.8c-83.53,43.77-158.73,57.42-220.05,57.42Z"/>
</svg>