<?xml version="1.0" encoding="UTF-8"?>
<svg id="Layer_1" xmlns="http://www.w3.org/2000/svg" version="1.1" viewBox="0 0 600 600">
  <!-- Generator: Adobe Illustrator 29.5.1, SVG Export Plug-In . SVG Version: 2.1.0 Build 141)  -->
  <defs>
    <style>
      .st0 {
        fill: #191919;
      }
    </style>
  </defs>
  <g>
    <path class="st0" d="M10,411.55c-3.21,0-6.13-2.16-6.95-5.42-.26-1.04-2.56-11-3.02-40.02-.53-32.56,6.14-89.19,16.99-144.29,12.41-63.07,42.22-76.67,63.98-86.61,8.14-3.72,18.12-8.83,29.68-14.75,18.33-9.39,41.15-21.08,66.41-32.12,35.83-15.65,37.98-43.77,38.05-44.96.25-3.94,3.55-6.99,7.57-6.75,3.94.22,6.97,3.55,6.78,7.5-.07,1.54-2.34,38.03-46.65,57.38-24.86,10.86-47.46,22.44-65.61,31.74-11.71,6-21.82,11.18-30.25,15.03-21.04,9.6-44.87,20.48-55.86,76.31-10.66,54.2-17.23,109.65-16.71,141.29.44,27.33,2.58,36.72,2.6,36.81.91,3.84-1.45,7.72-5.29,8.66-.57.14-1.15.21-1.72.21Z"/>
    <path class="st0" d="M248.76,175.13c-52.81,0-97.69-23.16-99.66-24.19-3.51-1.84-4.87-6.18-3.03-9.69,1.83-3.51,6.17-4.88,9.69-3.04.47.25,47.75,24.56,99.74,22.41,3.8-.13,7.31,2.91,7.48,6.88.16,3.97-2.91,7.31-6.88,7.48-2.46.1-4.91.15-7.34.15Z"/>
    <path class="st0" d="M140.15,563.41c-.36,0-.72-.03-1.08-.08-3.93-.59-6.63-4.25-6.04-8.18.2-1.31,19.41-131.61-6.75-190.45-27.31-61.45-39.95-119.68-40.08-120.26-.83-3.88,1.64-7.7,5.52-8.53,3.9-.83,7.7,1.64,8.53,5.52.12.57,12.48,57.41,39.16,117.44,27.85,62.67,8.66,192.92,7.83,198.43-.54,3.56-3.6,6.12-7.1,6.12Z"/>
    <path class="st0" d="M93.23,416.33c-1.1,0-2.21-.25-3.26-.79-3.54-1.8-4.94-6.13-3.14-9.67,22.45-44.03,19.69-91.85,19.66-92.33-.25-3.96,2.75-7.38,6.7-7.63,4.12-.24,7.38,2.74,7.64,6.7.14,2.11,3.11,52.13-21.19,99.79-1.27,2.49-3.79,3.92-6.41,3.92Z"/>
    <g>
      <path class="st0" d="M534.58,225.83l-13.54,5.55c-.43-2.28-.86-4.53-1.32-6.8-.53-2.61-1.06-5.12-1.65-7.53-11.56-49.32-34.15-59.62-54.21-68.77-8.42-3.83-18.53-9.02-30.26-15.03-18.13-9.28-40.73-20.88-65.6-31.74-44.3-19.32-46.57-55.82-46.64-57.38-.2-3.96,2.84-7.33,6.8-7.53,3.96-.2,7.33,2.84,7.53,6.8.07,1.26,2.28,29.33,38.05,44.96,25.27,11.03,48.09,22.73,66.43,32.11,11.56,5.91,21.54,11.03,29.66,14.73,20.55,9.38,48.19,22.03,61.7,76.34.83,3.27,1.59,6.71,2.28,10.27.26,1.35.53,2.68.76,4.03Z"/>
      <path class="st0" d="M550.79,366.12c-.46,29-2.74,38.98-3.01,40-.83,3.27-3.77,5.45-6.97,5.45-.59,0-1.16-.07-1.75-.23-3.86-.96-6.18-4.86-5.22-8.69,0-.07,2.15-9.45,2.58-36.76.43-26.1-3.96-68.41-11.53-112.87-.79-4.79-1.65-9.61-2.54-14.44l13.68-5.29c.89,4.82,1.75,9.65,2.54,14.43,7.99,46.34,12.65,90.94,12.22,118.39Z"/>
    </g>
    <path class="st0" d="M302.07,175.13c-2.43,0-4.88-.05-7.34-.15-3.97-.17-7.05-3.51-6.88-7.48.16-3.97,3.68-7.01,7.48-6.88,51.94,2.15,99.27-22.17,99.74-22.41,3.52-1.84,7.86-.47,9.69,3.04,1.84,3.52.48,7.85-3.03,9.69-1.97,1.03-46.85,24.19-99.66,24.19Z"/>
    <g>
      <path class="st0" d="M444.2,268.74l15.92-6.14c-1.29,4.95-2.91,10.77-4.82,17.28-6.54,22.49-16.71,53.25-30.75,84.83-26.16,58.86-6.94,189.14-6.74,190.46.59,3.93-2.11,7.6-6.04,8.16-.36.07-.73.1-1.09.1-3.47,0-6.54-2.54-7.07-6.11-.86-5.52-20.05-135.76,7.83-198.46,12.19-27.42,21.4-54.24,27.78-75.25.1-.26.17-.53.23-.76,1.59-5.22,3.01-10.04,4.23-14.43l.53.33Z"/>
      <path class="st0" d="M464.61,244.43c-.03.17-.89,4.2-2.68,11.2l-16.61,6.8c2.11-7.83,3.57-13.81,4.39-17.34h.03c.53-2.31.79-3.57.83-3.67.83-3.86,4.62-6.38,8.52-5.52,2.05.43,3.73,1.72,4.66,3.4h.03c.89,1.49,1.22,3.3.83,5.12Z"/>
    </g>
    <path class="st0" d="M457.61,416.33c-2.62,0-5.14-1.43-6.41-3.92-24.3-47.66-21.33-97.69-21.19-99.79.26-3.96,3.67-6.97,7.64-6.7,3.96.26,6.96,3.67,6.71,7.63-.03.48-2.79,48.3,19.65,92.33,1.8,3.54.4,7.86-3.14,9.67-1.05.53-2.16.79-3.26.79Z"/>
    <g>
      <path class="st0" d="M597.1,201.29c-4.82-7.66-14.43-10.74-22.79-7.3l-42.78,17.54-13.48,5.52-54.27,22.26h-.03l-14.01,5.78h-.03l-29,11.89c-1.92.79-3.4,2.38-4.06,4.29-.2.53-.3,1.09-.36,1.65-.26,2.68.96,5.22,3.2,6.71l5.71,3.8,1.19.76,12.95,8.59s.07.03.1.07c.2.13.4.23.63.33,1.02.53,2.11.79,3.24.79.89,0,1.75-.17,2.61-.46l9.38-3.63,69.6-26.85,13.68-5.29,49.51-19.13c5.22-2.01,9.22-6.21,10.97-11.53,1.75-5.32,1.06-11.07-1.95-15.79ZM585.41,212.55c-.23.73-.86,2.01-2.51,2.64l-46.87,18.1-13.68,5.29-62.2,24.01h-.03l-15.92,6.14-.53-.33-4.95-3.27,6.57-2.71h.03l16.61-6.8,59.09-24.25,13.54-5.55,45.19-18.53c1.92-.79,4.1-.1,5.22,1.65.92,1.49.66,2.91.43,3.6Z"/>
      <path class="st0" d="M444.73,269.1l-.53-.36-.53-.33-4.95-3.27-8.69-5.75c-1.92-1.29-4.36-1.55-6.54-.73l-6.84,2.61-64.25,24.71c-.73.3-1.45.69-2.05,1.22l-20.31,17.14c-2.05,1.72-2.97,4.43-2.38,7.04.56,2.64,2.58,4.69,5.15,5.38.99.26,13.61,3.53,30.03,3.53,14.77,0,32.6-2.64,47.73-12.55.79-.5,1.45-1.16,1.98-1.92.13-.17,10.07-14.27,26.66-22.23.26-.17.56-.3.86-.43,1.06-.5,2.15-.96,3.27-1.39,2.51-.99,4.26-3.27,4.56-5.95.3-2.64-.96-5.25-3.17-6.74ZM401.65,296.42c-16.22,10.01-36.8,10.24-50.47,8.85l7.5-6.31,66.53-25.53,1.19.76c-13.41,8.13-22,18.6-24.74,22.23Z"/>
    </g>
    <path class="st0" d="M297.82,263.5c-.55-3.02,1.51-5.94,4.56-6.48h0c3.06-.55,5.97,1.48,6.52,4.53h0c.51,3.05-1.51,5.97-4.56,6.52h0c-.31.07-.65.1-1,.1h0c-2.68,0-5.04-1.92-5.52-4.67ZM283.99,264.53c-2.71-1.54-3.64-4.98-2.09-7.65h0c1.54-2.71,4.98-3.64,7.69-2.09h0c2.67,1.54,3.6,4.97,2.06,7.68h0c-1.03,1.78-2.91,2.81-4.87,2.81h0c-.93,0-1.89-.24-2.78-.76ZM314.32,258.38c-2.4-1.99-2.71-5.52-.72-7.89h0c1.99-2.4,5.56-2.71,7.92-.72h0c2.37,1.99,2.68,5.56.69,7.93h0c-1.1,1.3-2.71,1.99-4.32,1.99h0c-1.27,0-2.54-.41-3.57-1.3ZM270.64,248.78c-1.1-2.92.41-6.14,3.29-7.24h0c2.92-1.06,6.14.41,7.24,3.33h0c1.06,2.92-.41,6.14-3.33,7.24h0c-.65.21-1.31.34-1.96.34h0c-2.26,0-4.43-1.41-5.25-3.67ZM318.02,238.28h0v-.24h0c-.04-3.09,2.47-5.63,5.55-5.66h0c3.09-.03,5.63,2.44,5.7,5.56h0v.21h0v.14h0c0,3.09-2.54,5.63-5.63,5.63h0c-3.12,0-5.63-2.54-5.63-5.63ZM273.94,235.3c-2.95-1.06-4.46-4.25-3.43-7.17h0c1.07-2.95,4.25-4.46,7.17-3.43h0c2.95,1.06,4.46,4.25,3.43,7.17h0c-.82,2.33-2.99,3.74-5.28,3.74h0c-.65,0-1.27-.1-1.89-.31ZM313.46,225.9c-2.02-2.33-1.75-5.9.62-7.89h0c2.33-2.02,5.9-1.78,7.89.58h0c2.02,2.37,1.75,5.9-.58,7.93h0c-1.06.89-2.37,1.34-3.67,1.34h0c-1.58,0-3.16-.65-4.25-1.95ZM281.69,219.89c-1.58-2.68-.68-6.11,1.99-7.69h0c2.68-1.58,6.11-.69,7.69,1.99h0c1.58,2.64.69,6.11-1.99,7.68h0c-.89.52-1.85.76-2.85.76h0c-1.92,0-3.81-.96-4.84-2.74ZM302.17,219.51h-.04c-3.05-.51-5.11-3.4-4.6-6.45h0c.48-3.05,3.4-5.15,6.45-4.63h0c3.06.51,5.11,3.4,4.63,6.45h0c-.48,2.74-2.85,4.7-5.56,4.7h0c-.31,0-.62,0-.89-.07Z"/>
    <path class="st0" d="M352.54,409.72c-.48-3.09,1.61-5.94,4.67-6.45h0c3.05-.48,5.93,1.61,6.42,4.7h0c.48,3.05-1.61,5.94-4.67,6.42h0c-.31.03-.58.07-.89.07h0c-2.71,0-5.08-1.99-5.52-4.74ZM339.36,411.81h0c-2.85-1.27-4.12-4.6-2.85-7.41h0c1.27-2.85,4.6-4.12,7.41-2.85h0c2.85,1.27,4.12,4.56,2.85,7.41h0c-.93,2.09-2.99,3.33-5.11,3.33h0c-.79,0-1.54-.17-2.3-.48ZM368.87,405.46c-2.09-2.33-1.89-5.87.41-7.96h0c2.3-2.06,5.83-1.89,7.93.41h0c2.09,2.3,1.89,5.87-.41,7.93h0c-1.07,1-2.4,1.48-3.74,1.48h0c-1.54,0-3.09-.62-4.19-1.85ZM324.34,398.98c-1.68-2.61-.96-6.11,1.65-7.79h0c2.61-1.68,6.07-.96,7.76,1.65h0c1.72,2.61.96,6.07-1.61,7.79h0c-.96.58-2.02.89-3.09.89h0c-1.82,0-3.64-.89-4.7-2.54ZM380.26,392.97c-3.02-.79-4.8-3.88-3.98-6.86h0c.79-2.99,3.88-4.77,6.86-3.98h0c2.99.79,4.77,3.88,3.98,6.86h0c-.69,2.5-2.95,4.18-5.42,4.18h0c-.48,0-.96-.07-1.44-.21ZM318.74,380.01v-.07h0v-.14h0c0-3.09,2.5-5.59,5.63-5.59h0c3.09,0,5.59,2.54,5.59,5.63h0v.07h0v.1h0c0,3.12-2.5,5.63-5.63,5.63h0c-3.09,0-5.59-2.5-5.59-5.63ZM375.9,372.73c-.96-2.95.65-6.14,3.6-7.07h0c2.95-.96,6.14.65,7.1,3.57h0c.93,2.95-.68,6.14-3.6,7.1h0c-.58.17-1.17.27-1.75.27h0c-2.37,0-4.56-1.51-5.35-3.88ZM325.09,368.51c-2.78-1.37-3.91-4.73-2.54-7.51h0c1.37-2.78,4.73-3.91,7.51-2.54h0c2.78,1.37,3.91,4.77,2.54,7.51h0c-1,1.99-2.99,3.12-5.05,3.12h0c-.82,0-1.68-.17-2.47-.58ZM368.32,361.68c-2.4-1.92-2.78-5.45-.82-7.89h0c1.95-2.4,5.49-2.78,7.89-.82h0c2.4,1.95,2.78,5.49.82,7.89h0c-1.1,1.37-2.71,2.09-4.36,2.09h0c-1.23,0-2.5-.41-3.53-1.27ZM334.63,354.65c-1-2.92.55-6.14,3.46-7.14h0c2.91-1.03,6.14.51,7.17,3.43h0c1,2.95-.55,6.14-3.46,7.17h0c-.62.2-1.24.31-1.85.31h0c-2.33,0-4.49-1.48-5.32-3.77ZM355.97,356.61c-3.09-.34-5.35-3.09-5.01-6.17h0c.31-3.09,3.09-5.32,6.14-5.01h0c3.09.31,5.35,3.09,5.04,6.17h0c-.31,2.88-2.78,5.01-5.63,5.01h-.55Z"/>
    <path class="st0" d="M303.06,436.17c2.84-1.29,4.06-4.62,2.77-7.43h0c-1.29-2.84-4.62-4.06-7.46-2.77h0c-2.81,1.29-4.03,4.62-2.74,7.46h0c.96,2.05,2.97,3.27,5.09,3.27h0c.79,0,1.59-.17,2.35-.53ZM289.65,433c1.68-2.61.92-6.08-1.69-7.76h0c-2.61-1.69-6.08-.92-7.76,1.68h0c-1.69,2.61-.93,6.08,1.68,7.76h0c.96.6,2.01.89,3.04.89h0c1.85,0,3.67-.92,4.72-2.58ZM315.75,419.16h0c.43-3.07-1.68-5.91-4.76-6.34h0c-3.07-.43-5.91,1.72-6.34,4.79h0c-.43,3.07,1.68,5.91,4.76,6.34h0c.26.03.53.07.79.07h0c2.74,0,5.15-2.05,5.55-4.85ZM308.88,407.24c2.05-2.35,1.78-5.91-.56-7.93h0c-2.35-2.01-5.91-1.75-7.93.6h0c-2.05,2.35-1.78,5.88.56,7.93h0c1.09.89,2.38,1.35,3.67,1.35h0c1.59,0,3.17-.66,4.26-1.95ZM290.74,405.62c2.97-.89,4.69-4,3.8-6.97h0c-.89-2.97-4-4.69-6.97-3.8h0c-2.97.89-4.69,4-3.8,6.97h0c.73,2.44,2.97,4.03,5.39,4.03h0c.53,0,1.06-.07,1.59-.23ZM279.5,419.36c2.97-.89,4.69-4,3.8-6.97h0c-.89-2.97-4-4.69-6.97-3.8h0c-2.97.89-4.69,4-3.8,6.97h0c.73,2.44,2.97,4.03,5.39,4.03h0c.53,0,1.06-.07,1.59-.23Z"/>
  </g>
  <ellipse class="st0" cx="275.17" cy="532.15" rx="8.37" ry="9.54"/>
  <circle class="st0" cx="170.63" cy="299.61" r="10.36"/>
</svg>