<?xml version="1.0" encoding="UTF-8"?>
<svg id="Layer_1" xmlns="http://www.w3.org/2000/svg" version="1.1" viewBox="0 0 600 600">
  <!-- Generator: Adobe Illustrator 29.5.1, SVG Export Plug-In . SVG Version: 2.1.0 Build 141)  -->
  <defs>
    <style>
      .st0 {
        fill: #191919;
      }
    </style>
  </defs>
  <g>
    <path class="st0" d="M10,411.55c-3.21,0-6.13-2.16-6.95-5.42-.26-1.04-2.56-11-3.02-40.02-.53-32.56,6.14-89.19,16.99-144.29,12.41-63.06,42.22-76.67,63.98-86.6,8.14-3.72,18.12-8.83,29.66-14.74,18.34-9.4,41.16-21.09,66.44-32.13,36.22-15.82,38.03-44.62,38.04-44.91.19-3.96,3.45-7.03,7.52-6.83,3.96.19,7.02,3.56,6.83,7.52-.07,1.54-2.34,38.03-46.65,57.39-24.87,10.86-47.47,22.44-65.63,31.75-11.7,5.99-21.8,11.17-30.23,15.02-21.04,9.6-44.87,20.48-55.86,76.31-10.66,54.19-17.23,109.65-16.71,141.29.44,27.33,2.58,36.72,2.6,36.81.91,3.84-1.45,7.72-5.29,8.65-.57.14-1.15.21-1.72.21Z"/>
    <path class="st0" d="M248.76,175.13c-52.81,0-97.69-23.16-99.66-24.19-3.51-1.84-4.87-6.18-3.03-9.69,1.83-3.51,6.17-4.88,9.69-3.04.47.25,47.82,24.58,99.74,22.41,3.83-.17,7.31,2.91,7.48,6.88.16,3.97-2.91,7.31-6.88,7.48-2.46.1-4.91.15-7.34.15Z"/>
    <path class="st0" d="M140.15,563.41c-.36,0-.72-.03-1.08-.08-3.93-.59-6.63-4.25-6.04-8.18.2-1.31,19.41-131.61-6.75-190.45-27.31-61.45-39.95-119.68-40.07-120.26-.83-3.88,1.64-7.7,5.52-8.53,3.9-.83,7.7,1.64,8.53,5.52.12.57,12.48,57.41,39.16,117.44,27.85,62.67,8.66,192.91,7.83,198.43-.54,3.56-3.6,6.12-7.1,6.12Z"/>
    <path class="st0" d="M93.23,416.33c-1.1,0-2.21-.25-3.26-.78-3.53-1.8-4.94-6.13-3.14-9.67,22.44-44.03,19.68-91.85,19.65-92.33-.25-3.96,2.75-7.38,6.7-7.63,4.06-.26,7.38,2.74,7.64,6.7.14,2.11,3.11,52.13-21.19,99.79-1.27,2.49-3.79,3.92-6.41,3.92Z"/>
    <path class="st0" d="M274.79,543.75c-7.03,0-11.52-3.6-11.79-3.83-1.93-1.59-2.2-4.44-.61-6.36,1.58-1.91,4.4-2.2,6.32-.65.6.46,5.71,4.04,13.53-.4,2.17-1.23,4.93-.47,6.16,1.7,1.24,2.17.48,4.93-1.7,6.16-4.44,2.53-8.48,3.38-11.91,3.38Z"/>
    <path class="st0" d="M168.36,309.96c-4.66,0-8.34-1.45-10.3-2.77-2.28-1.54-2.89-4.65-1.34-6.93,1.53-2.26,4.58-2.87,6.86-1.39.3.18,4.57,2.62,10.95-.34,2.52-1.16,5.47-.08,6.63,2.42,1.16,2.5.08,5.47-2.42,6.63-3.75,1.75-7.28,2.39-10.38,2.39Z"/>
    <g>
      <path class="st0" d="M534.58,225.83l-13.54,5.55c-.43-2.28-.86-4.53-1.32-6.8-.53-2.61-1.06-5.12-1.65-7.53-11.56-49.32-34.15-59.62-54.21-68.77-8.42-3.83-18.53-9.02-30.26-15.03-18.13-9.28-40.73-20.88-65.6-31.74-44.3-19.32-46.57-55.82-46.64-57.38-.2-3.96,2.84-7.33,6.8-7.53,3.96-.2,7.33,2.84,7.53,6.8.07,1.26,2.28,29.33,38.05,44.96,25.27,11.03,48.09,22.73,66.43,32.11,11.56,5.91,21.54,11.03,29.66,14.73,20.55,9.38,48.19,22.03,61.7,76.34.83,3.27,1.59,6.71,2.28,10.27.26,1.35.53,2.68.76,4.03Z"/>
      <path class="st0" d="M550.79,366.12c-.46,29-2.74,38.98-3.01,40-.83,3.27-3.77,5.45-6.97,5.45-.59,0-1.16-.07-1.75-.23-3.86-.96-6.18-4.86-5.22-8.69,0-.07,2.15-9.45,2.58-36.76.43-26.1-3.96-68.41-11.53-112.87-.79-4.79-1.65-9.61-2.54-14.44l13.68-5.29c.89,4.82,1.75,9.65,2.54,14.43,7.99,46.34,12.65,90.94,12.22,118.39Z"/>
    </g>
    <path class="st0" d="M302.07,175.13c-2.43,0-4.88-.05-7.34-.15-3.97-.17-7.05-3.51-6.88-7.48.16-3.86,3.34-6.89,7.17-6.89.1,0,.2,0,.3,0,52.12,2.18,99.27-22.16,99.74-22.41,3.53-1.84,7.86-.48,9.7,3.03,1.84,3.52.48,7.86-3.03,9.7-1.97,1.03-46.85,24.19-99.66,24.19Z"/>
    <g>
      <path class="st0" d="M444.2,268.74l15.92-6.14c-1.29,4.95-2.91,10.77-4.82,17.28-6.54,22.49-16.71,53.25-30.75,84.83-26.16,58.86-6.94,189.14-6.74,190.46.59,3.93-2.11,7.6-6.04,8.16-.36.07-.73.1-1.09.1-3.47,0-6.54-2.54-7.07-6.11-.86-5.52-20.05-135.76,7.83-198.46,12.19-27.42,21.4-54.24,27.78-75.25.1-.26.17-.53.23-.76,1.59-5.22,3.01-10.04,4.23-14.43l.53.33Z"/>
      <path class="st0" d="M464.61,244.43c-.03.17-.89,4.2-2.68,11.2l-16.61,6.8c2.11-7.83,3.57-13.81,4.39-17.34h.03c.53-2.31.79-3.57.83-3.67.83-3.86,4.62-6.38,8.52-5.52,2.05.43,3.73,1.72,4.66,3.4h.03c.89,1.49,1.22,3.3.83,5.12Z"/>
    </g>
    <path class="st0" d="M457.61,416.33c-2.62,0-5.14-1.43-6.41-3.92-24.3-47.66-21.33-97.69-21.19-99.79.26-3.96,3.67-6.97,7.64-6.7,3.96.26,6.96,3.67,6.71,7.63-.03.48-2.79,48.3,19.65,92.33,1.8,3.54.4,7.86-3.14,9.67-1.05.53-2.16.79-3.26.79Z"/>
    <g>
      <path class="st0" d="M597.1,201.29c-4.82-7.66-14.43-10.74-22.79-7.3l-42.78,17.54-13.48,5.52-54.27,22.26h-.03l-14.01,5.78h-.03l-29,11.89c-1.92.79-3.4,2.38-4.06,4.29-.2.53-.3,1.09-.36,1.65-.26,2.68.96,5.22,3.2,6.71l5.71,3.8,1.19.76,12.95,8.59s.07.03.1.07c.2.13.4.23.63.33,1.02.53,2.11.79,3.24.79.89,0,1.75-.17,2.61-.46l9.38-3.63,69.6-26.85,13.68-5.29,49.51-19.13c5.22-2.01,9.22-6.21,10.97-11.53,1.75-5.32,1.06-11.07-1.95-15.79ZM585.41,212.55c-.23.73-.86,2.01-2.51,2.64l-46.87,18.1-13.68,5.29-62.2,24.01h-.03l-15.92,6.14-.53-.33-4.95-3.27,6.57-2.71h.03l16.61-6.8,59.09-24.25,13.54-5.55,45.19-18.53c1.92-.79,4.1-.1,5.22,1.65.92,1.49.66,2.91.43,3.6Z"/>
      <path class="st0" d="M444.73,269.1l-.53-.36-.53-.33-4.95-3.27-8.69-5.75c-1.92-1.29-4.36-1.55-6.54-.73l-6.84,2.61-64.25,24.71c-.73.3-1.45.69-2.05,1.22l-20.31,17.14c-2.05,1.72-2.97,4.43-2.38,7.04.56,2.64,2.58,4.69,5.15,5.38.99.26,13.61,3.53,30.03,3.53,14.77,0,32.6-2.64,47.73-12.55.79-.5,1.45-1.16,1.98-1.92.13-.17,10.07-14.27,26.66-22.23.26-.17.56-.3.86-.43,1.06-.5,2.15-.96,3.27-1.39,2.51-.99,4.26-3.27,4.56-5.95.3-2.64-.96-5.25-3.17-6.74ZM401.66,296.42c-16.22,10.01-36.8,10.24-50.47,8.85l7.5-6.31,66.53-25.53,1.19.76c-13.41,8.13-22,18.6-24.74,22.23Z"/>
    </g>
  </g>
  <path class="st0" d="M197.19,353.95c-3.34,0-6.27-2.45-6.78-5.86-.56-3.75,2.03-7.24,5.78-7.79,3.15-.47,6.33-1.09,9.44-1.87,3.68-.92,7.4,1.32,8.32,5s-1.32,7.4-5,8.32c-3.54.88-7.16,1.6-10.74,2.13-.34.05-.68.07-1.02.07ZM166.45,353.9c-.34,0-.68-.03-1.03-.08-3.57-.53-7.18-1.25-10.73-2.13-3.68-.91-5.92-4.63-5.01-8.31.91-3.68,4.64-5.93,8.31-5.01,3.13.78,6.32,1.41,9.46,1.88,3.75.56,6.33,4.05,5.77,7.8-.51,3.4-3.44,5.85-6.78,5.85ZM235.89,340.54c-2.41,0-4.75-1.28-6.01-3.53-1.84-3.31-.64-7.49,2.67-9.33,2.79-1.55,5.6-3.25,8.36-5.06,3.17-2.08,7.42-1.2,9.5,1.97,2.08,3.17,1.2,7.42-1.97,9.5-3.05,2-6.15,3.88-9.24,5.59-1.05.58-2.19.86-3.32.86ZM127.72,340.5c-1.15,0-2.31-.29-3.38-.9-5.96-3.38-9.37-6.06-9.51-6.17-2.98-2.34-3.49-6.66-1.15-9.64,2.35-2.98,6.65-3.49,9.63-1.15.14.11,2.93,2.25,7.81,5.02,3.3,1.87,4.45,6.06,2.58,9.36-1.26,2.23-3.58,3.47-5.97,3.47Z"/>
  <path class="st0" d="M348.28,353.95c-.34,0-.67-.02-1.02-.07-3.59-.53-7.2-1.25-10.74-2.13-3.68-.92-5.92-4.64-5-8.32.91-3.68,4.64-5.92,8.32-5,3.11.78,6.29,1.41,9.44,1.87,3.75.55,6.34,4.04,5.78,7.79-.51,3.41-3.43,5.86-6.78,5.86ZM379.02,353.9c-3.34,0-6.27-2.44-6.77-5.85-.56-3.75,2.02-7.24,5.77-7.8,3.15-.47,6.34-1.1,9.46-1.88,3.67-.91,7.39,1.33,8.31,5.01.91,3.68-1.33,7.4-5.01,8.31-3.54.88-7.15,1.59-10.73,2.13-.35.05-.69.08-1.03.08ZM309.58,340.54c-1.13,0-2.27-.28-3.32-.86-3.09-1.71-6.19-3.59-9.24-5.59-3.17-2.08-4.05-6.33-1.97-9.5,2.08-3.17,6.34-4.05,9.5-1.97,2.76,1.81,5.57,3.52,8.36,5.06,3.31,1.84,4.51,6.01,2.67,9.33-1.25,2.26-3.59,3.53-6.01,3.53ZM417.74,340.5c-2.39,0-4.71-1.25-5.97-3.47-1.87-3.3-.72-7.48,2.58-9.36,4.98-2.83,7.78-5,7.81-5.03,2.99-2.33,7.29-1.81,9.63,1.17,2.34,2.98,1.82,7.28-1.15,9.62-.14.11-3.55,2.78-9.51,6.17-1.07.61-2.23.9-3.38.9Z"/>
</svg>