<?xml version="1.0" encoding="UTF-8"?>
<svg id="Layer_1" xmlns="http://www.w3.org/2000/svg" version="1.1" viewBox="0 0 600 600">
  <!-- Generator: Adobe Illustrator 29.5.1, SVG Export Plug-In . SVG Version: 2.1.0 Build 141)  -->
  <defs>
    <style>
      .st0 {
        fill: #191919;
      }
    </style>
  </defs>
  <g>
    <path class="st0" d="M458.7,600c-.86,0-1.74-.14-2.59-.45-4.04-1.43-6.15-5.86-4.72-9.9,63.11-178.22,38.94-244.91,10.96-322.14-12.59-34.75-25.61-70.68-32.57-119.39-12.77-89.38,10.94-141.48,11.96-143.65,1.81-3.89,6.44-5.56,10.31-3.74,3.88,1.81,5.56,6.42,3.75,10.3-.34.75-22.69,50.68-10.66,134.89,6.73,47.12,19.48,82.29,31.8,116.3,28.99,80.03,54.04,149.14-10.92,332.6-1.13,3.18-4.12,5.17-7.32,5.17Z"/>
    <path class="st0" d="M141.3,600c-3.19,0-6.19-1.99-7.32-5.17-64.96-183.46-39.92-252.58-10.92-332.6,12.32-34.01,25.06-69.18,31.8-116.29,12.12-84.86-10.43-134.39-10.66-134.89-1.81-3.88-.14-8.5,3.74-10.31,3.87-1.81,8.5-.14,10.31,3.74,1.02,2.17,24.73,54.26,11.96,143.65-6.96,48.71-19.98,84.64-32.57,119.39-27.98,77.22-52.15,143.91,10.96,322.14,1.43,4.04-.69,8.47-4.72,9.9-.86.3-1.73.45-2.59.45Z"/>
  </g>
  <path class="st0" d="M294.92,317.12c-26.35,0-49.45-4.08-68.62-9.57-59.07-16.91-93.58-49.74-95.02-51.13-3.08-2.97-3.17-7.89-.2-10.97,2.98-3.08,7.88-3.17,10.96-.2h0c.33.32,33.65,31.86,89.23,47.59,74.31,21.03,151.23,5.36,228.62-46.58,3.55-2.39,8.38-1.44,10.76,2.12,2.39,3.56,1.44,8.38-2.12,10.77-65.84,44.19-125.2,57.99-173.62,57.99Z"/>
  <path class="st0" d="M303.78,431.91c-2.58,0-4.99-1.28-6.43-3.42-20.65-30.58-58.06-50.78-58.43-50.98-3.78-2.02-5.21-6.72-3.2-10.5,2.02-3.78,6.72-5.21,10.49-3.2,1.52.81,34.45,18.54,57.57,47.29,23.12-28.75,56.04-46.48,57.57-47.29,3.77-2.01,8.47-.58,10.49,3.2,2.01,3.78.58,8.48-3.2,10.5-.38.2-37.78,20.4-58.43,50.98-1.44,2.14-3.85,3.42-6.43,3.42Z"/>
  <path class="st0" d="M303.78,596c-4.28,0-7.76-3.47-7.76-7.76v-164.09c0-4.28,3.47-7.76,7.76-7.76s7.76,3.47,7.76,7.76v164.09c0,4.28-3.47,7.76-7.76,7.76Z"/>
  <path class="st0" d="M322.96,274.47c-4.28,0-7.76-3.47-7.76-7.76,0-6.01-5.13-10.89-11.42-10.89s-11.43,4.89-11.43,10.89c0,4.28-3.47,7.76-7.76,7.76s-7.76-3.47-7.76-7.76c0-14.56,12.09-26.41,26.94-26.41s26.94,11.85,26.94,26.41c0,4.28-3.47,7.76-7.76,7.76Z"/>
  <path class="st0" d="M301.59,222.33h0c-3.96,0-7.96-.12-11.91-.34-2.74-.16-4.84-2.5-4.68-5.25.16-2.74,2.39-4.83,5.25-4.68,3.76.21,7.58.32,11.35.32,2.75,0,4.97,2.23,4.97,4.98,0,2.75-2.23,4.97-4.97,4.97ZM320.94,221.41c-2.53,0-4.69-1.92-4.94-4.5-.26-2.74,1.74-5.16,4.47-5.43,3.75-.36,7.54-.84,11.26-1.42,2.67-.42,5.25,1.43,5.68,4.15s-1.43,5.26-4.15,5.68c-3.91.61-7.89,1.11-11.83,1.49-.16.02-.32.02-.48.02ZM270.67,220.01c-.25,0-.49-.02-.74-.05-3.88-.58-7.83-1.28-11.73-2.07-2.69-.55-4.43-3.18-3.88-5.87.55-2.69,3.18-4.44,5.87-3.88,3.72.76,7.49,1.43,11.2,1.98,2.72.41,4.59,2.94,4.19,5.65-.37,2.47-2.49,4.24-4.91,4.24ZM351.48,216.03c-2.21,0-4.23-1.49-4.81-3.73-.69-2.66.91-5.37,3.57-6.06,3.66-.95,7.32-2.01,10.9-3.16,2.6-.84,5.41.6,6.26,3.21.84,2.61-.6,5.42-3.21,6.26-3.76,1.21-7.61,2.33-11.45,3.32-.42.11-.84.16-1.25.16ZM240.39,213.26c-.47,0-.95-.07-1.42-.21-3.81-1.13-7.62-2.38-11.32-3.69-2.59-.92-3.94-3.77-3.02-6.35.92-2.59,3.75-3.94,6.35-3.02,3.54,1.26,7.18,2.45,10.82,3.53,2.63.78,4.13,3.55,3.35,6.19-.64,2.16-2.62,3.56-4.76,3.56ZM380.82,205.98c-1.93,0-3.76-1.13-4.57-3.01-1.08-2.52.08-5.45,2.6-6.54,3.43-1.48,6.9-3.08,10.31-4.78,2.47-1.22,5.44-.22,6.67,2.24,1.22,2.46.22,5.44-2.24,6.67-3.57,1.77-7.21,3.46-10.8,5.01-.64.27-1.31.41-1.96.41ZM211.35,202.31c-.7,0-1.42-.15-2.1-.47-6.85-3.21-10.67-5.5-10.83-5.6-2.35-1.42-3.1-4.48-1.68-6.83,1.42-2.35,4.48-3.1,6.83-1.69.03.02,3.58,2.15,9.9,5.1,2.49,1.16,3.56,4.12,2.4,6.61-.84,1.81-2.64,2.87-4.51,2.87Z"/>
  <path class="st0" d="M300.43,185c-3.23,0-5.85-2.62-5.85-5.85v-56.02c0-3.23,2.62-5.85,5.85-5.85s5.85,2.62,5.85,5.85v56.02c0,3.23-2.62,5.85-5.85,5.85Z"/>
  <path class="st0" d="M326.72,149.04c-1.66,0-3.3-.7-4.46-2.06l-21.97-25.8-21.97,25.8c-2.1,2.46-5.79,2.75-8.25.66-2.46-2.1-2.76-5.79-.66-8.25l26.43-31.03c2.23-2.61,6.68-2.61,8.91,0l26.43,31.03c2.1,2.46,1.8,6.15-.66,8.25-1.1.94-2.45,1.4-3.79,1.4Z"/>
</svg>