<?xml version="1.0" encoding="UTF-8"?>
<svg id="Layer_1" xmlns="http://www.w3.org/2000/svg" version="1.1" viewBox="0 0 600 600">
  <!-- Generator: Adobe Illustrator 29.5.1, SVG Export Plug-In . SVG Version: 2.1.0 Build 141)  -->
  <defs>
    <style>
      .st0 {
        fill: #191919;
      }
    </style>
  </defs>
  <path class="st0" d="M353.64,349.1l36.51,36.39c.53.86-.43,1.4-.73,2.27-3.16,9.11.69,14.76,7.29,20.64-4.1,3.61-5.77,9.26-2.39,13.99l74.23,74.35c.4.88-1,2.44-1.41,3.51-4.04,10.42,5.92,20.36,16.32,16.67,4.71-1.67,9.09-8.45,13.01-11.6l.95.09,15.65,15.65c.65,1.3-2.22,3.24-3.07,4.49-7.68,11.34,5.25,25.26,17.25,17.95,4.72-2.87,19.64-18.44,23.82-23.24.93-1.07,2.24-2.57,2.88-3.79,6.02-11.5-6.95-23.53-18.06-16.65-1.16.72-3.76,3.8-4.77,3.54l-16.01-16.01.29-1c2.73-3.1,6.58-5.95,9.14-9.13,8-9.91-1.07-23.76-13.34-20.37-1.3.36-3.75,2.14-4.55,1.78l-65.02-65.3c-3.83-2.47-7.55-8.99-11.89-10.24-4.49-1.29-8.36.37-11.43,3.7-5.88-7.15-13.88-11.09-22.78-6.37l-37.47-37.33c-4.18-2.12-7.55,2.45-4.43,6.01ZM404.89,385.83c3.21.49,6.02,3.94,7.96,6.36l-10.99,10.73c-2.22-2.31-5.59-4.57-6.11-7.96-.82-5.34,3.77-9.95,9.14-9.14ZM421.18,394.75c1.88-1.82,4.24-6.37,7.4-3.99l4.88,5.15c-1.67,3.28-10.41,7.68-6.68,11.93,4.12,4.7,8.95-4.59,12.2-6.24l9.24,9.07-.19.9-12.63,12.68c-1.64,4.03,2.5,6.96,6.05,4.29,3.68-2.77,7.68-8.3,11.29-11.54.25-.23.74-.6,1.05-.58,2.74,2.18,5.15,4.87,7.58,7.42-1.65,3.1-10.91,8.31-6.32,12.27,4.14,3.58,8.79-4.72,11.74-6.8l9.26,9,.23.83-12.79,12.86c-1.63,3.55,1.39,6.64,5,5,1.87-1.31,12.02-12.61,13.03-12.6,1.38,0,5.82,5.9,7.45,6.78l.36.78c-1.86,2.81-10.74,8.05-6.56,11.92,4.22,3.89,8.8-4.38,11.79-6.45.32-.05,1.5.95,1.84,1.25.61.52,4.52,4.41,4.71,4.79.28.54.38,1.03-.07,1.5l-26.71,26.69-1.6-.88-72.23-72.46c-1.03-1.38-.48-2.33.42-3.58,6.66-6.75,13.44-13.37,20.25-19.97ZM515.86,463.79c3.94.62,5.79,5.83,2.9,8.7-12.64,12.4-24.87,25.32-37.75,37.4-5.02,1.88-9.5-3.56-6.33-8.09l37.05-37.05c1.28-.9,2.58-1.21,4.13-.97ZM509.91,492.54l16.32,16.29c.04.54-6.41,6.7-7.47,7.49l-16.29-16.33c-.16-.44.07-.67.29-1,.42-.62,5.53-5.74,6.15-6.15.35-.24.51-.42,1-.29ZM533.84,511.98c2.29-2.22,5.65-6.96,9.1-6.81,4.08.19,6.7,5.21,4.03,8.52-7.64,6.74-14.79,16.41-22.6,22.7-5.72,4.6-11.62-1.4-8.19-6.78,5.81-5.96,11.7-11.85,17.66-17.64Z"/>
  <g>
    <path class="st0" d="M488.44,568.82c-15.22-18.08-40.01-31.23-61.44-40.57-22.87-9.95-69.66-21.28-76.89-48.03-1.13-4.18-2.3-23.66-.83-26.9.57-1.24,14.69-12.39,17.18-14.69,5.54-5.2,10.81-10.28,15.75-15.45-1.39-4.37-1.28-9.08.26-13.45-1.21-1.62-2.34-3.47-3.24-5.54-23.39,26.11-69.69,66.64-97.08,71.77-29.42,5.46-69.66-28.1-90.41-47.13-31.15-28.48-42.64-46.9-55.94-86.95-10.96-32.89-17.52-55.98-10.17-91.05,4.56-21.89,14.5-40.99,28.03-58.51,19.21-24.04,53.12-44.27,63.97-50.41,5.69-3.05,11.41-6.03,17.25-8.78,3.88-1.81,27.24-12.39,29.31-11.94s11.08,5.95,13.98,7.31c68.6,31.87,155.89,68.83,145.83,160.3-2.15,19.25-11,52.44-21.93,78.32.41-.08.83-.08,1.24-.08,4.78,0,9.38,1.28,13.68,3.8.19-.41.34-.79.49-1.21,7.04-18.65,14.09-41.36,18.38-60.8,1.21-5.5,2.11-18.35,3.84-22.26,1.17-2.56,7.99-9.31,10.25-12.62,41.18-59.33,27.69-158.07-13.22-215.41-1.77-2.45-4.9-3.58-7.84-2.94-5.46,1.17-7.8,7.53-4.56,12.05,37.18,52.03,45.21,123.3,21.85,182.9l-5.46,10.06-7.72-28.14c-31.08-83.82-126.28-95.91-188.14-143.76-22.57-17.44-44.6-41.48-48.52-71.05-.64-4.67,1.13-15.75-5.58-17.25-14.28-3.28-9.38,13.52-10.13,21.74-14.43,5.95-30.18,12.51-43.44,21.32-21.74,13-38.39,33.23-49.61,50.18-11.23,16.95-17.03,30.67-17.03,30.67-13.3,37.9-13.19,84.16.98,121.83,6.97,18.5,18.38,37.48,36.17,47.13,3.96,26.18,12.88,53.16,22.6,77.79,10.89,27.54,26.07,44.49,47.17,64.68,5.5,5.27,11.68,10.13,17.48,15.14.87,2.19,1.36,4.48,1.32,6.86-.75,31.87-10.66,41.85-38.09,55-33.53,16.09-76.89,28.07-101.94,57.26-4.9,5.69-19.29,26.11-6.63,29.57,9.04,2.45,9.53-6.86,12.32-12.43,9.15-18.23,42.38-35.53,60.54-43.96,28.82-13.37,75.68-23.85,84.95-58.73,1.77-6.63,1.54-13.9,3.13-20.57,16.09,10.21,33.87,23.85,53.27,26.75,22.57,3.35,42.38-6.97,60.84-18.72,1.47-.94,8.1-7.04,9.53-5.58-.57,20.76,8.29,37.14,25.39,48.52,35.22,23.39,99.57,30.7,123.04,70.41,3.65,6.18,4.45,17.86,14.65,13.52,10.13-4.33-4.63-25.01-8.82-29.99ZM106.86,273.69c-1.47-.6-7.61-8.06-8.93-9.87-22.38-30.1-26.22-82.84-18.2-118.44.38-1.62,1.77-5.35,2.71-8.21,7.61-19.18,18.23-35.22,28.56-47.77,10.25-12.51,20.19-21.51,26.37-26.63,3.69-2.56,7.2-5.8,9.27-7.2,4.6-3.09,36.17-20.15,38.95-17.74,10.17,30.97,35.34,54.7,62.05,72.22l-34.24,16.92c-44.27,20.15-71.62,55.68-73.91,58.73v.04c-.11.11-.15.19-.15.19-2.07,2.75-5.05,7.35-7.72,11.6-2.67,4.26-5.01,8.17-5.73,9.49-11.53,21.21-16.24,40.65-17.82,64.65-.04.9.45,2.71-1.21,2.03Z"/>
    <path class="st0" d="M314.54,394.17c-8.56-1.01-21.53-9.3-29.64-8.59-3.47.3-8.78,4.02-11.54,3.96-3.43-.07-7.52-4.53-14.45-3.81-3.46.36-20.56,5.99-24.33,7.55-4.35,1.79-6.53,6.41-4.1,10.68,3.09,5.44,8.95,3.03,13.93,1.59,4.3-1.24,11.13-5.13,15.12-5.35,4.67-.25,9.71,3.21,13.87,3.34,3.81.13,8.12-2.81,11.47-3.27,8.08-1.13,22.42,11.34,30.53,5.25,3.92-2.94,3.08-8.81-.85-11.35Z"/>
    <path class="st0" d="M378.27,292.07c3.52-5.32-.5-12.49-6.72-11.7-3.41.44-7.89,5.65-11.21,7.64-11.37,6.81-24.7,7.01-36.21.23-4.8-2.83-12.49-12-18.53-5.18-5.1,5.76.93,10.98,5.48,14.15,16.1,11.21,37.17,13.92,54.68,4.37,2.93-1.59,10.82-6.96,12.51-9.52Z"/>
    <path class="st0" d="M233.41,281.09c-3.26.62-9.79,7.49-14.33,9.34-10.17,4.13-20.65,3.44-30.37-1.45-5.41-2.72-13.69-12.93-19.97-6.04-3.98,4.36-1,8.77,2.62,11.96,19.11,16.85,49.81,16.47,68.54-.79,6.29-5.79,2.65-14.76-6.49-13.01Z"/>
    <path class="st0" d="M278.17,418.09c-2.62.26-6.27.34-8.87.09-4.79-.46-14.43-5.67-17.13.84-5.72,13.76,21.44,13.91,29.3,12.98,2.26-.27,11.44-2.89,12.76-4.38,2.12-2.38,1.95-7.8-.27-10.02-3.89-3.89-11.11.01-15.79.49Z"/>
    <path class="st0" d="M278.26,365.94c6.94-.69,21.88-7.15,14.99-15.8-5.32-6.67-13.02,2.43-18.21,2.63-6.42.24-12.86-6.33-18.65-4.61-.98.29-3.37,2.68-3.67,3.67-3.58,12.01,17.43,14.92,25.53,14.11Z"/>
  </g>
  <g>
    <circle class="st0" cx="204.16" cy="209.78" r="5.65"/>
    <circle class="st0" cx="222.52" cy="213.86" r="5.65"/>
    <circle class="st0" cx="240.14" cy="219.24" r="5.65"/>
    <circle class="st0" cx="259.31" cy="221.47" r="5.65"/>
    <circle class="st0" cx="278.05" cy="221.47" r="5.65"/>
    <circle class="st0" cx="296.6" cy="218.22" r="5.65"/>
    <circle class="st0" cx="314.41" cy="214.88" r="5.65"/>
    <circle class="st0" cx="332.59" cy="209.78" r="5.65"/>
    <circle class="st0" cx="397.28" cy="246.68" r="5.65"/>
    <circle class="st0" cx="384.11" cy="259.85" r="5.65"/>
    <circle class="st0" cx="397.28" cy="273.02" r="5.65"/>
    <circle class="st0" cx="310.92" cy="353.23" r="5.65"/>
    <circle class="st0" cx="327.92" cy="366.29" r="5.65"/>
    <circle class="st0" cx="336.62" cy="386.39" r="5.65"/>
    <circle class="st0" cx="330.97" cy="407.49" r="5.65"/>
    <circle class="st0" cx="231.36" cy="353.23" r="5.65"/>
    <circle class="st0" cx="214.37" cy="366.29" r="5.65"/>
    <circle class="st0" cx="205.66" cy="386.39" r="5.65"/>
    <circle class="st0" cx="211.31" cy="407.49" r="5.65"/>
    <circle class="st0" cx="149.61" cy="243.36" r="5.65"/>
    <circle class="st0" cx="157.81" cy="259.85" r="5.65"/>
    <circle class="st0" cx="144.64" cy="273.02" r="5.65"/>
  </g>
  <path class="st0" d="M235.52,258.73c-1.05,0-2.12-.26-3.11-.81-25.05-13.95-44.57-2.5-45.38-2.01-3.01,1.82-6.95.87-8.79-2.13-1.84-3.01-.92-6.92,2.07-8.77,1.07-.66,26.49-15.99,58.33,1.73,3.09,1.72,4.2,5.62,2.48,8.71-1.17,2.1-3.35,3.29-5.6,3.29Z"/>
  <path class="st0" d="M308.77,258.73c-2.25,0-4.43-1.19-5.6-3.29-1.72-3.09-.61-6.99,2.48-8.71,31.84-17.72,57.26-2.39,58.33-1.73,3.01,1.86,3.93,5.81,2.07,8.82-1.86,2.99-5.78,3.93-8.79,2.09-.85-.51-20.36-11.92-45.38,2.01-.99.55-2.06.81-3.11.81Z"/>
</svg>