<?xml version="1.0" encoding="UTF-8"?>
<svg id="Layer_1" xmlns="http://www.w3.org/2000/svg" version="1.1" viewBox="0 0 600 600">
  <!-- Generator: Adobe Illustrator 29.5.1, SVG Export Plug-In . SVG Version: 2.1.0 Build 141)  -->
  <defs>
    <style>
      .st0 {
        fill: #191919;
      }
    </style>
  </defs>
  <g>
    <ellipse class="st0" cx="286.99" cy="452.49" rx="9.14" ry="13.72"/>
    <path class="st0" d="M70.96,600c-4.57,0-8.43-3.54-8.76-8.17-4.63-65.23,13.98-108.54,31.97-150.41,13.36-31.1,25.99-60.49,30.35-99.05,10.16-89.85-45.01-178.03-45.57-178.91-2.6-4.1-1.39-9.53,2.71-12.14,4.1-2.6,9.54-1.38,12.13,2.72,2.42,3.81,59.04,94.36,48.2,190.31-4.65,41.15-18.38,73.11-31.66,104.02-17.95,41.79-34.91,81.26-30.58,142.23.34,4.85-3.31,9.05-8.15,9.4-.21.02-.42.02-.63.02Z"/>
    <path class="st0" d="M529.04,600c-.21,0-.42,0-.63-.02-4.84-.35-8.49-4.55-8.15-9.4,4.33-60.97-12.63-100.44-30.58-142.23-13.28-30.91-27.01-62.87-31.66-104.02-10.84-95.95,45.78-186.5,48.2-190.31,2.61-4.1,8.04-5.31,12.13-2.72,4.1,2.6,5.32,8.03,2.72,12.13-.56.88-55.71,89.24-45.58,178.92,4.36,38.56,16.98,67.94,30.35,99.05,17.99,41.88,36.6,85.18,31.96,150.42-.33,4.63-4.19,8.17-8.76,8.17Z"/>
  </g>
  <g>
    <path class="st0" d="M428.59,150.76c-.13-4.44,3.39-8.14,7.79-8.27h0c4.44-.13,8.13,3.39,8.22,7.78h0c.13,4.44-3.34,8.14-7.74,8.27h-.27c-4.31,0-7.87-3.47-8-7.78ZM407.13,155.77c-4.35-.88-7.12-5.14-6.24-9.45h0c.92-4.35,5.19-7.12,9.5-6.2h0c4.35.92,7.12,5.14,6.2,9.5h0c-.79,3.74-4.09,6.33-7.83,6.33h0c-.53,0-1.1-.05-1.63-.18ZM456.55,148.39c-1.41-4.22.84-8.75,5.01-10.16h0c4.18-1.41,8.75.84,10.16,5.01h0c1.41,4.18-.84,8.75-5.02,10.16h0c-.83.26-1.71.44-2.59.44h0c-3.3,0-6.42-2.11-7.56-5.45ZM378.86,146.58c-4.04-1.8-5.81-6.55-4-10.6h0c1.8-4.04,6.55-5.8,10.6-4h0c4.04,1.8,5.81,6.55,4,10.6h0c-1.37,2.95-4.26,4.7-7.3,4.7h0c-1.1,0-2.24-.22-3.3-.7ZM482.5,137.79c-2.42-3.69-1.45-8.62,2.24-11.08h0c3.69-2.46,8.66-1.45,11.13,2.24h0c2.42,3.69,1.4,8.66-2.25,11.13h0c-1.36.88-2.9,1.32-4.44,1.32h0c-2.59,0-5.14-1.28-6.68-3.6ZM353.26,131.28c-3.52-2.68-4.18-7.74-1.45-11.21h0c2.68-3.52,7.69-4.18,11.22-1.45h0c3.52,2.68,4.17,7.69,1.45,11.21h0c-1.58,2.07-3.95,3.12-6.33,3.12h0c-1.71,0-3.43-.53-4.88-1.67ZM504.83,120.86c-3.52-2.68-4.27-7.69-1.63-11.21h0c2.64-3.56,7.65-4.31,11.21-1.67h0c3.56,2.68,4.26,7.69,1.63,11.21h0c-1.58,2.11-4,3.25-6.42,3.25h0c-1.67,0-3.35-.53-4.79-1.58ZM519.47,96.98c-4.31-1.01-6.99-5.32-5.98-9.63h0c1.01-4.31,5.28-6.99,9.58-5.98h0c4.31.97,6.99,5.28,6.02,9.59h0c-.88,3.74-4.18,6.24-7.83,6.24h0c-.57,0-1.19-.09-1.8-.22ZM514.77,62.12h0c-.44-4.4,2.77-8.31,7.17-8.75h0c4.4-.48,8.31,2.73,8.75,7.12h0c.44,4.4-2.73,8.35-7.12,8.79h0c-.31.04-.57.04-.84.04h0c-4.04,0-7.56-3.08-7.96-7.21ZM509.14,36.44c-1.36-4.22.92-8.71,5.14-10.07h0c4.22-1.36,8.75.92,10.11,5.14h0c1.32,4.22-.97,8.75-5.19,10.11h0c-.84.26-1.63.35-2.46.35h0c-3.39,0-6.51-2.15-7.61-5.54ZM499.03,11.51c-1.94-4-.22-8.79,3.74-10.68h0c4-1.93,8.79-.26,10.69,3.74h0c1.93,4,.26,8.75-3.74,10.69h0c-1.1.53-2.28.79-3.47.79h0c-2.99,0-5.85-1.67-7.21-4.53Z"/>
    <path class="st0" d="M433.17,121.68c-2.68,0-5.44-.14-8.28-.42-20.31-2.05-37.62-8.5-51.44-19.17-3.5-2.7-4.15-7.73-1.45-11.23,2.71-3.5,7.74-4.15,11.23-1.45,11.43,8.82,25.98,14.17,43.28,15.92,22.96,2.32,39.72-7.98,49.69-17.04,3.28-2.98,8.34-2.73,11.31.54,2.98,3.27,2.74,8.34-.54,11.31-11.16,10.15-29.18,21.55-53.8,21.55Z"/>
    <circle class="st0" cx="437.36" cy="33.46" r="14.22"/>
    <g>
      <path class="st0" d="M163.14,158.54c-4.4-.13-7.92-3.83-7.79-8.27h0c.13-4.4,3.83-7.87,8.27-7.78h0c4.4.13,7.87,3.83,7.74,8.27h0c-.09,4.35-3.65,7.78-8,7.78h-.22ZM183.36,149.57c-.88-4.31,1.89-8.53,6.24-9.45h0c4.31-.92,8.58,1.85,9.46,6.2h0c.92,4.31-1.85,8.57-6.2,9.45h0c-.53.13-1.1.18-1.63.18h0c-3.74,0-7.08-2.59-7.87-6.38ZM133.28,153.4c-4.18-1.41-6.47-5.98-5.02-10.16h0c1.41-4.18,5.98-6.42,10.16-5.01h0c4.17,1.41,6.42,5.94,5.01,10.16h0c-1.14,3.34-4.26,5.45-7.61,5.45h0c-.83,0-1.71-.13-2.55-.44ZM210.54,142.58c-1.85-4.04-.04-8.79,4-10.6h0c4-1.85,8.75-.04,10.6,4h0c1.8,4.04,0,8.75-4,10.6h0c-1.1.48-2.2.7-3.3.7h0c-3.03,0-5.98-1.76-7.3-4.7ZM106.37,140.03c-3.69-2.42-4.66-7.39-2.25-11.08h0c2.46-3.69,7.43-4.7,11.08-2.24h.04c3.65,2.46,4.66,7.39,2.24,11.08h0c-1.54,2.33-4.09,3.6-6.68,3.6h0c-1.54,0-3.08-.44-4.44-1.36ZM235.51,129.83c-2.73-3.52-2.07-8.53,1.45-11.21h0c3.52-2.72,8.53-2.07,11.22,1.45h0c2.73,3.52,2.07,8.53-1.45,11.21h0c-1.45,1.14-3.17,1.67-4.88,1.67h0c-2.37,0-4.75-1.06-6.33-3.12ZM83.94,119.19c-2.64-3.52-1.93-8.58,1.63-11.21h0c3.56-2.64,8.58-1.89,11.21,1.67h0c2.64,3.52,1.89,8.53-1.67,11.21h0c-1.4,1.05-3.08,1.58-4.75,1.58h0c-2.46,0-4.88-1.14-6.42-3.25ZM70.89,90.96c-.97-4.31,1.71-8.62,6.02-9.59h0c4.31-1.01,8.62,1.67,9.58,5.98h0c1.01,4.31-1.67,8.62-5.98,9.63h0c-.62.13-1.23.18-1.85.18h0c-3.6,0-6.94-2.51-7.78-6.2ZM76.43,69.28c-4.4-.44-7.6-4.4-7.12-8.79h0c.44-4.4,4.35-7.61,8.75-7.12h0c4.4.44,7.61,4.35,7.17,8.75h0c-.44,4.13-3.87,7.21-7.96,7.21h0c-.27,0-.53,0-.84-.04ZM80.78,41.58c-4.22-1.36-6.55-5.85-5.14-10.07h0c1.32-4.22,5.85-6.51,10.07-5.14h0c4.22,1.36,6.51,5.85,5.14,10.07h0c-1.1,3.39-4.22,5.54-7.61,5.54h0c-.83,0-1.67-.09-2.46-.4ZM90.28,15.24c-3.96-1.94-5.67-6.68-3.74-10.69h0c1.89-4,6.69-5.67,10.69-3.78h0c4,1.93,5.67,6.73,3.74,10.73h0c-1.36,2.86-4.22,4.53-7.21,4.53h0c-1.19,0-2.33-.26-3.47-.79Z"/>
      <path class="st0" d="M166.84,121.68c-24.62,0-42.64-11.4-53.8-21.55-3.27-2.97-3.51-8.04-.54-11.31,2.97-3.27,8.03-3.52,11.31-.54,9.96,9.06,26.66,19.36,49.69,17.04,17.29-1.75,31.84-7.1,43.27-15.92,3.5-2.7,8.53-2.06,11.23,1.45,2.7,3.5,2.05,8.53-1.45,11.23-13.83,10.67-31.14,17.12-51.44,19.17-2.84.29-5.6.42-8.28.42Z"/>
      <circle class="st0" cx="162.64" cy="33.46" r="14.22"/>
    </g>
  </g>
</svg>