<?xml version="1.0" encoding="UTF-8"?>
<svg id="Layer_1" xmlns="http://www.w3.org/2000/svg" version="1.1" viewBox="0 0 600 600">
  <!-- Generator: Adobe Illustrator 29.5.1, SVG Export Plug-In . SVG Version: 2.1.0 Build 141)  -->
  <defs>
    <style>
      .st0 {
        fill: #191919;
      }
    </style>
  </defs>
  <path class="st0" d="M308.47,477.76c-1.9,0-3.44-1.54-3.44-3.44v-32.97c0-1.9,1.54-3.44,3.44-3.44s3.44,1.54,3.44,3.44v32.97c0,1.9-1.54,3.44-3.44,3.44Z"/>
  <path class="st0" d="M323.94,456.59c-.98,0-1.94-.41-2.63-1.21l-12.93-15.19-12.93,15.19c-1.23,1.44-3.4,1.62-4.85.39-1.45-1.23-1.62-3.41-.39-4.86l15.55-18.27c1.31-1.53,3.94-1.53,5.25,0l15.55,18.27c1.23,1.45,1.06,3.62-.39,4.86-.65.55-1.44.82-2.23.82Z"/>
  <path class="st0" d="M405.36,426.56c-1.9,0-3.44-1.54-3.44-3.44v-32.97c0-1.9,1.54-3.44,3.44-3.44s3.44,1.54,3.44,3.44v32.97c0,1.9-1.54,3.44-3.44,3.44Z"/>
  <path class="st0" d="M389.71,405.39c-.79,0-1.58-.27-2.23-.82-1.45-1.23-1.62-3.41-.39-4.86l15.55-18.27c1.31-1.53,3.93-1.53,5.25,0l15.56,18.27c1.23,1.45,1.06,3.62-.39,4.86-1.45,1.23-3.62,1.06-4.85-.39l-12.93-15.19-12.93,15.19c-.68.8-1.65,1.21-2.63,1.21Z"/>
  <path class="st0" d="M485.8,367.41c-1.9,0-3.44-1.54-3.44-3.44v-32.97c0-1.9,1.54-3.44,3.44-3.44s3.44,1.54,3.44,3.44v32.97c0,1.9-1.54,3.44-3.44,3.44Z"/>
  <path class="st0" d="M501.28,346.24c-.98,0-1.94-.41-2.63-1.21l-12.93-15.19-12.93,15.19c-1.23,1.44-3.41,1.63-4.85.39-1.45-1.23-1.62-3.41-.39-4.86l15.56-18.27c.66-.77,1.61-1.21,2.62-1.21h0c1.01,0,1.97.44,2.62,1.21l15.55,18.27c1.23,1.45,1.06,3.62-.39,4.86-.65.55-1.44.82-2.23.82Z"/>
  <path class="st0" d="M37.88,551.13c-11.02,0-20.87-1.07-27.34-3.65-10.24-4.06-10.75-11.26-10.49-14.16.93-10.63,15.65-20.32,25.37-22.31,5.3-1.07,11.02-1.44,16.08-1.77,5.32-.35,10.82-.71,13.19-1.77,5.71-3.05,51.07-44.12,71.32-64.13,16.17-16,28.04-36.53,40.99-70.88,2.11-5.62,5.4-14.68,9.45-25.84,25.04-69.03,52.73-143.86,64.34-158.1,10.62-12.99,24.36-19.85,38.92-27.11,7.04-3.51,14.31-7.13,21.69-11.66,3.61-2.21,8.84-6.63,15.47-12.21,9.23-7.78,20.72-17.47,35.5-27.86.1-.07.19-.13.29-.19,1.93-1.2,47.46-29.61,69.06-37.2,35.82-14.04,75.34-21.94,117.26-23.4,3.43-.1,6.5,2.64,6.62,6.18.12,3.53-2.64,6.5-6.18,6.62-40.47,1.41-78.57,9.01-113.24,22.61-19.91,7-63.74,34.19-66.59,35.97-14.25,10.03-25.46,19.48-34.47,27.07-7.04,5.94-12.6,10.63-17.03,13.34-7.86,4.82-15.38,8.57-22.67,12.2-13.86,6.91-25.84,12.89-34.71,23.75-11.21,13.74-45.66,108.73-62.22,154.37-4.07,11.22-7.37,20.33-9.5,25.99-9.98,26.48-22.21,53.94-43.96,75.47-14.82,14.65-67.03,63.13-75.11,66.72-4.45,2-10.53,2.39-17.58,2.85-4.88.32-9.93.65-14.36,1.54-6.39,1.31-14.53,7.91-15.14,10.67.29.28,1.02.81,2.44,1.37,13.94,5.56,56.38,1.94,77.88-4.83,9.61-3.03,18.95-3.73,28.83-4.48,12.7-.96,27.09-2.06,46.43-8.22,29.01-9.27,20.47-45.08,20.09-46.59-.51-2.04.02-4.22,1.41-5.79.83-.94,21.17-23.68,88.05-72.63,63.26-46.33,56.4-106.16,56.07-108.69-.26-2.05.48-4.1,1.99-5.51,1.51-1.41,3.6-2.01,5.63-1.6,161.21,32.54,246.45-55.26,247.29-56.15,2.43-2.57,6.48-2.69,9.05-.26s2.69,6.47.28,9.04c-3.05,3.24-65.19,67.57-185.27,67.58-20.29,0-42.22-1.84-65.81-6.11.03,20.15-5.91,71.19-61.66,112.03-53.74,39.33-77.09,61.65-83.84,68.49,3.31,17.79.91,48.71-29.38,58.39-20.77,6.62-35.96,7.77-49.36,8.79-9.52.72-17.75,1.35-25.96,3.93-14.29,4.5-38.7,8.16-59.11,8.16Z"/>
  <path class="st0" d="M193.41,447.03c-1.44,0-2.87-.65-3.82-1.88-1.61-2.11-1.21-5.12.89-6.73,2.03-1.56,4.04-3.11,6-4.67,2.08-1.64,5.1-1.3,6.74.78,1.65,2.08,1.3,5.1-.78,6.75-2.01,1.59-4.05,3.18-6.12,4.77-.87.67-1.9.99-2.92.99ZM216.68,427.97c-1.33,0-2.66-.55-3.61-1.63-1.75-1.99-1.55-5.03.44-6.78,1.92-1.69,3.81-3.38,5.66-5.06,1.96-1.79,5-1.65,6.78.31,1.79,1.96,1.65,5-.31,6.78-1.89,1.73-3.83,3.45-5.79,5.18-.91.8-2.04,1.19-3.17,1.19ZM238.54,407.32c-1.22,0-2.43-.46-3.37-1.38-1.89-1.86-1.92-4.9-.06-6.79,1.79-1.82,3.54-3.65,5.26-5.46,1.82-1.93,4.86-2.01,6.79-.2,1.93,1.82,2.02,4.86.2,6.79-1.76,1.86-3.56,3.73-5.4,5.6-.94.95-2.18,1.43-3.42,1.43ZM258.74,385.04c-1.08,0-2.18-.37-3.08-1.12-2.03-1.7-2.31-4.73-.61-6.76,1.64-1.96,3.24-3.92,4.8-5.87,1.66-2.07,4.68-2.41,6.75-.75,2.07,1.66,2.41,4.68.75,6.75-1.6,2-3.24,4.01-4.93,6.03-.95,1.14-2.31,1.72-3.69,1.72ZM277.02,361.16c-.95,0-1.91-.28-2.74-.86-2.18-1.52-2.71-4.51-1.19-6.68,1.47-2.11,2.89-4.19,4.26-6.26,1.47-2.21,4.44-2.81,6.65-1.34,2.21,1.47,2.81,4.45,1.34,6.66-1.41,2.13-2.87,4.27-4.38,6.44-.93,1.34-2.43,2.06-3.94,2.06ZM293.07,335.72c-.8,0-1.61-.2-2.36-.62-2.31-1.3-3.12-4.23-1.82-6.54,1.27-2.24,2.48-4.46,3.64-6.63,1.25-2.34,4.16-3.22,6.5-1.98,2.34,1.25,3.23,4.15,1.98,6.5-1.2,2.25-2.45,4.53-3.76,6.84-.88,1.56-2.51,2.44-4.18,2.44ZM306.52,308.81c-.63,0-1.28-.13-1.9-.4-2.43-1.05-3.55-3.88-2.5-6.31,1.04-2.39,2-4.72,2.91-6.97.98-2.46,3.79-3.66,6.24-2.67,2.46.98,3.66,3.78,2.67,6.24-.93,2.33-1.94,4.74-3.01,7.22-.78,1.81-2.55,2.9-4.41,2.9ZM316.83,280.54c-.45,0-.9-.06-1.36-.2-2.54-.75-4-3.41-3.25-5.96.77-2.63,1.43-5.05,1.97-7.24.64-2.57,3.24-4.14,5.82-3.49,2.57.64,4.14,3.25,3.49,5.82-.58,2.3-1.26,4.85-2.07,7.61-.62,2.09-2.53,3.45-4.6,3.45ZM359.32,259.96c-2.6,0-4.74-2.08-4.8-4.7-.06-2.65,2.05-4.84,4.7-4.9,2.54-.05,5.06-.14,7.56-.26,2.71-.13,4.9,1.93,5.02,4.57.13,2.65-1.92,4.89-4.57,5.02-2.58.12-5.18.21-7.8.26-.04,0-.07,0-.11,0ZM336.93,259.65c-.08,0-.16,0-.24,0-2.58-.13-5.18-.29-7.79-.48-2.64-.2-4.63-2.5-4.43-5.15.2-2.65,2.51-4.64,5.15-4.43,2.54.19,5.05.34,7.55.47,2.65.13,4.69,2.38,4.56,5.03-.13,2.57-2.25,4.56-4.79,4.56ZM389.31,257.85c-2.4,0-4.47-1.79-4.76-4.23-.32-2.63,1.56-5.02,4.2-5.34,2.52-.3,5.02-.63,7.5-.99,2.65-.4,5.06,1.44,5.44,4.06s-1.44,5.06-4.06,5.44c-2.55.37-5.13.71-7.74,1.02-.19.02-.38.03-.58.03ZM418.96,252.84c-2.21,0-4.19-1.53-4.69-3.77-.57-2.59,1.07-5.15,3.66-5.72,2.48-.54,4.94-1.11,7.37-1.71,2.57-.64,5.18.94,5.81,3.52.63,2.58-.94,5.18-3.52,5.81-2.51.62-5.04,1.2-7.6,1.77-.35.08-.69.11-1.03.11ZM448,244.99c-2.03,0-3.92-1.3-4.57-3.33-.81-2.52.58-5.23,3.1-6.04,2.42-.78,4.81-1.58,7.17-2.4,2.51-.87,5.24.45,6.11,2.95.88,2.5-.45,5.24-2.95,6.12-2.43.85-4.9,1.68-7.4,2.48-.49.16-.98.23-1.47.23ZM476.19,234.45c-1.87,0-3.64-1.09-4.42-2.92-1.04-2.44.09-5.26,2.53-6.3,2.35-1,4.66-2.02,6.93-3.05,2.41-1.09,5.26-.03,6.36,2.38,1.1,2.41.03,5.26-2.38,6.36-2.34,1.06-4.72,2.11-7.14,3.14-.62.26-1.25.39-1.88.39ZM503.3,221.41c-1.71,0-3.37-.92-4.23-2.53-1.26-2.34-.38-5.25,1.96-6.5,2.26-1.21,4.47-2.43,6.64-3.66,2.3-1.31,5.24-.5,6.55,1.81,1.31,2.31.49,5.24-1.81,6.54-2.23,1.26-4.5,2.52-6.83,3.77-.73.39-1.5.57-2.27.57ZM529.18,206.03c-1.56,0-3.1-.76-4.02-2.17-1.45-2.22-.83-5.2,1.38-6.65,2.17-1.42,4.27-2.83,6.3-4.23,2.19-1.5,5.18-.95,6.68,1.24,1.5,2.19.94,5.17-1.24,6.68-2.09,1.44-4.25,2.88-6.47,4.34-.81.53-1.73.78-2.63.78ZM553.63,188.46c-1.42,0-2.82-.63-3.77-1.82-1.64-2.08-1.29-5.1.79-6.74,2.08-1.64,4.04-3.23,5.9-4.77,2.04-1.69,5.07-1.41,6.76.64,1.69,2.04,1.4,5.07-.64,6.76-1.91,1.58-3.93,3.21-6.06,4.9-.88.7-1.93,1.03-2.98,1.03ZM576.34,168.66c-1.25,0-2.49-.48-3.44-1.45-1.85-1.9-1.82-4.94.08-6.79,3.39-3.31,5.17-5.28,5.19-5.3,1.78-1.97,4.81-2.13,6.78-.35,1.97,1.77,2.13,4.81.36,6.78-.08.09-1.98,2.19-5.62,5.75-.93.91-2.14,1.37-3.35,1.37Z"/>
</svg>