<?xml version="1.0" encoding="UTF-8"?>
<svg id="Layer_1" xmlns="http://www.w3.org/2000/svg" version="1.1" viewBox="0 0 600 600">
  <!-- Generator: Adobe Illustrator 29.5.1, SVG Export Plug-In . SVG Version: 2.1.0 Build 141)  -->
  <defs>
    <style>
      .st0 {
        fill: #191919;
      }
    </style>
  </defs>
  <path class="st0" d="M424.85,263.23c-1.02,0-2.05-.02-3.08-.06-26.76-.94-52.22-14.97-75.65-41.69-2.72-3.1-2.41-7.81.69-10.53,3.1-2.72,7.81-2.41,10.53.69,20.61,23.5,42.48,35.82,64.98,36.62,29.92,1.14,54.03-18.49,62.96-26.99,2.91-2.78,7.64-8.91,6.54-18.75-1.74-15.5-17.34-32.75-43.9-48.57-13.53-8.07-27.01-19.68-40.08-34.51-35.08-39.79-56.19-89.59-57.08-91.69-1.59-3.8.19-8.17,3.99-9.77,3.8-1.6,8.17.19,9.77,3.99.21.49,21.1,49.69,54.51,87.6,12.05,13.67,24.33,24.28,36.53,31.55,39.31,23.4,49.48,45.39,51.09,59.72,1.34,11.86-2.7,23.24-11.08,31.23-10.01,9.52-36.53,31.15-70.72,31.15Z"/>
  <path class="st0" d="M473.53,246.1c-1.79,0-3.59-.65-5.02-1.96-.34-.31-33.77-32.03,3.5-82.02,2.46-3.31,7.13-3.99,10.44-1.52,3.31,2.46,3.99,7.14,1.52,10.44-28.98,38.87-6.29,61.22-5.31,62.15,2.97,2.82,3.13,7.53.33,10.53-1.48,1.58-3.47,2.38-5.46,2.38Z"/>
  <path class="st0" d="M437.03,259.29c-2.08,0-3.84-1.61-3.99-3.72-.16-2.21,1.5-4.13,3.71-4.29l1.95-.15c2.21-.2,4.14,1.45,4.33,3.66.18,2.21-1.45,4.14-3.66,4.33l-2.05.16c-.1,0-.19.01-.29.01ZM454.89,257.01c-1.89,0-3.57-1.34-3.94-3.26-.41-2.17,1.02-4.27,3.19-4.68l1.91-.38c2.15-.44,4.29.96,4.72,3.13.44,2.17-.96,4.28-3.13,4.73l-2.02.4c-.25.05-.5.07-.75.07ZM472.29,252.44c-1.66,0-3.22-1.04-3.79-2.7-.72-2.09.39-4.37,2.48-5.09l1.82-.65c2.08-.76,4.38.31,5.14,2.39.76,2.08-.31,4.38-2.39,5.14-.64.23-1.29.47-1.96.69-.43.15-.87.22-1.3.22ZM488.72,245.12c-1.41,0-2.77-.74-3.5-2.05-1.08-1.93-.39-4.37,1.54-5.45.56-.31,1.11-.63,1.65-.95,1.91-1.13,4.36-.49,5.49,1.41,1.13,1.91.5,4.36-1.41,5.49-.6.35-1.2.7-1.82,1.05-.62.35-1.29.51-1.95.51ZM503.4,234.74c-1.11,0-2.22-.46-3.01-1.36-1.46-1.66-1.3-4.19.36-5.66.48-.42.95-.85,1.41-1.28,1.62-1.51,4.16-1.41,5.66.21,1.5,1.62,1.41,4.16-.22,5.66-.51.47-1.03.94-1.56,1.41-.76.67-1.7,1-2.65,1ZM515.48,221.42c-.81,0-1.63-.25-2.34-.76-1.8-1.3-2.2-3.8-.9-5.59.38-.52.74-1.04,1.1-1.56,1.25-1.83,3.75-2.29,5.57-1.04,1.83,1.25,2.29,3.75,1.04,5.57-.39.57-.8,1.15-1.21,1.72-.78,1.09-2.01,1.66-3.25,1.66ZM524.39,205.78c-.54,0-1.09-.11-1.61-.34-2.03-.89-2.95-3.26-2.05-5.28.26-.59.51-1.18.75-1.76.85-2.04,3.2-3.02,5.24-2.17,2.05.85,3.02,3.19,2.17,5.24-.26.64-.54,1.28-.82,1.93-.66,1.5-2.13,2.39-3.67,2.39ZM530.05,188.67c-.3,0-.61-.03-.91-.11-2.15-.5-3.5-2.65-3-4.81.15-.63.28-1.26.41-1.88.45-2.16,2.56-3.56,4.75-3.1,2.17.46,3.55,2.58,3.1,4.75-.14.67-.29,1.35-.45,2.04-.43,1.85-2.08,3.1-3.9,3.1ZM532.57,170.8c-.08,0-.16,0-.24,0-2.21-.13-3.9-2.03-3.76-4.24.04-.67.07-1.3.09-1.9.07-2.21,1.97-3.94,4.14-3.87,2.21.07,3.95,1.92,3.87,4.14-.02.67-.05,1.37-.09,2.11-.13,2.13-1.89,3.77-4,3.77ZM523.67,161.82c-.06,0-.13,0-.19,0-.7-.03-1.4-.07-2.1-.12-2.21-.16-3.87-2.08-3.71-4.28.16-2.21,2.02-3.88,4.28-3.71.64.05,1.27.08,1.9.11,2.21.1,3.92,1.98,3.82,4.19-.1,2.15-1.88,3.82-4,3.82ZM505.87,159.11c-.32,0-.65-.04-.97-.12l-2-.52c-2.14-.57-3.41-2.77-2.84-4.91.57-2.14,2.76-3.41,4.91-2.84l1.87.48c2.15.54,3.45,2.71,2.92,4.86-.45,1.82-2.09,3.04-3.88,3.04ZM488.73,153.52c-.49,0-1-.09-1.48-.28l-1.91-.77c-2.05-.84-3.02-3.19-2.17-5.23.85-2.05,3.2-3.01,5.24-2.17l1.81.73c2.06.82,3.06,3.15,2.24,5.21-.62,1.57-2.13,2.53-3.72,2.53ZM472.33,145.99c-.62,0-1.24-.14-1.83-.44l-1.82-.95c-1.96-1.03-2.71-3.46-1.67-5.42,1.04-1.96,3.45-2.71,5.42-1.67l1.74.91c1.97,1.01,2.74,3.43,1.73,5.4-.71,1.38-2.11,2.17-3.57,2.17ZM456.61,137.11c-.71,0-1.44-.19-2.09-.59l-1.73-1.07c-1.88-1.17-2.46-3.64-1.29-5.52,1.17-1.88,3.64-2.46,5.52-1.29l1.68,1.04c1.89,1.16,2.48,3.62,1.32,5.51-.76,1.23-2.07,1.91-3.42,1.91ZM441.51,127.23c-.79,0-1.59-.23-2.29-.72l-1.66-1.16c-1.81-1.27-2.25-3.77-.98-5.58,1.27-1.81,3.77-2.25,5.58-.98l1.63,1.14c1.82,1.26,2.27,3.76,1,5.58-.78,1.12-2.02,1.72-3.29,1.72ZM426.93,116.57c-.85,0-1.71-.27-2.44-.83l-1.6-1.24c-1.75-1.36-2.07-3.88-.71-5.62s3.87-2.07,5.62-.71l1.57,1.21c1.75,1.35,2.08,3.86.74,5.62-.79,1.03-1.98,1.57-3.18,1.57ZM412.84,105.27c-.9,0-1.82-.31-2.57-.93l-1.54-1.3c-1.69-1.42-1.91-3.95-.49-5.65,1.42-1.69,3.95-1.92,5.65-.49l1.53,1.28c1.7,1.42,1.92,3.95.5,5.65-.79.95-1.93,1.44-3.08,1.44ZM399.21,93.41c-.96,0-1.92-.34-2.69-1.03l-1.5-1.36c-1.64-1.49-1.75-4.03-.26-5.66,1.49-1.64,4.03-1.75,5.66-.26l1.47,1.34c1.64,1.48,1.77,4.02.29,5.66-.79.88-1.88,1.32-2.97,1.32ZM386.06,80.98c-1.02,0-2.05-.39-2.83-1.17l-1.47-1.48c-1.54-1.58-1.51-4.12.07-5.67,1.58-1.54,4.12-1.51,5.67.07l1.39,1.4c1.57,1.56,1.57,4.1,0,5.67-.78.78-1.81,1.18-2.84,1.18Z"/>
  <path class="st0" d="M419.49,576.6c-.45,0-.91-.04-1.37-.13-4.05-.75-6.72-4.65-5.97-8.7,25.56-137.18,26.18-166.68,6.07-286.99-1.32-7.83-2.52-15.95-3.57-24.12-.53-4.09,2.36-7.83,6.45-8.35,4.13-.52,7.83,2.36,8.35,6.45,1.03,7.98,2.2,15.9,3.48,23.55,20.5,122.65,19.87,152.69-6.11,292.19-.67,3.59-3.81,6.1-7.33,6.1Z"/>
  <path class="st0" d="M413.43,121.98c-4.1,0-7.44-3.31-7.46-7.42-.35-57.94,2.7-101.44,2.73-101.87.29-4.11,3.79-7.22,7.97-6.91,4.11.29,7.21,3.86,6.91,7.97-.03.43-3.04,43.39-2.69,100.72.02,4.12-3.29,7.48-7.42,7.51h-.05Z"/>
  <path class="st0" d="M92.91,600c-3.02,0-5.86-1.84-6.98-4.83-49.94-132.46-7.82-180.09,36.77-230.52,14.81-16.76,30.13-34.08,43.14-55.33,36.02-58.82,30.79-102.32,25.26-148.36-1.19-9.89-2.42-20.11-3.25-30.57-4.75-59.42,2.43-121.2,2.74-123.8.48-4.09,4.23-7.01,8.29-6.53,4.09.49,7.02,4.2,6.53,8.29-.07.62-7.31,62.95-2.69,120.85.81,10.16,2.02,20.24,3.19,29.98,5.86,48.7,11.38,94.69-27.35,157.94-13.69,22.36-29.45,40.18-44.69,57.42-45.11,51.02-80.74,91.32-33.98,215.37,1.45,3.86-.49,8.16-4.35,9.62-.87.33-1.76.48-2.63.48Z"/>
  <path class="st0" d="M307,450.4c-115.17,0-209.39-38.2-210.68-38.74-3.81-1.57-5.62-5.94-4.04-9.74,1.58-3.81,5.94-5.62,9.75-4.05,1.73.71,174.66,70.71,335.52,18.04,3.91-1.29,8.13.85,9.41,4.77,1.28,3.92-.85,8.13-4.77,9.41-45.47,14.89-91.82,20.31-135.19,20.31Z"/>
  <path class="st0" d="M88.02,586.46c-.99,0-2-.2-2.97-.62-3.78-1.64-5.51-6.04-3.88-9.82.65-1.49,16.42-36.81,68.61-66.44,47.21-26.8,134.97-53.97,284.98-31.14,4.07.62,6.88,4.43,6.25,8.5-.62,4.08-4.44,6.87-8.5,6.26-277.39-42.2-337.08,87.45-337.65,88.77-1.22,2.81-3.97,4.5-6.85,4.5Z"/>
</svg>